<?xml version="1.0" encoding="utf-8" standalone="no"?>
<!DOCTYPE svg PUBLIC "-//W3C//DTD SVG 1.1//EN"
  "http://www.w3.org/Graphics/SVG/1.1/DTD/svg11.dtd">
<!-- Created with matplotlib (https://matplotlib.org/) -->
<svg height="407.1675pt" version="1.1" viewBox="0 0 546.585 407.1675" width="546.585pt" xmlns="http://www.w3.org/2000/svg" xmlns:xlink="http://www.w3.org/1999/xlink">
 <defs>
  <style type="text/css">
*{stroke-linecap:butt;stroke-linejoin:round;}
  </style>
 </defs>
 <g id="figure_1">
  <g id="patch_1">
   <path d="M 0 407.1675 
L 546.585 407.1675 
L 546.585 0 
L 0 0 
z
" style="fill:#ffffff;"/>
  </g>
  <g id="axes_1">
   <g id="patch_2">
    <path d="M 33.685 357.9975 
L 535.885 357.9975 
L 535.885 25.3575 
L 33.685 25.3575 
z
" style="fill:#ffffff;"/>
   </g>
   <g id="PolyCollection_1">
    <defs>
     <path d="M 222.01 -49.17 
L 222.01 -217.300299 
L 223.2655 -220.662454 
L 224.521 -224.021889 
L 225.7765 -227.375837 
L 227.032 -230.721483 
L 228.2875 -234.055972 
L 229.543 -237.376406 
L 230.7985 -240.679855 
L 232.054 -243.963353 
L 233.3095 -247.22391 
L 234.565 -250.458513 
L 235.8205 -253.664129 
L 237.076 -256.837713 
L 238.3315 -259.976208 
L 239.587 -263.076556 
L 240.8425 -266.135698 
L 242.098 -269.150579 
L 243.3535 -272.118158 
L 244.609 -275.035405 
L 245.8645 -277.899314 
L 247.12 -280.706903 
L 248.3755 -283.455221 
L 249.631 -286.141355 
L 250.8865 -288.762429 
L 252.142 -291.315617 
L 253.3975 -293.798141 
L 254.653 -296.207283 
L 255.9085 -298.540382 
L 257.164 -300.794845 
L 258.4195 -302.96815 
L 259.675 -305.057851 
L 260.9305 -307.061581 
L 262.186 -308.977057 
L 263.4415 -310.802087 
L 264.697 -312.534569 
L 265.9525 -314.172502 
L 267.208 -315.713982 
L 268.4635 -317.157213 
L 269.719 -318.500505 
L 270.9745 -319.742279 
L 272.23 -320.881072 
L 273.4855 -321.915539 
L 274.741 -322.844452 
L 275.9965 -323.666708 
L 277.252 -324.381328 
L 278.5075 -324.987459 
L 279.763 -325.484378 
L 281.0185 -325.871489 
L 282.274 -326.148329 
L 283.5295 -326.314566 
L 284.785 -326.37 
L 286.0405 -326.314566 
L 287.296 -326.148329 
L 288.5515 -325.871489 
L 289.807 -325.484378 
L 291.0625 -324.987459 
L 292.318 -324.381328 
L 293.5735 -323.666708 
L 294.829 -322.844452 
L 296.0845 -321.915539 
L 297.34 -320.881072 
L 298.5955 -319.742279 
L 299.851 -318.500505 
L 301.1065 -317.157213 
L 302.362 -315.713982 
L 303.6175 -314.172502 
L 304.873 -312.534569 
L 306.1285 -310.802087 
L 307.384 -308.977057 
L 308.6395 -307.061581 
L 309.895 -305.057851 
L 311.1505 -302.96815 
L 312.406 -300.794845 
L 313.6615 -298.540382 
L 314.917 -296.207283 
L 316.1725 -293.798141 
L 317.428 -291.315617 
L 318.6835 -288.762429 
L 319.939 -286.141355 
L 321.1945 -283.455221 
L 322.45 -280.706903 
L 323.7055 -277.899314 
L 324.961 -275.035405 
L 326.2165 -272.118158 
L 327.472 -269.150579 
L 328.7275 -266.135698 
L 329.983 -263.076556 
L 331.2385 -259.976208 
L 332.494 -256.837713 
L 333.7495 -253.664129 
L 335.005 -250.458513 
L 336.2605 -247.22391 
L 337.516 -243.963353 
L 338.7715 -240.679855 
L 340.027 -237.376406 
L 341.2825 -234.055972 
L 342.538 -230.721483 
L 343.7935 -227.375837 
L 345.049 -224.021889 
L 346.3045 -220.662454 
L 346.3045 -49.17 
L 346.3045 -49.17 
L 345.049 -49.17 
L 343.7935 -49.17 
L 342.538 -49.17 
L 341.2825 -49.17 
L 340.027 -49.17 
L 338.7715 -49.17 
L 337.516 -49.17 
L 336.2605 -49.17 
L 335.005 -49.17 
L 333.7495 -49.17 
L 332.494 -49.17 
L 331.2385 -49.17 
L 329.983 -49.17 
L 328.7275 -49.17 
L 327.472 -49.17 
L 326.2165 -49.17 
L 324.961 -49.17 
L 323.7055 -49.17 
L 322.45 -49.17 
L 321.1945 -49.17 
L 319.939 -49.17 
L 318.6835 -49.17 
L 317.428 -49.17 
L 316.1725 -49.17 
L 314.917 -49.17 
L 313.6615 -49.17 
L 312.406 -49.17 
L 311.1505 -49.17 
L 309.895 -49.17 
L 308.6395 -49.17 
L 307.384 -49.17 
L 306.1285 -49.17 
L 304.873 -49.17 
L 303.6175 -49.17 
L 302.362 -49.17 
L 301.1065 -49.17 
L 299.851 -49.17 
L 298.5955 -49.17 
L 297.34 -49.17 
L 296.0845 -49.17 
L 294.829 -49.17 
L 293.5735 -49.17 
L 292.318 -49.17 
L 291.0625 -49.17 
L 289.807 -49.17 
L 288.5515 -49.17 
L 287.296 -49.17 
L 286.0405 -49.17 
L 284.785 -49.17 
L 283.5295 -49.17 
L 282.274 -49.17 
L 281.0185 -49.17 
L 279.763 -49.17 
L 278.5075 -49.17 
L 277.252 -49.17 
L 275.9965 -49.17 
L 274.741 -49.17 
L 273.4855 -49.17 
L 272.23 -49.17 
L 270.9745 -49.17 
L 269.719 -49.17 
L 268.4635 -49.17 
L 267.208 -49.17 
L 265.9525 -49.17 
L 264.697 -49.17 
L 263.4415 -49.17 
L 262.186 -49.17 
L 260.9305 -49.17 
L 259.675 -49.17 
L 258.4195 -49.17 
L 257.164 -49.17 
L 255.9085 -49.17 
L 254.653 -49.17 
L 253.3975 -49.17 
L 252.142 -49.17 
L 250.8865 -49.17 
L 249.631 -49.17 
L 248.3755 -49.17 
L 247.12 -49.17 
L 245.8645 -49.17 
L 244.609 -49.17 
L 243.3535 -49.17 
L 242.098 -49.17 
L 240.8425 -49.17 
L 239.587 -49.17 
L 238.3315 -49.17 
L 237.076 -49.17 
L 235.8205 -49.17 
L 234.565 -49.17 
L 233.3095 -49.17 
L 232.054 -49.17 
L 230.7985 -49.17 
L 229.543 -49.17 
L 228.2875 -49.17 
L 227.032 -49.17 
L 225.7765 -49.17 
L 224.521 -49.17 
L 223.2655 -49.17 
L 222.01 -49.17 
z
" id="m7549ef5e04" style="stroke:#008000;stroke-opacity:0.3;"/>
    </defs>
    <g clip-path="url(#p139c53b7c6)">
     <use style="fill:#008000;fill-opacity:0.3;stroke:#008000;stroke-opacity:0.3;" x="0" xlink:href="#m7549ef5e04" y="407.1675"/>
    </g>
   </g>
   <g id="PolyCollection_2">
    <defs>
     <path d="M 159.235 -49.17 
L 159.235 -86.684941 
L 160.4905 -88.208146 
L 161.746 -89.776951 
L 163.0015 -91.391909 
L 164.257 -93.053538 
L 165.5125 -94.762319 
L 166.768 -96.518695 
L 168.0235 -98.323068 
L 169.279 -100.175796 
L 170.5345 -102.077191 
L 171.79 -104.027519 
L 173.0455 -106.026996 
L 174.301 -108.075783 
L 175.5565 -110.17399 
L 176.812 -112.321668 
L 178.0675 -114.518812 
L 179.323 -116.765355 
L 180.5785 -119.061166 
L 181.834 -121.406053 
L 183.0895 -123.799753 
L 184.345 -126.24194 
L 185.6005 -128.732213 
L 186.856 -131.270103 
L 188.1115 -133.855066 
L 189.367 -136.486484 
L 190.6225 -139.163664 
L 191.878 -141.885834 
L 193.1335 -144.652145 
L 194.389 -147.461668 
L 195.6445 -150.313395 
L 196.9 -153.206237 
L 198.1555 -156.139021 
L 199.411 -159.110495 
L 200.6665 -162.119325 
L 201.922 -165.164093 
L 203.1775 -168.2433 
L 204.433 -171.355364 
L 205.6885 -174.498622 
L 206.944 -177.671332 
L 208.1995 -180.871667 
L 209.455 -184.097725 
L 210.7105 -187.347524 
L 211.966 -190.619006 
L 213.2215 -193.910034 
L 214.477 -197.218403 
L 215.7325 -200.541831 
L 216.988 -203.877969 
L 218.2435 -207.224398 
L 219.499 -210.578637 
L 220.7545 -213.938139 
L 222.01 -217.300299 
L 223.2655 -220.662454 
L 224.521 -224.021889 
L 225.7765 -227.375837 
L 227.032 -230.721483 
L 228.2875 -234.055972 
L 229.543 -237.376406 
L 230.7985 -240.679855 
L 232.054 -243.963353 
L 233.3095 -247.22391 
L 234.565 -250.458513 
L 235.8205 -253.664129 
L 237.076 -256.837713 
L 238.3315 -259.976208 
L 239.587 -263.076556 
L 240.8425 -266.135698 
L 242.098 -269.150579 
L 243.3535 -272.118158 
L 244.609 -275.035405 
L 245.8645 -277.899314 
L 247.12 -280.706903 
L 248.3755 -283.455221 
L 249.631 -286.141355 
L 250.8865 -288.762429 
L 252.142 -291.315617 
L 253.3975 -293.798141 
L 254.653 -296.207283 
L 255.9085 -298.540382 
L 257.164 -300.794845 
L 258.4195 -302.96815 
L 259.675 -305.057851 
L 260.9305 -307.061581 
L 262.186 -308.977057 
L 263.4415 -310.802087 
L 264.697 -312.534569 
L 265.9525 -314.172502 
L 267.208 -315.713982 
L 268.4635 -317.157213 
L 269.719 -318.500505 
L 270.9745 -319.742279 
L 272.23 -320.881072 
L 273.4855 -321.915539 
L 274.741 -322.844452 
L 275.9965 -323.666708 
L 277.252 -324.381328 
L 278.5075 -324.987459 
L 279.763 -325.484378 
L 281.0185 -325.871489 
L 282.274 -326.148329 
L 283.5295 -326.314566 
L 284.785 -326.37 
L 286.0405 -326.314566 
L 287.296 -326.148329 
L 288.5515 -325.871489 
L 289.807 -325.484378 
L 291.0625 -324.987459 
L 292.318 -324.381328 
L 293.5735 -323.666708 
L 294.829 -322.844452 
L 296.0845 -321.915539 
L 297.34 -320.881072 
L 298.5955 -319.742279 
L 299.851 -318.500505 
L 301.1065 -317.157213 
L 302.362 -315.713982 
L 303.6175 -314.172502 
L 304.873 -312.534569 
L 306.1285 -310.802087 
L 307.384 -308.977057 
L 308.6395 -307.061581 
L 309.895 -305.057851 
L 311.1505 -302.96815 
L 312.406 -300.794845 
L 313.6615 -298.540382 
L 314.917 -296.207283 
L 316.1725 -293.798141 
L 317.428 -291.315617 
L 318.6835 -288.762429 
L 319.939 -286.141355 
L 321.1945 -283.455221 
L 322.45 -280.706903 
L 323.7055 -277.899314 
L 324.961 -275.035405 
L 326.2165 -272.118158 
L 327.472 -269.150579 
L 328.7275 -266.135698 
L 329.983 -263.076556 
L 331.2385 -259.976208 
L 332.494 -256.837713 
L 333.7495 -253.664129 
L 335.005 -250.458513 
L 336.2605 -247.22391 
L 337.516 -243.963353 
L 338.7715 -240.679855 
L 340.027 -237.376406 
L 341.2825 -234.055972 
L 342.538 -230.721483 
L 343.7935 -227.375837 
L 345.049 -224.021889 
L 346.3045 -220.662454 
L 347.56 -217.300299 
L 348.8155 -213.938139 
L 350.071 -210.578637 
L 351.3265 -207.224398 
L 352.582 -203.877969 
L 353.8375 -200.541831 
L 355.093 -197.218403 
L 356.3485 -193.910034 
L 357.604 -190.619006 
L 358.8595 -187.347524 
L 360.115 -184.097725 
L 361.3705 -180.871667 
L 362.626 -177.671332 
L 363.8815 -174.498622 
L 365.137 -171.355364 
L 366.3925 -168.2433 
L 367.648 -165.164093 
L 368.9035 -162.119325 
L 370.159 -159.110495 
L 371.4145 -156.139021 
L 372.67 -153.206237 
L 373.9255 -150.313395 
L 375.181 -147.461668 
L 376.4365 -144.652145 
L 377.692 -141.885834 
L 378.9475 -139.163664 
L 380.203 -136.486484 
L 381.4585 -133.855066 
L 382.714 -131.270103 
L 383.9695 -128.732213 
L 385.225 -126.24194 
L 386.4805 -123.799753 
L 387.736 -121.406053 
L 388.9915 -119.061166 
L 390.247 -116.765355 
L 391.5025 -114.518812 
L 392.758 -112.321668 
L 394.0135 -110.17399 
L 395.269 -108.075783 
L 396.5245 -106.026996 
L 397.78 -104.027519 
L 399.0355 -102.077191 
L 400.291 -100.175796 
L 401.5465 -98.323068 
L 402.802 -96.518695 
L 404.0575 -94.762319 
L 405.313 -93.053538 
L 406.5685 -91.391909 
L 407.824 -89.776951 
L 409.0795 -88.208146 
L 409.0795 -49.17 
L 409.0795 -49.17 
L 407.824 -49.17 
L 406.5685 -49.17 
L 405.313 -49.17 
L 404.0575 -49.17 
L 402.802 -49.17 
L 401.5465 -49.17 
L 400.291 -49.17 
L 399.0355 -49.17 
L 397.78 -49.17 
L 396.5245 -49.17 
L 395.269 -49.17 
L 394.0135 -49.17 
L 392.758 -49.17 
L 391.5025 -49.17 
L 390.247 -49.17 
L 388.9915 -49.17 
L 387.736 -49.17 
L 386.4805 -49.17 
L 385.225 -49.17 
L 383.9695 -49.17 
L 382.714 -49.17 
L 381.4585 -49.17 
L 380.203 -49.17 
L 378.9475 -49.17 
L 377.692 -49.17 
L 376.4365 -49.17 
L 375.181 -49.17 
L 373.9255 -49.17 
L 372.67 -49.17 
L 371.4145 -49.17 
L 370.159 -49.17 
L 368.9035 -49.17 
L 367.648 -49.17 
L 366.3925 -49.17 
L 365.137 -49.17 
L 363.8815 -49.17 
L 362.626 -49.17 
L 361.3705 -49.17 
L 360.115 -49.17 
L 358.8595 -49.17 
L 357.604 -49.17 
L 356.3485 -49.17 
L 355.093 -49.17 
L 353.8375 -49.17 
L 352.582 -49.17 
L 351.3265 -49.17 
L 350.071 -49.17 
L 348.8155 -49.17 
L 347.56 -49.17 
L 346.3045 -49.17 
L 345.049 -49.17 
L 343.7935 -49.17 
L 342.538 -49.17 
L 341.2825 -49.17 
L 340.027 -49.17 
L 338.7715 -49.17 
L 337.516 -49.17 
L 336.2605 -49.17 
L 335.005 -49.17 
L 333.7495 -49.17 
L 332.494 -49.17 
L 331.2385 -49.17 
L 329.983 -49.17 
L 328.7275 -49.17 
L 327.472 -49.17 
L 326.2165 -49.17 
L 324.961 -49.17 
L 323.7055 -49.17 
L 322.45 -49.17 
L 321.1945 -49.17 
L 319.939 -49.17 
L 318.6835 -49.17 
L 317.428 -49.17 
L 316.1725 -49.17 
L 314.917 -49.17 
L 313.6615 -49.17 
L 312.406 -49.17 
L 311.1505 -49.17 
L 309.895 -49.17 
L 308.6395 -49.17 
L 307.384 -49.17 
L 306.1285 -49.17 
L 304.873 -49.17 
L 303.6175 -49.17 
L 302.362 -49.17 
L 301.1065 -49.17 
L 299.851 -49.17 
L 298.5955 -49.17 
L 297.34 -49.17 
L 296.0845 -49.17 
L 294.829 -49.17 
L 293.5735 -49.17 
L 292.318 -49.17 
L 291.0625 -49.17 
L 289.807 -49.17 
L 288.5515 -49.17 
L 287.296 -49.17 
L 286.0405 -49.17 
L 284.785 -49.17 
L 283.5295 -49.17 
L 282.274 -49.17 
L 281.0185 -49.17 
L 279.763 -49.17 
L 278.5075 -49.17 
L 277.252 -49.17 
L 275.9965 -49.17 
L 274.741 -49.17 
L 273.4855 -49.17 
L 272.23 -49.17 
L 270.9745 -49.17 
L 269.719 -49.17 
L 268.4635 -49.17 
L 267.208 -49.17 
L 265.9525 -49.17 
L 264.697 -49.17 
L 263.4415 -49.17 
L 262.186 -49.17 
L 260.9305 -49.17 
L 259.675 -49.17 
L 258.4195 -49.17 
L 257.164 -49.17 
L 255.9085 -49.17 
L 254.653 -49.17 
L 253.3975 -49.17 
L 252.142 -49.17 
L 250.8865 -49.17 
L 249.631 -49.17 
L 248.3755 -49.17 
L 247.12 -49.17 
L 245.8645 -49.17 
L 244.609 -49.17 
L 243.3535 -49.17 
L 242.098 -49.17 
L 240.8425 -49.17 
L 239.587 -49.17 
L 238.3315 -49.17 
L 237.076 -49.17 
L 235.8205 -49.17 
L 234.565 -49.17 
L 233.3095 -49.17 
L 232.054 -49.17 
L 230.7985 -49.17 
L 229.543 -49.17 
L 228.2875 -49.17 
L 227.032 -49.17 
L 225.7765 -49.17 
L 224.521 -49.17 
L 223.2655 -49.17 
L 222.01 -49.17 
L 220.7545 -49.17 
L 219.499 -49.17 
L 218.2435 -49.17 
L 216.988 -49.17 
L 215.7325 -49.17 
L 214.477 -49.17 
L 213.2215 -49.17 
L 211.966 -49.17 
L 210.7105 -49.17 
L 209.455 -49.17 
L 208.1995 -49.17 
L 206.944 -49.17 
L 205.6885 -49.17 
L 204.433 -49.17 
L 203.1775 -49.17 
L 201.922 -49.17 
L 200.6665 -49.17 
L 199.411 -49.17 
L 198.1555 -49.17 
L 196.9 -49.17 
L 195.6445 -49.17 
L 194.389 -49.17 
L 193.1335 -49.17 
L 191.878 -49.17 
L 190.6225 -49.17 
L 189.367 -49.17 
L 188.1115 -49.17 
L 186.856 -49.17 
L 185.6005 -49.17 
L 184.345 -49.17 
L 183.0895 -49.17 
L 181.834 -49.17 
L 180.5785 -49.17 
L 179.323 -49.17 
L 178.0675 -49.17 
L 176.812 -49.17 
L 175.5565 -49.17 
L 174.301 -49.17 
L 173.0455 -49.17 
L 171.79 -49.17 
L 170.5345 -49.17 
L 169.279 -49.17 
L 168.0235 -49.17 
L 166.768 -49.17 
L 165.5125 -49.17 
L 164.257 -49.17 
L 163.0015 -49.17 
L 161.746 -49.17 
L 160.4905 -49.17 
L 159.235 -49.17 
z
" id="md8ddc818c7" style="stroke:#008000;stroke-opacity:0.3;"/>
    </defs>
    <g clip-path="url(#p139c53b7c6)">
     <use style="fill:#008000;fill-opacity:0.3;stroke:#008000;stroke-opacity:0.3;" x="0" xlink:href="#md8ddc818c7" y="407.1675"/>
    </g>
   </g>
   <g id="PolyCollection_3">
    <path clip-path="url(#p139c53b7c6)" d="M -342.965 357.9975 
L -342.965 357.9975 
L -341.7095 357.9975 
L -340.454 357.9975 
L -339.1985 357.9975 
L -337.943 357.9975 
L -336.6875 357.9975 
L -335.432 357.9975 
L -334.1765 357.9975 
L -332.921 357.9975 
L -331.6655 357.9975 
L -330.41 357.9975 
L -329.1545 357.9975 
L -327.899 357.9975 
L -326.6435 357.9975 
L -325.388 357.9975 
L -324.1325 357.9975 
L -322.877 357.9975 
L -321.6215 357.9975 
L -320.366 357.9975 
L -319.1105 357.9975 
L -317.855 357.9975 
L -316.5995 357.9975 
L -315.344 357.9975 
L -314.0885 357.9975 
L -312.833 357.9975 
L -311.5775 357.9975 
L -310.322 357.9975 
L -309.0665 357.9975 
L -307.811 357.9975 
L -306.5555 357.9975 
L -305.3 357.9975 
L -304.0445 357.9975 
L -302.789 357.9975 
L -301.5335 357.9975 
L -300.278 357.9975 
L -299.0225 357.9975 
L -297.767 357.9975 
L -296.5115 357.9975 
L -295.256 357.9975 
L -294.0005 357.9975 
L -292.745 357.9975 
L -291.4895 357.9975 
L -290.234 357.9975 
L -288.9785 357.9975 
L -287.723 357.9975 
L -286.4675 357.9975 
L -285.212 357.9975 
L -283.9565 357.9975 
L -282.701 357.9975 
L -281.4455 357.9975 
L -280.19 357.9975 
L -278.9345 357.9975 
L -277.679 357.9975 
L -276.4235 357.9975 
L -275.168 357.9975 
L -273.9125 357.9975 
L -272.657 357.9975 
L -271.4015 357.9975 
L -270.146 357.9975 
L -268.8905 357.9975 
L -267.635 357.9975 
L -266.3795 357.9975 
L -265.124 357.9975 
L -263.8685 357.9975 
L -262.613 357.9975 
L -261.3575 357.9975 
L -260.102 357.9975 
L -258.8465 357.9975 
L -257.591 357.9975 
L -256.3355 357.9975 
L -255.08 357.9975 
L -253.8245 357.9975 
L -252.569 357.9975 
L -251.3135 357.9975 
L -250.058 357.9975 
L -248.8025 357.9975 
L -247.547 357.9975 
L -246.2915 357.9975 
L -245.036 357.9975 
L -243.7805 357.9975 
L -242.525 357.9975 
L -241.2695 357.9975 
L -240.014 357.9975 
L -238.7585 357.9975 
L -237.503 357.9975 
L -236.2475 357.9975 
L -234.992 357.9975 
L -233.7365 357.9975 
L -232.481 357.9975 
L -231.2255 357.9975 
L -229.97 357.9975 
L -228.7145 357.9975 
L -227.459 357.9975 
L -226.2035 357.9975 
L -224.948 357.9975 
L -223.6925 357.9975 
L -222.437 357.9975 
L -221.1815 357.9975 
L -219.926 357.9975 
L -218.6705 357.9975 
L -217.415 357.9975 
L -216.1595 357.9975 
L -214.904 357.9975 
L -213.6485 357.9975 
L -212.393 357.9975 
L -211.1375 357.9975 
L -209.882 357.9975 
L -208.6265 357.9975 
L -207.371 357.9975 
L -206.1155 357.9975 
L -204.86 357.9975 
L -203.6045 357.9975 
L -202.349 357.9975 
L -201.0935 357.9975 
L -199.838 357.9975 
L -198.5825 357.9975 
L -197.327 357.9975 
L -196.0715 357.9975 
L -194.816 357.9975 
L -193.5605 357.9975 
L -192.305 357.9975 
L -191.0495 357.9975 
L -189.794 357.9975 
L -188.5385 357.9975 
L -187.283 357.9975 
L -186.0275 357.9975 
L -184.772 357.9975 
L -183.5165 357.9975 
L -182.261 357.9975 
L -181.0055 357.9975 
L -179.75 357.9975 
L -178.4945 357.9975 
L -177.239 357.9975 
L -175.9835 357.9975 
L -174.728 357.9975 
L -173.4725 357.9975 
L -172.217 357.9975 
L -170.9615 357.9975 
L -169.706 357.9975 
L -168.4505 357.9975 
L -167.195 357.9975 
L -165.9395 357.9975 
L -164.684 357.9975 
L -163.4285 357.9975 
L -162.173 357.9975 
L -160.9175 357.9975 
L -159.662 357.9975 
L -158.4065 357.9975 
L -157.151 357.9975 
L -155.8955 357.9975 
L -154.64 357.9975 
L -153.3845 357.9975 
L -152.129 357.9975 
L -150.8735 357.9975 
L -149.618 357.9975 
L -148.3625 357.9975 
L -147.107 357.9975 
L -145.8515 357.9975 
L -144.596 357.9975 
L -143.3405 357.9975 
L -142.085 357.9975 
L -140.8295 357.9975 
L -139.574 357.9975 
L -138.3185 357.9975 
L -137.063 357.9975 
L -135.8075 357.9975 
L -134.552 357.9975 
L -133.2965 357.9975 
L -132.041 357.9975 
L -130.7855 357.9975 
L -129.53 357.9975 
L -128.2745 357.9975 
L -127.019 357.9975 
L -125.7635 357.9975 
L -124.508 357.9975 
L -123.2525 357.9975 
L -121.997 357.9975 
L -120.7415 357.9975 
L -119.486 357.9975 
L -118.2305 357.9975 
L -116.975 357.9975 
L -115.7195 357.9975 
L -114.464 357.9975 
L -113.2085 357.997499 
L -111.953 357.997499 
L -110.6975 357.997499 
L -109.442 357.997499 
L -108.1865 357.997499 
L -106.931 357.997499 
L -105.6755 357.997499 
L -104.42 357.997499 
L -103.1645 357.997499 
L -101.909 357.997498 
L -100.6535 357.997498 
L -99.398 357.997498 
L -98.1425 357.997498 
L -96.887 357.997497 
L -95.6315 357.997497 
L -94.376 357.997497 
L -93.1205 357.997496 
L -91.865 357.997496 
L -90.6095 357.997495 
L -89.354 357.997495 
L -88.0985 357.997494 
L -86.843 357.997493 
L -85.5875 357.997492 
L -84.332 357.997491 
L -83.0765 357.99749 
L -81.821 357.997489 
L -80.5655 357.997488 
L -79.31 357.997486 
L -78.0545 357.997485 
L -76.799 357.997483 
L -75.5435 357.997481 
L -74.288 357.997478 
L -73.0325 357.997476 
L -71.777 357.997473 
L -70.5215 357.997469 
L -69.266 357.997466 
L -68.0105 357.997462 
L -66.755 357.997457 
L -65.4995 357.997452 
L -64.244 357.997446 
L -62.9885 357.99744 
L -61.733 357.997433 
L -60.4775 357.997425 
L -59.222 357.997416 
L -57.9665 357.997407 
L -56.711 357.997396 
L -55.4555 357.997384 
L -54.2 357.997371 
L -52.9445 357.997356 
L -51.689 357.99734 
L -50.4335 357.997322 
L -49.178 357.997302 
L -47.9225 357.99728 
L -46.667 357.997255 
L -45.4115 357.997228 
L -44.156 357.997198 
L -42.9005 357.997164 
L -41.645 357.997127 
L -40.3895 357.997087 
L -39.134 357.997042 
L -37.8785 357.996992 
L -36.623 357.996937 
L -35.3675 357.996877 
L -34.112 357.99681 
L -32.8565 357.996736 
L -31.601 357.996655 
L -30.3455 357.996565 
L -29.09 357.996467 
L -27.8345 357.996359 
L -26.579 357.996239 
L -25.3235 357.996108 
L -24.068 357.995964 
L -22.8125 357.995805 
L -21.557 357.995631 
L -20.3015 357.99544 
L -19.046 357.99523 
L -17.7905 357.995 
L -16.535 357.994748 
L -15.2795 357.994471 
L -14.024 357.994168 
L -12.7685 357.993835 
L -11.513 357.993472 
L -10.2575 357.993074 
L -9.002 357.992639 
L -7.7465 357.992163 
L -6.491 357.991643 
L -5.2355 357.991074 
L -3.98 357.990454 
L -2.7245 357.989776 
L -1.469 357.989037 
L -0.2135 357.988231 
L 1.042 357.987352 
L 2.2975 357.986394 
L 3.553 357.98535 
L 4.8085 357.984214 
L 6.064 357.982978 
L 7.3195 357.981632 
L 8.575 357.980169 
L 9.8305 357.978579 
L 11.086 357.97685 
L 12.3415 357.974973 
L 13.597 357.972936 
L 14.8525 357.970724 
L 16.108 357.968326 
L 17.3635 357.965725 
L 18.619 357.962906 
L 19.8745 357.959851 
L 21.13 357.956544 
L 22.3855 357.952964 
L 23.641 357.949091 
L 24.8965 357.944901 
L 26.152 357.940372 
L 27.4075 357.935478 
L 28.663 357.930191 
L 29.9185 357.924483 
L 31.174 357.918322 
L 32.4295 357.911676 
L 33.685 357.90451 
L 34.9405 357.896785 
L 36.196 357.888462 
L 37.4515 357.879499 
L 38.707 357.86985 
L 39.9625 357.859467 
L 41.218 357.848299 
L 42.4735 357.836292 
L 43.729 357.823389 
L 44.9845 357.809528 
L 46.24 357.794644 
L 47.4955 357.77867 
L 48.751 357.761532 
L 50.0065 357.743154 
L 51.262 357.723454 
L 52.5175 357.702347 
L 53.773 357.679741 
L 55.0285 357.65554 
L 56.284 357.629643 
L 57.5395 357.601943 
L 58.795 357.572328 
L 60.0505 357.540678 
L 61.306 357.506868 
L 62.5615 357.470767 
L 63.817 357.432235 
L 65.0725 357.391127 
L 66.328 357.347291 
L 67.5835 357.300563 
L 68.839 357.250777 
L 70.0945 357.197754 
L 71.35 357.141308 
L 72.6055 357.081245 
L 73.861 357.017361 
L 75.1165 356.949442 
L 76.372 356.877264 
L 77.6275 356.800595 
L 78.883 356.71919 
L 80.1385 356.632794 
L 81.394 356.541141 
L 82.6495 356.443955 
L 83.905 356.340946 
L 85.1605 356.231814 
L 86.416 356.116245 
L 87.6715 355.993913 
L 88.927 355.864479 
L 90.1825 355.727592 
L 91.438 355.582886 
L 92.6935 355.429983 
L 93.949 355.268489 
L 95.2045 355.097997 
L 96.46 354.918086 
L 97.7155 354.72832 
L 98.971 354.528247 
L 100.2265 354.317402 
L 101.482 354.095305 
L 102.7375 353.861458 
L 103.993 353.615351 
L 105.2485 353.356456 
L 106.504 353.084232 
L 107.7595 352.798121 
L 109.015 352.497549 
L 110.2705 352.181927 
L 111.526 351.850653 
L 112.7815 351.503106 
L 114.037 351.138654 
L 115.2925 350.756645 
L 116.548 350.356418 
L 117.8035 349.937293 
L 119.059 349.498579 
L 120.3145 349.039569 
L 121.57 348.559546 
L 122.8255 348.057776 
L 124.081 347.533516 
L 125.3365 346.98601 
L 126.592 346.414491 
L 127.8475 345.818182 
L 129.103 345.196296 
L 130.3585 344.548036 
L 131.614 343.872599 
L 132.8695 343.169174 
L 134.125 342.436944 
L 135.3805 341.675086 
L 136.636 340.882774 
L 137.8915 340.059179 
L 139.147 339.20347 
L 140.4025 338.314816 
L 141.658 337.392387 
L 142.9135 336.435354 
L 144.169 335.442895 
L 145.4245 334.41419 
L 146.68 333.348428 
L 147.9355 332.244805 
L 149.191 331.10253 
L 150.4465 329.920822 
L 151.702 328.698914 
L 152.9575 327.436054 
L 154.213 326.131511 
L 155.4685 324.78457 
L 156.724 323.394539 
L 157.9795 321.960749 
L 159.235 320.482559 
L 160.4905 318.959354 
L 161.746 317.390549 
L 163.0015 315.775591 
L 164.257 314.113962 
L 165.5125 312.405181 
L 166.768 310.648805 
L 168.0235 308.844432 
L 169.279 306.991704 
L 170.5345 305.090309 
L 171.79 303.139981 
L 173.0455 301.140504 
L 174.301 299.091717 
L 175.5565 296.99351 
L 176.812 294.845832 
L 178.0675 292.648688 
L 179.323 290.402145 
L 180.5785 288.106334 
L 181.834 285.761447 
L 183.0895 283.367747 
L 184.345 280.92556 
L 185.6005 278.435287 
L 186.856 275.897397 
L 188.1115 273.312434 
L 189.367 270.681016 
L 190.6225 268.003836 
L 191.878 265.281666 
L 193.1335 262.515355 
L 194.389 259.705832 
L 195.6445 256.854105 
L 196.9 253.961263 
L 198.1555 251.028479 
L 199.411 248.057005 
L 200.6665 245.048175 
L 201.922 242.003407 
L 203.1775 238.9242 
L 204.433 235.812136 
L 205.6885 232.668878 
L 206.944 229.496168 
L 208.1995 226.295833 
L 209.455 223.069775 
L 210.7105 219.819976 
L 211.966 216.548494 
L 213.2215 213.257466 
L 214.477 209.949097 
L 215.7325 206.625669 
L 216.988 203.289531 
L 218.2435 199.943102 
L 219.499 196.588863 
L 220.7545 193.229361 
L 222.01 189.867201 
L 223.2655 186.505046 
L 224.521 183.145611 
L 225.7765 179.791663 
L 227.032 176.446017 
L 228.2875 173.111528 
L 229.543 169.791094 
L 230.7985 166.487645 
L 232.054 163.204147 
L 233.3095 159.94359 
L 234.565 156.708987 
L 235.8205 153.503371 
L 237.076 150.329787 
L 238.3315 147.191292 
L 239.587 144.090944 
L 240.8425 141.031802 
L 242.098 138.016921 
L 243.3535 135.049342 
L 244.609 132.132095 
L 245.8645 129.268186 
L 247.12 126.460597 
L 248.3755 123.712279 
L 249.631 121.026145 
L 250.8865 118.405071 
L 252.142 115.851883 
L 253.3975 113.369359 
L 254.653 110.960217 
L 255.9085 108.627118 
L 257.164 106.372655 
L 258.4195 104.19935 
L 259.675 102.109649 
L 260.9305 100.105919 
L 262.186 98.190443 
L 263.4415 96.365413 
L 264.697 94.632931 
L 265.9525 92.994998 
L 267.208 91.453518 
L 268.4635 90.010287 
L 269.719 88.666995 
L 270.9745 87.425221 
L 272.23 86.286428 
L 273.4855 85.251961 
L 274.741 84.323048 
L 275.9965 83.500792 
L 277.252 82.786172 
L 278.5075 82.180041 
L 279.763 81.683122 
L 281.0185 81.296011 
L 282.274 81.019171 
L 283.5295 80.852934 
L 284.785 80.7975 
L 286.0405 80.852934 
L 287.296 81.019171 
L 288.5515 81.296011 
L 289.807 81.683122 
L 291.0625 82.180041 
L 292.318 82.786172 
L 293.5735 83.500792 
L 294.829 84.323048 
L 296.0845 85.251961 
L 297.34 86.286428 
L 298.5955 87.425221 
L 299.851 88.666995 
L 301.1065 90.010287 
L 302.362 91.453518 
L 303.6175 92.994998 
L 304.873 94.632931 
L 306.1285 96.365413 
L 307.384 98.190443 
L 308.6395 100.105919 
L 309.895 102.109649 
L 311.1505 104.19935 
L 312.406 106.372655 
L 313.6615 108.627118 
L 314.917 110.960217 
L 316.1725 113.369359 
L 317.428 115.851883 
L 318.6835 118.405071 
L 319.939 121.026145 
L 321.1945 123.712279 
L 322.45 126.460597 
L 323.7055 129.268186 
L 324.961 132.132095 
L 326.2165 135.049342 
L 327.472 138.016921 
L 328.7275 141.031802 
L 329.983 144.090944 
L 331.2385 147.191292 
L 332.494 150.329787 
L 333.7495 153.503371 
L 335.005 156.708987 
L 336.2605 159.94359 
L 337.516 163.204147 
L 338.7715 166.487645 
L 340.027 169.791094 
L 341.2825 173.111528 
L 342.538 176.446017 
L 343.7935 179.791663 
L 345.049 183.145611 
L 346.3045 186.505046 
L 347.56 189.867201 
L 348.8155 193.229361 
L 350.071 196.588863 
L 351.3265 199.943102 
L 352.582 203.289531 
L 353.8375 206.625669 
L 355.093 209.949097 
L 356.3485 213.257466 
L 357.604 216.548494 
L 358.8595 219.819976 
L 360.115 223.069775 
L 361.3705 226.295833 
L 362.626 229.496168 
L 363.8815 232.668878 
L 365.137 235.812136 
L 366.3925 238.9242 
L 367.648 242.003407 
L 368.9035 245.048175 
L 370.159 248.057005 
L 371.4145 251.028479 
L 372.67 253.961263 
L 373.9255 256.854105 
L 375.181 259.705832 
L 376.4365 262.515355 
L 377.692 265.281666 
L 378.9475 268.003836 
L 380.203 270.681016 
L 381.4585 273.312434 
L 382.714 275.897397 
L 383.9695 278.435287 
L 385.225 280.92556 
L 386.4805 283.367747 
L 387.736 285.761447 
L 388.9915 288.106334 
L 390.247 290.402145 
L 391.5025 292.648688 
L 392.758 294.845832 
L 394.0135 296.99351 
L 395.269 299.091717 
L 396.5245 301.140504 
L 397.78 303.139981 
L 399.0355 305.090309 
L 400.291 306.991704 
L 401.5465 308.844432 
L 402.802 310.648805 
L 404.0575 312.405181 
L 405.313 314.113962 
L 406.5685 315.775591 
L 407.824 317.390549 
L 409.0795 318.959354 
L 410.335 320.482559 
L 411.5905 321.960749 
L 412.846 323.394539 
L 414.1015 324.78457 
L 415.357 326.131511 
L 416.6125 327.436054 
L 417.868 328.698914 
L 419.1235 329.920822 
L 420.379 331.10253 
L 421.6345 332.244805 
L 422.89 333.348428 
L 424.1455 334.41419 
L 425.401 335.442895 
L 426.6565 336.435354 
L 427.912 337.392387 
L 429.1675 338.314816 
L 430.423 339.20347 
L 431.6785 340.059179 
L 432.934 340.882774 
L 434.1895 341.675086 
L 435.445 342.436944 
L 436.7005 343.169174 
L 437.956 343.872599 
L 439.2115 344.548036 
L 440.467 345.196296 
L 441.7225 345.818182 
L 442.978 346.414491 
L 444.2335 346.98601 
L 445.489 347.533516 
L 446.7445 348.057776 
L 448 348.559546 
L 449.2555 349.039569 
L 450.511 349.498579 
L 451.7665 349.937293 
L 453.022 350.356418 
L 454.2775 350.756645 
L 455.533 351.138654 
L 456.7885 351.503106 
L 458.044 351.850653 
L 459.2995 352.181927 
L 460.555 352.497549 
L 461.8105 352.798121 
L 463.066 353.084232 
L 464.3215 353.356456 
L 465.577 353.615351 
L 466.8325 353.861458 
L 468.088 354.095305 
L 469.3435 354.317402 
L 470.599 354.528247 
L 471.8545 354.72832 
L 473.11 354.918086 
L 474.3655 355.097997 
L 475.621 355.268489 
L 476.8765 355.429983 
L 478.132 355.582886 
L 479.3875 355.727592 
L 480.643 355.864479 
L 481.8985 355.993913 
L 483.154 356.116245 
L 484.4095 356.231814 
L 485.665 356.340946 
L 486.9205 356.443955 
L 488.176 356.541141 
L 489.4315 356.632794 
L 490.687 356.71919 
L 491.9425 356.800595 
L 493.198 356.877264 
L 494.4535 356.949442 
L 495.709 357.017361 
L 496.9645 357.081245 
L 498.22 357.141308 
L 499.4755 357.197754 
L 500.731 357.250777 
L 501.9865 357.300563 
L 503.242 357.347291 
L 504.4975 357.391127 
L 505.753 357.432235 
L 507.0085 357.470767 
L 508.264 357.506868 
L 509.5195 357.540678 
L 510.775 357.572328 
L 512.0305 357.601943 
L 513.286 357.629643 
L 514.5415 357.65554 
L 515.797 357.679741 
L 517.0525 357.702347 
L 518.308 357.723454 
L 519.5635 357.743154 
L 520.819 357.761532 
L 522.0745 357.77867 
L 523.33 357.794644 
L 524.5855 357.809528 
L 525.841 357.823389 
L 527.0965 357.836292 
L 528.352 357.848299 
L 529.6075 357.859467 
L 530.863 357.86985 
L 532.1185 357.879499 
L 533.374 357.888462 
L 534.6295 357.896785 
L 535.885 357.90451 
L 537.1405 357.911676 
L 538.396 357.918322 
L 539.6515 357.924483 
L 540.907 357.930191 
L 542.1625 357.935478 
L 543.418 357.940372 
L 544.6735 357.944901 
L 545.929 357.949091 
L 547.1845 357.952964 
L 548.44 357.956544 
L 549.6955 357.959851 
L 550.951 357.962906 
L 552.2065 357.965725 
L 553.462 357.968326 
L 554.7175 357.970724 
L 555.973 357.972936 
L 557.2285 357.974973 
L 558.484 357.97685 
L 559.7395 357.978579 
L 560.995 357.980169 
L 562.2505 357.981632 
L 563.506 357.982978 
L 564.7615 357.984214 
L 566.017 357.98535 
L 567.2725 357.986394 
L 568.528 357.987352 
L 569.7835 357.988231 
L 571.039 357.989037 
L 572.2945 357.989776 
L 573.55 357.990454 
L 574.8055 357.991074 
L 576.061 357.991643 
L 577.3165 357.992163 
L 578.572 357.992639 
L 579.8275 357.993074 
L 581.083 357.993472 
L 582.3385 357.993835 
L 583.594 357.994168 
L 584.8495 357.994471 
L 586.105 357.994748 
L 587.3605 357.995 
L 588.616 357.99523 
L 589.8715 357.99544 
L 591.127 357.995631 
L 592.3825 357.995805 
L 593.638 357.995964 
L 594.8935 357.996108 
L 596.149 357.996239 
L 597.4045 357.996359 
L 598.66 357.996467 
L 599.9155 357.996565 
L 601.171 357.996655 
L 602.4265 357.996736 
L 603.682 357.99681 
L 604.9375 357.996877 
L 606.193 357.996937 
L 607.4485 357.996992 
L 608.704 357.997042 
L 609.9595 357.997087 
L 611.215 357.997127 
L 612.4705 357.997164 
L 613.726 357.997198 
L 614.9815 357.997228 
L 616.237 357.997255 
L 617.4925 357.99728 
L 618.748 357.997302 
L 620.0035 357.997322 
L 621.259 357.99734 
L 622.5145 357.997356 
L 623.77 357.997371 
L 625.0255 357.997384 
L 626.281 357.997396 
L 627.5365 357.997407 
L 628.792 357.997416 
L 630.0475 357.997425 
L 631.303 357.997433 
L 632.5585 357.99744 
L 633.814 357.997446 
L 635.0695 357.997452 
L 636.325 357.997457 
L 637.5805 357.997462 
L 638.836 357.997466 
L 640.0915 357.997469 
L 641.347 357.997473 
L 642.6025 357.997476 
L 643.858 357.997478 
L 645.1135 357.997481 
L 646.369 357.997483 
L 647.6245 357.997485 
L 648.88 357.997486 
L 650.1355 357.997488 
L 651.391 357.997489 
L 652.6465 357.99749 
L 653.902 357.997491 
L 655.1575 357.997492 
L 656.413 357.997493 
L 657.6685 357.997494 
L 658.924 357.997495 
L 660.1795 357.997495 
L 661.435 357.997496 
L 662.6905 357.997496 
L 663.946 357.997497 
L 665.2015 357.997497 
L 666.457 357.997497 
L 667.7125 357.997498 
L 668.968 357.997498 
L 670.2235 357.997498 
L 671.479 357.997498 
L 672.7345 357.997499 
L 673.99 357.997499 
L 675.2455 357.997499 
L 676.501 357.997499 
L 677.7565 357.997499 
L 679.012 357.997499 
L 680.2675 357.997499 
L 681.523 357.997499 
L 682.7785 357.997499 
L 684.034 357.9975 
L 685.2895 357.9975 
L 686.545 357.9975 
L 687.8005 357.9975 
L 689.056 357.9975 
L 690.3115 357.9975 
L 691.567 357.9975 
L 692.8225 357.9975 
L 694.078 357.9975 
L 695.3335 357.9975 
L 696.589 357.9975 
L 697.8445 357.9975 
L 699.1 357.9975 
L 700.3555 357.9975 
L 701.611 357.9975 
L 702.8665 357.9975 
L 704.122 357.9975 
L 705.3775 357.9975 
L 706.633 357.9975 
L 707.8885 357.9975 
L 709.144 357.9975 
L 710.3995 357.9975 
L 711.655 357.9975 
L 712.9105 357.9975 
L 714.166 357.9975 
L 715.4215 357.9975 
L 716.677 357.9975 
L 717.9325 357.9975 
L 719.188 357.9975 
L 720.4435 357.9975 
L 721.699 357.9975 
L 722.9545 357.9975 
L 724.21 357.9975 
L 725.4655 357.9975 
L 726.721 357.9975 
L 727.9765 357.9975 
L 729.232 357.9975 
L 730.4875 357.9975 
L 731.743 357.9975 
L 732.9985 357.9975 
L 734.254 357.9975 
L 735.5095 357.9975 
L 736.765 357.9975 
L 738.0205 357.9975 
L 739.276 357.9975 
L 740.5315 357.9975 
L 741.787 357.9975 
L 743.0425 357.9975 
L 744.298 357.9975 
L 745.5535 357.9975 
L 746.809 357.9975 
L 748.0645 357.9975 
L 749.32 357.9975 
L 750.5755 357.9975 
L 751.831 357.9975 
L 753.0865 357.9975 
L 754.342 357.9975 
L 755.5975 357.9975 
L 756.853 357.9975 
L 758.1085 357.9975 
L 759.364 357.9975 
L 760.6195 357.9975 
L 761.875 357.9975 
L 763.1305 357.9975 
L 764.386 357.9975 
L 765.6415 357.9975 
L 766.897 357.9975 
L 768.1525 357.9975 
L 769.408 357.9975 
L 770.6635 357.9975 
L 771.919 357.9975 
L 773.1745 357.9975 
L 774.43 357.9975 
L 775.6855 357.9975 
L 776.941 357.9975 
L 778.1965 357.9975 
L 779.452 357.9975 
L 780.7075 357.9975 
L 781.963 357.9975 
L 783.2185 357.9975 
L 784.474 357.9975 
L 785.7295 357.9975 
L 786.985 357.9975 
L 788.2405 357.9975 
L 789.496 357.9975 
L 790.7515 357.9975 
L 792.007 357.9975 
L 793.2625 357.9975 
L 794.518 357.9975 
L 795.7735 357.9975 
L 797.029 357.9975 
L 798.2845 357.9975 
L 799.54 357.9975 
L 800.7955 357.9975 
L 802.051 357.9975 
L 803.3065 357.9975 
L 804.562 357.9975 
L 805.8175 357.9975 
L 807.073 357.9975 
L 808.3285 357.9975 
L 809.584 357.9975 
L 810.8395 357.9975 
L 812.095 357.9975 
L 813.3505 357.9975 
L 814.606 357.9975 
L 815.8615 357.9975 
L 817.117 357.9975 
L 818.3725 357.9975 
L 819.628 357.9975 
L 820.8835 357.9975 
L 822.139 357.9975 
L 823.3945 357.9975 
L 824.65 357.9975 
L 825.9055 357.9975 
L 827.161 357.9975 
L 828.4165 357.9975 
L 829.672 357.9975 
L 830.9275 357.9975 
L 832.183 357.9975 
L 833.4385 357.9975 
L 834.694 357.9975 
L 835.9495 357.9975 
L 837.205 357.9975 
L 838.4605 357.9975 
L 839.716 357.9975 
L 840.9715 357.9975 
L 842.227 357.9975 
L 843.4825 357.9975 
L 844.738 357.9975 
L 845.9935 357.9975 
L 847.249 357.9975 
L 848.5045 357.9975 
L 849.76 357.9975 
L 851.0155 357.9975 
L 852.271 357.9975 
L 853.5265 357.9975 
L 854.782 357.9975 
L 856.0375 357.9975 
L 857.293 357.9975 
L 858.5485 357.9975 
L 859.804 357.9975 
L 861.0595 357.9975 
L 862.315 357.9975 
L 863.5705 357.9975 
L 864.826 357.9975 
L 866.0815 357.9975 
L 867.337 357.9975 
L 868.5925 357.9975 
L 869.848 357.9975 
L 871.1035 357.9975 
L 872.359 357.9975 
L 873.6145 357.9975 
L 874.87 357.9975 
L 876.1255 357.9975 
L 877.381 357.9975 
L 878.6365 357.9975 
L 879.892 357.9975 
L 881.1475 357.9975 
L 882.403 357.9975 
L 883.6585 357.9975 
L 884.914 357.9975 
L 886.1695 357.9975 
L 887.425 357.9975 
L 888.6805 357.9975 
L 889.936 357.9975 
L 891.1915 357.9975 
L 892.447 357.9975 
L 893.7025 357.9975 
L 894.958 357.9975 
L 896.2135 357.9975 
L 897.469 357.9975 
L 898.7245 357.9975 
L 899.98 357.9975 
L 901.2355 357.9975 
L 902.491 357.9975 
L 903.7465 357.9975 
L 905.002 357.9975 
L 906.2575 357.9975 
L 907.513 357.9975 
L 908.7685 357.9975 
L 910.024 357.9975 
L 911.2795 357.9975 
L 911.2795 357.9975 
L 911.2795 357.9975 
L 910.024 357.9975 
L 908.7685 357.9975 
L 907.513 357.9975 
L 906.2575 357.9975 
L 905.002 357.9975 
L 903.7465 357.9975 
L 902.491 357.9975 
L 901.2355 357.9975 
L 899.98 357.9975 
L 898.7245 357.9975 
L 897.469 357.9975 
L 896.2135 357.9975 
L 894.958 357.9975 
L 893.7025 357.9975 
L 892.447 357.9975 
L 891.1915 357.9975 
L 889.936 357.9975 
L 888.6805 357.9975 
L 887.425 357.9975 
L 886.1695 357.9975 
L 884.914 357.9975 
L 883.6585 357.9975 
L 882.403 357.9975 
L 881.1475 357.9975 
L 879.892 357.9975 
L 878.6365 357.9975 
L 877.381 357.9975 
L 876.1255 357.9975 
L 874.87 357.9975 
L 873.6145 357.9975 
L 872.359 357.9975 
L 871.1035 357.9975 
L 869.848 357.9975 
L 868.5925 357.9975 
L 867.337 357.9975 
L 866.0815 357.9975 
L 864.826 357.9975 
L 863.5705 357.9975 
L 862.315 357.9975 
L 861.0595 357.9975 
L 859.804 357.9975 
L 858.5485 357.9975 
L 857.293 357.9975 
L 856.0375 357.9975 
L 854.782 357.9975 
L 853.5265 357.9975 
L 852.271 357.9975 
L 851.0155 357.9975 
L 849.76 357.9975 
L 848.5045 357.9975 
L 847.249 357.9975 
L 845.9935 357.9975 
L 844.738 357.9975 
L 843.4825 357.9975 
L 842.227 357.9975 
L 840.9715 357.9975 
L 839.716 357.9975 
L 838.4605 357.9975 
L 837.205 357.9975 
L 835.9495 357.9975 
L 834.694 357.9975 
L 833.4385 357.9975 
L 832.183 357.9975 
L 830.9275 357.9975 
L 829.672 357.9975 
L 828.4165 357.9975 
L 827.161 357.9975 
L 825.9055 357.9975 
L 824.65 357.9975 
L 823.3945 357.9975 
L 822.139 357.9975 
L 820.8835 357.9975 
L 819.628 357.9975 
L 818.3725 357.9975 
L 817.117 357.9975 
L 815.8615 357.9975 
L 814.606 357.9975 
L 813.3505 357.9975 
L 812.095 357.9975 
L 810.8395 357.9975 
L 809.584 357.9975 
L 808.3285 357.9975 
L 807.073 357.9975 
L 805.8175 357.9975 
L 804.562 357.9975 
L 803.3065 357.9975 
L 802.051 357.9975 
L 800.7955 357.9975 
L 799.54 357.9975 
L 798.2845 357.9975 
L 797.029 357.9975 
L 795.7735 357.9975 
L 794.518 357.9975 
L 793.2625 357.9975 
L 792.007 357.9975 
L 790.7515 357.9975 
L 789.496 357.9975 
L 788.2405 357.9975 
L 786.985 357.9975 
L 785.7295 357.9975 
L 784.474 357.9975 
L 783.2185 357.9975 
L 781.963 357.9975 
L 780.7075 357.9975 
L 779.452 357.9975 
L 778.1965 357.9975 
L 776.941 357.9975 
L 775.6855 357.9975 
L 774.43 357.9975 
L 773.1745 357.9975 
L 771.919 357.9975 
L 770.6635 357.9975 
L 769.408 357.9975 
L 768.1525 357.9975 
L 766.897 357.9975 
L 765.6415 357.9975 
L 764.386 357.9975 
L 763.1305 357.9975 
L 761.875 357.9975 
L 760.6195 357.9975 
L 759.364 357.9975 
L 758.1085 357.9975 
L 756.853 357.9975 
L 755.5975 357.9975 
L 754.342 357.9975 
L 753.0865 357.9975 
L 751.831 357.9975 
L 750.5755 357.9975 
L 749.32 357.9975 
L 748.0645 357.9975 
L 746.809 357.9975 
L 745.5535 357.9975 
L 744.298 357.9975 
L 743.0425 357.9975 
L 741.787 357.9975 
L 740.5315 357.9975 
L 739.276 357.9975 
L 738.0205 357.9975 
L 736.765 357.9975 
L 735.5095 357.9975 
L 734.254 357.9975 
L 732.9985 357.9975 
L 731.743 357.9975 
L 730.4875 357.9975 
L 729.232 357.9975 
L 727.9765 357.9975 
L 726.721 357.9975 
L 725.4655 357.9975 
L 724.21 357.9975 
L 722.9545 357.9975 
L 721.699 357.9975 
L 720.4435 357.9975 
L 719.188 357.9975 
L 717.9325 357.9975 
L 716.677 357.9975 
L 715.4215 357.9975 
L 714.166 357.9975 
L 712.9105 357.9975 
L 711.655 357.9975 
L 710.3995 357.9975 
L 709.144 357.9975 
L 707.8885 357.9975 
L 706.633 357.9975 
L 705.3775 357.9975 
L 704.122 357.9975 
L 702.8665 357.9975 
L 701.611 357.9975 
L 700.3555 357.9975 
L 699.1 357.9975 
L 697.8445 357.9975 
L 696.589 357.9975 
L 695.3335 357.9975 
L 694.078 357.9975 
L 692.8225 357.9975 
L 691.567 357.9975 
L 690.3115 357.9975 
L 689.056 357.9975 
L 687.8005 357.9975 
L 686.545 357.9975 
L 685.2895 357.9975 
L 684.034 357.9975 
L 682.7785 357.9975 
L 681.523 357.9975 
L 680.2675 357.9975 
L 679.012 357.9975 
L 677.7565 357.9975 
L 676.501 357.9975 
L 675.2455 357.9975 
L 673.99 357.9975 
L 672.7345 357.9975 
L 671.479 357.9975 
L 670.2235 357.9975 
L 668.968 357.9975 
L 667.7125 357.9975 
L 666.457 357.9975 
L 665.2015 357.9975 
L 663.946 357.9975 
L 662.6905 357.9975 
L 661.435 357.9975 
L 660.1795 357.9975 
L 658.924 357.9975 
L 657.6685 357.9975 
L 656.413 357.9975 
L 655.1575 357.9975 
L 653.902 357.9975 
L 652.6465 357.9975 
L 651.391 357.9975 
L 650.1355 357.9975 
L 648.88 357.9975 
L 647.6245 357.9975 
L 646.369 357.9975 
L 645.1135 357.9975 
L 643.858 357.9975 
L 642.6025 357.9975 
L 641.347 357.9975 
L 640.0915 357.9975 
L 638.836 357.9975 
L 637.5805 357.9975 
L 636.325 357.9975 
L 635.0695 357.9975 
L 633.814 357.9975 
L 632.5585 357.9975 
L 631.303 357.9975 
L 630.0475 357.9975 
L 628.792 357.9975 
L 627.5365 357.9975 
L 626.281 357.9975 
L 625.0255 357.9975 
L 623.77 357.9975 
L 622.5145 357.9975 
L 621.259 357.9975 
L 620.0035 357.9975 
L 618.748 357.9975 
L 617.4925 357.9975 
L 616.237 357.9975 
L 614.9815 357.9975 
L 613.726 357.9975 
L 612.4705 357.9975 
L 611.215 357.9975 
L 609.9595 357.9975 
L 608.704 357.9975 
L 607.4485 357.9975 
L 606.193 357.9975 
L 604.9375 357.9975 
L 603.682 357.9975 
L 602.4265 357.9975 
L 601.171 357.9975 
L 599.9155 357.9975 
L 598.66 357.9975 
L 597.4045 357.9975 
L 596.149 357.9975 
L 594.8935 357.9975 
L 593.638 357.9975 
L 592.3825 357.9975 
L 591.127 357.9975 
L 589.8715 357.9975 
L 588.616 357.9975 
L 587.3605 357.9975 
L 586.105 357.9975 
L 584.8495 357.9975 
L 583.594 357.9975 
L 582.3385 357.9975 
L 581.083 357.9975 
L 579.8275 357.9975 
L 578.572 357.9975 
L 577.3165 357.9975 
L 576.061 357.9975 
L 574.8055 357.9975 
L 573.55 357.9975 
L 572.2945 357.9975 
L 571.039 357.9975 
L 569.7835 357.9975 
L 568.528 357.9975 
L 567.2725 357.9975 
L 566.017 357.9975 
L 564.7615 357.9975 
L 563.506 357.9975 
L 562.2505 357.9975 
L 560.995 357.9975 
L 559.7395 357.9975 
L 558.484 357.9975 
L 557.2285 357.9975 
L 555.973 357.9975 
L 554.7175 357.9975 
L 553.462 357.9975 
L 552.2065 357.9975 
L 550.951 357.9975 
L 549.6955 357.9975 
L 548.44 357.9975 
L 547.1845 357.9975 
L 545.929 357.9975 
L 544.6735 357.9975 
L 543.418 357.9975 
L 542.1625 357.9975 
L 540.907 357.9975 
L 539.6515 357.9975 
L 538.396 357.9975 
L 537.1405 357.9975 
L 535.885 357.9975 
L 534.6295 357.9975 
L 533.374 357.9975 
L 532.1185 357.9975 
L 530.863 357.9975 
L 529.6075 357.9975 
L 528.352 357.9975 
L 527.0965 357.9975 
L 525.841 357.9975 
L 524.5855 357.9975 
L 523.33 357.9975 
L 522.0745 357.9975 
L 520.819 357.9975 
L 519.5635 357.9975 
L 518.308 357.9975 
L 517.0525 357.9975 
L 515.797 357.9975 
L 514.5415 357.9975 
L 513.286 357.9975 
L 512.0305 357.9975 
L 510.775 357.9975 
L 509.5195 357.9975 
L 508.264 357.9975 
L 507.0085 357.9975 
L 505.753 357.9975 
L 504.4975 357.9975 
L 503.242 357.9975 
L 501.9865 357.9975 
L 500.731 357.9975 
L 499.4755 357.9975 
L 498.22 357.9975 
L 496.9645 357.9975 
L 495.709 357.9975 
L 494.4535 357.9975 
L 493.198 357.9975 
L 491.9425 357.9975 
L 490.687 357.9975 
L 489.4315 357.9975 
L 488.176 357.9975 
L 486.9205 357.9975 
L 485.665 357.9975 
L 484.4095 357.9975 
L 483.154 357.9975 
L 481.8985 357.9975 
L 480.643 357.9975 
L 479.3875 357.9975 
L 478.132 357.9975 
L 476.8765 357.9975 
L 475.621 357.9975 
L 474.3655 357.9975 
L 473.11 357.9975 
L 471.8545 357.9975 
L 470.599 357.9975 
L 469.3435 357.9975 
L 468.088 357.9975 
L 466.8325 357.9975 
L 465.577 357.9975 
L 464.3215 357.9975 
L 463.066 357.9975 
L 461.8105 357.9975 
L 460.555 357.9975 
L 459.2995 357.9975 
L 458.044 357.9975 
L 456.7885 357.9975 
L 455.533 357.9975 
L 454.2775 357.9975 
L 453.022 357.9975 
L 451.7665 357.9975 
L 450.511 357.9975 
L 449.2555 357.9975 
L 448 357.9975 
L 446.7445 357.9975 
L 445.489 357.9975 
L 444.2335 357.9975 
L 442.978 357.9975 
L 441.7225 357.9975 
L 440.467 357.9975 
L 439.2115 357.9975 
L 437.956 357.9975 
L 436.7005 357.9975 
L 435.445 357.9975 
L 434.1895 357.9975 
L 432.934 357.9975 
L 431.6785 357.9975 
L 430.423 357.9975 
L 429.1675 357.9975 
L 427.912 357.9975 
L 426.6565 357.9975 
L 425.401 357.9975 
L 424.1455 357.9975 
L 422.89 357.9975 
L 421.6345 357.9975 
L 420.379 357.9975 
L 419.1235 357.9975 
L 417.868 357.9975 
L 416.6125 357.9975 
L 415.357 357.9975 
L 414.1015 357.9975 
L 412.846 357.9975 
L 411.5905 357.9975 
L 410.335 357.9975 
L 409.0795 357.9975 
L 407.824 357.9975 
L 406.5685 357.9975 
L 405.313 357.9975 
L 404.0575 357.9975 
L 402.802 357.9975 
L 401.5465 357.9975 
L 400.291 357.9975 
L 399.0355 357.9975 
L 397.78 357.9975 
L 396.5245 357.9975 
L 395.269 357.9975 
L 394.0135 357.9975 
L 392.758 357.9975 
L 391.5025 357.9975 
L 390.247 357.9975 
L 388.9915 357.9975 
L 387.736 357.9975 
L 386.4805 357.9975 
L 385.225 357.9975 
L 383.9695 357.9975 
L 382.714 357.9975 
L 381.4585 357.9975 
L 380.203 357.9975 
L 378.9475 357.9975 
L 377.692 357.9975 
L 376.4365 357.9975 
L 375.181 357.9975 
L 373.9255 357.9975 
L 372.67 357.9975 
L 371.4145 357.9975 
L 370.159 357.9975 
L 368.9035 357.9975 
L 367.648 357.9975 
L 366.3925 357.9975 
L 365.137 357.9975 
L 363.8815 357.9975 
L 362.626 357.9975 
L 361.3705 357.9975 
L 360.115 357.9975 
L 358.8595 357.9975 
L 357.604 357.9975 
L 356.3485 357.9975 
L 355.093 357.9975 
L 353.8375 357.9975 
L 352.582 357.9975 
L 351.3265 357.9975 
L 350.071 357.9975 
L 348.8155 357.9975 
L 347.56 357.9975 
L 346.3045 357.9975 
L 345.049 357.9975 
L 343.7935 357.9975 
L 342.538 357.9975 
L 341.2825 357.9975 
L 340.027 357.9975 
L 338.7715 357.9975 
L 337.516 357.9975 
L 336.2605 357.9975 
L 335.005 357.9975 
L 333.7495 357.9975 
L 332.494 357.9975 
L 331.2385 357.9975 
L 329.983 357.9975 
L 328.7275 357.9975 
L 327.472 357.9975 
L 326.2165 357.9975 
L 324.961 357.9975 
L 323.7055 357.9975 
L 322.45 357.9975 
L 321.1945 357.9975 
L 319.939 357.9975 
L 318.6835 357.9975 
L 317.428 357.9975 
L 316.1725 357.9975 
L 314.917 357.9975 
L 313.6615 357.9975 
L 312.406 357.9975 
L 311.1505 357.9975 
L 309.895 357.9975 
L 308.6395 357.9975 
L 307.384 357.9975 
L 306.1285 357.9975 
L 304.873 357.9975 
L 303.6175 357.9975 
L 302.362 357.9975 
L 301.1065 357.9975 
L 299.851 357.9975 
L 298.5955 357.9975 
L 297.34 357.9975 
L 296.0845 357.9975 
L 294.829 357.9975 
L 293.5735 357.9975 
L 292.318 357.9975 
L 291.0625 357.9975 
L 289.807 357.9975 
L 288.5515 357.9975 
L 287.296 357.9975 
L 286.0405 357.9975 
L 284.785 357.9975 
L 283.5295 357.9975 
L 282.274 357.9975 
L 281.0185 357.9975 
L 279.763 357.9975 
L 278.5075 357.9975 
L 277.252 357.9975 
L 275.9965 357.9975 
L 274.741 357.9975 
L 273.4855 357.9975 
L 272.23 357.9975 
L 270.9745 357.9975 
L 269.719 357.9975 
L 268.4635 357.9975 
L 267.208 357.9975 
L 265.9525 357.9975 
L 264.697 357.9975 
L 263.4415 357.9975 
L 262.186 357.9975 
L 260.9305 357.9975 
L 259.675 357.9975 
L 258.4195 357.9975 
L 257.164 357.9975 
L 255.9085 357.9975 
L 254.653 357.9975 
L 253.3975 357.9975 
L 252.142 357.9975 
L 250.8865 357.9975 
L 249.631 357.9975 
L 248.3755 357.9975 
L 247.12 357.9975 
L 245.8645 357.9975 
L 244.609 357.9975 
L 243.3535 357.9975 
L 242.098 357.9975 
L 240.8425 357.9975 
L 239.587 357.9975 
L 238.3315 357.9975 
L 237.076 357.9975 
L 235.8205 357.9975 
L 234.565 357.9975 
L 233.3095 357.9975 
L 232.054 357.9975 
L 230.7985 357.9975 
L 229.543 357.9975 
L 228.2875 357.9975 
L 227.032 357.9975 
L 225.7765 357.9975 
L 224.521 357.9975 
L 223.2655 357.9975 
L 222.01 357.9975 
L 220.7545 357.9975 
L 219.499 357.9975 
L 218.2435 357.9975 
L 216.988 357.9975 
L 215.7325 357.9975 
L 214.477 357.9975 
L 213.2215 357.9975 
L 211.966 357.9975 
L 210.7105 357.9975 
L 209.455 357.9975 
L 208.1995 357.9975 
L 206.944 357.9975 
L 205.6885 357.9975 
L 204.433 357.9975 
L 203.1775 357.9975 
L 201.922 357.9975 
L 200.6665 357.9975 
L 199.411 357.9975 
L 198.1555 357.9975 
L 196.9 357.9975 
L 195.6445 357.9975 
L 194.389 357.9975 
L 193.1335 357.9975 
L 191.878 357.9975 
L 190.6225 357.9975 
L 189.367 357.9975 
L 188.1115 357.9975 
L 186.856 357.9975 
L 185.6005 357.9975 
L 184.345 357.9975 
L 183.0895 357.9975 
L 181.834 357.9975 
L 180.5785 357.9975 
L 179.323 357.9975 
L 178.0675 357.9975 
L 176.812 357.9975 
L 175.5565 357.9975 
L 174.301 357.9975 
L 173.0455 357.9975 
L 171.79 357.9975 
L 170.5345 357.9975 
L 169.279 357.9975 
L 168.0235 357.9975 
L 166.768 357.9975 
L 165.5125 357.9975 
L 164.257 357.9975 
L 163.0015 357.9975 
L 161.746 357.9975 
L 160.4905 357.9975 
L 159.235 357.9975 
L 157.9795 357.9975 
L 156.724 357.9975 
L 155.4685 357.9975 
L 154.213 357.9975 
L 152.9575 357.9975 
L 151.702 357.9975 
L 150.4465 357.9975 
L 149.191 357.9975 
L 147.9355 357.9975 
L 146.68 357.9975 
L 145.4245 357.9975 
L 144.169 357.9975 
L 142.9135 357.9975 
L 141.658 357.9975 
L 140.4025 357.9975 
L 139.147 357.9975 
L 137.8915 357.9975 
L 136.636 357.9975 
L 135.3805 357.9975 
L 134.125 357.9975 
L 132.8695 357.9975 
L 131.614 357.9975 
L 130.3585 357.9975 
L 129.103 357.9975 
L 127.8475 357.9975 
L 126.592 357.9975 
L 125.3365 357.9975 
L 124.081 357.9975 
L 122.8255 357.9975 
L 121.57 357.9975 
L 120.3145 357.9975 
L 119.059 357.9975 
L 117.8035 357.9975 
L 116.548 357.9975 
L 115.2925 357.9975 
L 114.037 357.9975 
L 112.7815 357.9975 
L 111.526 357.9975 
L 110.2705 357.9975 
L 109.015 357.9975 
L 107.7595 357.9975 
L 106.504 357.9975 
L 105.2485 357.9975 
L 103.993 357.9975 
L 102.7375 357.9975 
L 101.482 357.9975 
L 100.2265 357.9975 
L 98.971 357.9975 
L 97.7155 357.9975 
L 96.46 357.9975 
L 95.2045 357.9975 
L 93.949 357.9975 
L 92.6935 357.9975 
L 91.438 357.9975 
L 90.1825 357.9975 
L 88.927 357.9975 
L 87.6715 357.9975 
L 86.416 357.9975 
L 85.1605 357.9975 
L 83.905 357.9975 
L 82.6495 357.9975 
L 81.394 357.9975 
L 80.1385 357.9975 
L 78.883 357.9975 
L 77.6275 357.9975 
L 76.372 357.9975 
L 75.1165 357.9975 
L 73.861 357.9975 
L 72.6055 357.9975 
L 71.35 357.9975 
L 70.0945 357.9975 
L 68.839 357.9975 
L 67.5835 357.9975 
L 66.328 357.9975 
L 65.0725 357.9975 
L 63.817 357.9975 
L 62.5615 357.9975 
L 61.306 357.9975 
L 60.0505 357.9975 
L 58.795 357.9975 
L 57.5395 357.9975 
L 56.284 357.9975 
L 55.0285 357.9975 
L 53.773 357.9975 
L 52.5175 357.9975 
L 51.262 357.9975 
L 50.0065 357.9975 
L 48.751 357.9975 
L 47.4955 357.9975 
L 46.24 357.9975 
L 44.9845 357.9975 
L 43.729 357.9975 
L 42.4735 357.9975 
L 41.218 357.9975 
L 39.9625 357.9975 
L 38.707 357.9975 
L 37.4515 357.9975 
L 36.196 357.9975 
L 34.9405 357.9975 
L 33.685 357.9975 
L 32.4295 357.9975 
L 31.174 357.9975 
L 29.9185 357.9975 
L 28.663 357.9975 
L 27.4075 357.9975 
L 26.152 357.9975 
L 24.8965 357.9975 
L 23.641 357.9975 
L 22.3855 357.9975 
L 21.13 357.9975 
L 19.8745 357.9975 
L 18.619 357.9975 
L 17.3635 357.9975 
L 16.108 357.9975 
L 14.8525 357.9975 
L 13.597 357.9975 
L 12.3415 357.9975 
L 11.086 357.9975 
L 9.8305 357.9975 
L 8.575 357.9975 
L 7.3195 357.9975 
L 6.064 357.9975 
L 4.8085 357.9975 
L 3.553 357.9975 
L 2.2975 357.9975 
L 1.042 357.9975 
L -0.2135 357.9975 
L -1.469 357.9975 
L -2.7245 357.9975 
L -3.98 357.9975 
L -5.2355 357.9975 
L -6.491 357.9975 
L -7.7465 357.9975 
L -9.002 357.9975 
L -10.2575 357.9975 
L -11.513 357.9975 
L -12.7685 357.9975 
L -14.024 357.9975 
L -15.2795 357.9975 
L -16.535 357.9975 
L -17.7905 357.9975 
L -19.046 357.9975 
L -20.3015 357.9975 
L -21.557 357.9975 
L -22.8125 357.9975 
L -24.068 357.9975 
L -25.3235 357.9975 
L -26.579 357.9975 
L -27.8345 357.9975 
L -29.09 357.9975 
L -30.3455 357.9975 
L -31.601 357.9975 
L -32.8565 357.9975 
L -34.112 357.9975 
L -35.3675 357.9975 
L -36.623 357.9975 
L -37.8785 357.9975 
L -39.134 357.9975 
L -40.3895 357.9975 
L -41.645 357.9975 
L -42.9005 357.9975 
L -44.156 357.9975 
L -45.4115 357.9975 
L -46.667 357.9975 
L -47.9225 357.9975 
L -49.178 357.9975 
L -50.4335 357.9975 
L -51.689 357.9975 
L -52.9445 357.9975 
L -54.2 357.9975 
L -55.4555 357.9975 
L -56.711 357.9975 
L -57.9665 357.9975 
L -59.222 357.9975 
L -60.4775 357.9975 
L -61.733 357.9975 
L -62.9885 357.9975 
L -64.244 357.9975 
L -65.4995 357.9975 
L -66.755 357.9975 
L -68.0105 357.9975 
L -69.266 357.9975 
L -70.5215 357.9975 
L -71.777 357.9975 
L -73.0325 357.9975 
L -74.288 357.9975 
L -75.5435 357.9975 
L -76.799 357.9975 
L -78.0545 357.9975 
L -79.31 357.9975 
L -80.5655 357.9975 
L -81.821 357.9975 
L -83.0765 357.9975 
L -84.332 357.9975 
L -85.5875 357.9975 
L -86.843 357.9975 
L -88.0985 357.9975 
L -89.354 357.9975 
L -90.6095 357.9975 
L -91.865 357.9975 
L -93.1205 357.9975 
L -94.376 357.9975 
L -95.6315 357.9975 
L -96.887 357.9975 
L -98.1425 357.9975 
L -99.398 357.9975 
L -100.6535 357.9975 
L -101.909 357.9975 
L -103.1645 357.9975 
L -104.42 357.9975 
L -105.6755 357.9975 
L -106.931 357.9975 
L -108.1865 357.9975 
L -109.442 357.9975 
L -110.6975 357.9975 
L -111.953 357.9975 
L -113.2085 357.9975 
L -114.464 357.9975 
L -115.7195 357.9975 
L -116.975 357.9975 
L -118.2305 357.9975 
L -119.486 357.9975 
L -120.7415 357.9975 
L -121.997 357.9975 
L -123.2525 357.9975 
L -124.508 357.9975 
L -125.7635 357.9975 
L -127.019 357.9975 
L -128.2745 357.9975 
L -129.53 357.9975 
L -130.7855 357.9975 
L -132.041 357.9975 
L -133.2965 357.9975 
L -134.552 357.9975 
L -135.8075 357.9975 
L -137.063 357.9975 
L -138.3185 357.9975 
L -139.574 357.9975 
L -140.8295 357.9975 
L -142.085 357.9975 
L -143.3405 357.9975 
L -144.596 357.9975 
L -145.8515 357.9975 
L -147.107 357.9975 
L -148.3625 357.9975 
L -149.618 357.9975 
L -150.8735 357.9975 
L -152.129 357.9975 
L -153.3845 357.9975 
L -154.64 357.9975 
L -155.8955 357.9975 
L -157.151 357.9975 
L -158.4065 357.9975 
L -159.662 357.9975 
L -160.9175 357.9975 
L -162.173 357.9975 
L -163.4285 357.9975 
L -164.684 357.9975 
L -165.9395 357.9975 
L -167.195 357.9975 
L -168.4505 357.9975 
L -169.706 357.9975 
L -170.9615 357.9975 
L -172.217 357.9975 
L -173.4725 357.9975 
L -174.728 357.9975 
L -175.9835 357.9975 
L -177.239 357.9975 
L -178.4945 357.9975 
L -179.75 357.9975 
L -181.0055 357.9975 
L -182.261 357.9975 
L -183.5165 357.9975 
L -184.772 357.9975 
L -186.0275 357.9975 
L -187.283 357.9975 
L -188.5385 357.9975 
L -189.794 357.9975 
L -191.0495 357.9975 
L -192.305 357.9975 
L -193.5605 357.9975 
L -194.816 357.9975 
L -196.0715 357.9975 
L -197.327 357.9975 
L -198.5825 357.9975 
L -199.838 357.9975 
L -201.0935 357.9975 
L -202.349 357.9975 
L -203.6045 357.9975 
L -204.86 357.9975 
L -206.1155 357.9975 
L -207.371 357.9975 
L -208.6265 357.9975 
L -209.882 357.9975 
L -211.1375 357.9975 
L -212.393 357.9975 
L -213.6485 357.9975 
L -214.904 357.9975 
L -216.1595 357.9975 
L -217.415 357.9975 
L -218.6705 357.9975 
L -219.926 357.9975 
L -221.1815 357.9975 
L -222.437 357.9975 
L -223.6925 357.9975 
L -224.948 357.9975 
L -226.2035 357.9975 
L -227.459 357.9975 
L -228.7145 357.9975 
L -229.97 357.9975 
L -231.2255 357.9975 
L -232.481 357.9975 
L -233.7365 357.9975 
L -234.992 357.9975 
L -236.2475 357.9975 
L -237.503 357.9975 
L -238.7585 357.9975 
L -240.014 357.9975 
L -241.2695 357.9975 
L -242.525 357.9975 
L -243.7805 357.9975 
L -245.036 357.9975 
L -246.2915 357.9975 
L -247.547 357.9975 
L -248.8025 357.9975 
L -250.058 357.9975 
L -251.3135 357.9975 
L -252.569 357.9975 
L -253.8245 357.9975 
L -255.08 357.9975 
L -256.3355 357.9975 
L -257.591 357.9975 
L -258.8465 357.9975 
L -260.102 357.9975 
L -261.3575 357.9975 
L -262.613 357.9975 
L -263.8685 357.9975 
L -265.124 357.9975 
L -266.3795 357.9975 
L -267.635 357.9975 
L -268.8905 357.9975 
L -270.146 357.9975 
L -271.4015 357.9975 
L -272.657 357.9975 
L -273.9125 357.9975 
L -275.168 357.9975 
L -276.4235 357.9975 
L -277.679 357.9975 
L -278.9345 357.9975 
L -280.19 357.9975 
L -281.4455 357.9975 
L -282.701 357.9975 
L -283.9565 357.9975 
L -285.212 357.9975 
L -286.4675 357.9975 
L -287.723 357.9975 
L -288.9785 357.9975 
L -290.234 357.9975 
L -291.4895 357.9975 
L -292.745 357.9975 
L -294.0005 357.9975 
L -295.256 357.9975 
L -296.5115 357.9975 
L -297.767 357.9975 
L -299.0225 357.9975 
L -300.278 357.9975 
L -301.5335 357.9975 
L -302.789 357.9975 
L -304.0445 357.9975 
L -305.3 357.9975 
L -306.5555 357.9975 
L -307.811 357.9975 
L -309.0665 357.9975 
L -310.322 357.9975 
L -311.5775 357.9975 
L -312.833 357.9975 
L -314.0885 357.9975 
L -315.344 357.9975 
L -316.5995 357.9975 
L -317.855 357.9975 
L -319.1105 357.9975 
L -320.366 357.9975 
L -321.6215 357.9975 
L -322.877 357.9975 
L -324.1325 357.9975 
L -325.388 357.9975 
L -326.6435 357.9975 
L -327.899 357.9975 
L -329.1545 357.9975 
L -330.41 357.9975 
L -331.6655 357.9975 
L -332.921 357.9975 
L -334.1765 357.9975 
L -335.432 357.9975 
L -336.6875 357.9975 
L -337.943 357.9975 
L -339.1985 357.9975 
L -340.454 357.9975 
L -341.7095 357.9975 
L -342.965 357.9975 
z
" style="fill:#1f77b4;fill-opacity:0.1;"/>
   </g>
   <g id="line2d_1">
    <path clip-path="url(#p139c53b7c6)" d="M -1 357.988736 
L 39.9625 357.859467 
L 57.5395 357.601943 
L 70.0945 357.197754 
L 78.883 356.71919 
L 86.416 356.116245 
L 92.6935 355.429983 
L 98.971 354.528247 
L 103.993 353.615351 
L 109.015 352.497549 
L 114.037 351.138654 
L 119.059 349.498579 
L 122.8255 348.057776 
L 126.592 346.414491 
L 130.3585 344.548036 
L 134.125 342.436944 
L 137.8915 340.059179 
L 141.658 337.392387 
L 145.4245 334.41419 
L 149.191 331.10253 
L 152.9575 327.436054 
L 156.724 323.394539 
L 160.4905 318.959354 
L 164.257 314.113962 
L 168.0235 308.844432 
L 171.79 303.139981 
L 175.5565 296.99351 
L 179.323 290.402145 
L 183.0895 283.367747 
L 186.856 275.897397 
L 190.6225 268.003836 
L 195.6445 256.854105 
L 200.6665 245.048175 
L 205.6885 232.668878 
L 211.966 216.548494 
L 220.7545 193.229361 
L 232.054 163.204147 
L 238.3315 147.191292 
L 243.3535 135.049342 
L 247.12 126.460597 
L 250.8865 118.405071 
L 254.653 110.960217 
L 257.164 106.372655 
L 259.675 102.109649 
L 262.186 98.190443 
L 264.697 94.632931 
L 267.208 91.453518 
L 269.719 88.666995 
L 272.23 86.286428 
L 274.741 84.323048 
L 277.252 82.786172 
L 279.763 81.683122 
L 282.274 81.019171 
L 284.785 80.7975 
L 287.296 81.019171 
L 289.807 81.683122 
L 292.318 82.786172 
L 294.829 84.323048 
L 297.34 86.286428 
L 299.851 88.666995 
L 302.362 91.453518 
L 304.873 94.632931 
L 307.384 98.190443 
L 309.895 102.109649 
L 312.406 106.372655 
L 314.917 110.960217 
L 318.6835 118.405071 
L 322.45 126.460597 
L 326.2165 135.049342 
L 331.2385 147.191292 
L 336.2605 159.94359 
L 343.7935 179.791663 
L 358.8595 219.819976 
L 365.137 235.812136 
L 370.159 248.057005 
L 375.181 259.705832 
L 380.203 270.681016 
L 383.9695 278.435287 
L 387.736 285.761447 
L 391.5025 292.648688 
L 395.269 299.091717 
L 399.0355 305.090309 
L 402.802 310.648805 
L 406.5685 315.775591 
L 410.335 320.482559 
L 414.1015 324.78457 
L 417.868 328.698914 
L 421.6345 332.244805 
L 425.401 335.442895 
L 429.1675 338.314816 
L 432.934 340.882774 
L 436.7005 343.169174 
L 440.467 345.196296 
L 444.2335 346.98601 
L 448 348.559546 
L 451.7665 349.937293 
L 456.7885 351.503106 
L 461.8105 352.798121 
L 466.8325 353.861458 
L 473.11 354.918086 
L 479.3875 355.727592 
L 486.9205 356.443955 
L 495.709 357.017361 
L 505.753 357.432235 
L 518.308 357.723454 
L 537.1405 357.911676 
L 547.585 357.954106 
L 547.585 357.954106 
" style="fill:none;stroke:#008000;stroke-linecap:square;stroke-opacity:0.7;stroke-width:1.5;"/>
   </g>
   <g id="matplotlib.axis_1">
    <g id="xtick_1">
     <g id="line2d_2">
      <defs>
       <path d="M 0 0 
L 0 3.5 
" id="m02a8abb268" style="stroke:#000000;stroke-width:0.8;"/>
      </defs>
      <g>
       <use style="stroke:#000000;stroke-width:0.8;" x="159.235" xlink:href="#m02a8abb268" y="357.9975"/>
      </g>
     </g>
     <g id="text_1">
      <!-- -12% -->
      <defs>
       <path d="M 4.890625 31.390625 
L 31.203125 31.390625 
L 31.203125 23.390625 
L 4.890625 23.390625 
z
" id="DejaVuSans-45"/>
       <path d="M 12.40625 8.296875 
L 28.515625 8.296875 
L 28.515625 63.921875 
L 10.984375 60.40625 
L 10.984375 69.390625 
L 28.421875 72.90625 
L 38.28125 72.90625 
L 38.28125 8.296875 
L 54.390625 8.296875 
L 54.390625 0 
L 12.40625 0 
z
" id="DejaVuSans-49"/>
       <path d="M 19.1875 8.296875 
L 53.609375 8.296875 
L 53.609375 0 
L 7.328125 0 
L 7.328125 8.296875 
Q 12.9375 14.109375 22.625 23.890625 
Q 32.328125 33.6875 34.8125 36.53125 
Q 39.546875 41.84375 41.421875 45.53125 
Q 43.3125 49.21875 43.3125 52.78125 
Q 43.3125 58.59375 39.234375 62.25 
Q 35.15625 65.921875 28.609375 65.921875 
Q 23.96875 65.921875 18.8125 64.3125 
Q 13.671875 62.703125 7.8125 59.421875 
L 7.8125 69.390625 
Q 13.765625 71.78125 18.9375 73 
Q 24.125 74.21875 28.421875 74.21875 
Q 39.75 74.21875 46.484375 68.546875 
Q 53.21875 62.890625 53.21875 53.421875 
Q 53.21875 48.921875 51.53125 44.890625 
Q 49.859375 40.875 45.40625 35.40625 
Q 44.1875 33.984375 37.640625 27.21875 
Q 31.109375 20.453125 19.1875 8.296875 
z
" id="DejaVuSans-50"/>
       <path d="M 72.703125 32.078125 
Q 68.453125 32.078125 66.03125 28.46875 
Q 63.625 24.859375 63.625 18.40625 
Q 63.625 12.0625 66.03125 8.421875 
Q 68.453125 4.78125 72.703125 4.78125 
Q 76.859375 4.78125 79.265625 8.421875 
Q 81.6875 12.0625 81.6875 18.40625 
Q 81.6875 24.8125 79.265625 28.4375 
Q 76.859375 32.078125 72.703125 32.078125 
z
M 72.703125 38.28125 
Q 80.421875 38.28125 84.953125 32.90625 
Q 89.5 27.546875 89.5 18.40625 
Q 89.5 9.28125 84.9375 3.921875 
Q 80.375 -1.421875 72.703125 -1.421875 
Q 64.890625 -1.421875 60.34375 3.921875 
Q 55.8125 9.28125 55.8125 18.40625 
Q 55.8125 27.59375 60.375 32.9375 
Q 64.9375 38.28125 72.703125 38.28125 
z
M 22.3125 68.015625 
Q 18.109375 68.015625 15.6875 64.375 
Q 13.28125 60.75 13.28125 54.390625 
Q 13.28125 47.953125 15.671875 44.328125 
Q 18.0625 40.71875 22.3125 40.71875 
Q 26.5625 40.71875 28.96875 44.328125 
Q 31.390625 47.953125 31.390625 54.390625 
Q 31.390625 60.6875 28.953125 64.34375 
Q 26.515625 68.015625 22.3125 68.015625 
z
M 66.40625 74.21875 
L 74.21875 74.21875 
L 28.609375 -1.421875 
L 20.796875 -1.421875 
z
M 22.3125 74.21875 
Q 30.03125 74.21875 34.609375 68.875 
Q 39.203125 63.53125 39.203125 54.390625 
Q 39.203125 45.171875 34.640625 39.84375 
Q 30.078125 34.515625 22.3125 34.515625 
Q 14.546875 34.515625 10.03125 39.859375 
Q 5.515625 45.21875 5.515625 54.390625 
Q 5.515625 63.484375 10.046875 68.84375 
Q 14.59375 74.21875 22.3125 74.21875 
z
" id="DejaVuSans-37"/>
      </defs>
      <g transform="translate(138.5675 377.155)scale(0.16 -0.16)">
       <use xlink:href="#DejaVuSans-45"/>
       <use x="36.083984" xlink:href="#DejaVuSans-49"/>
       <use x="99.707031" xlink:href="#DejaVuSans-50"/>
       <use x="163.330078" xlink:href="#DejaVuSans-37"/>
      </g>
     </g>
    </g>
    <g id="xtick_2">
     <g id="line2d_3">
      <g>
       <use style="stroke:#000000;stroke-width:0.8;" x="222.01" xlink:href="#m02a8abb268" y="357.9975"/>
      </g>
     </g>
     <g id="text_2">
      <!-- -3% -->
      <defs>
       <path d="M 40.578125 39.3125 
Q 47.65625 37.796875 51.625 33 
Q 55.609375 28.21875 55.609375 21.1875 
Q 55.609375 10.40625 48.1875 4.484375 
Q 40.765625 -1.421875 27.09375 -1.421875 
Q 22.515625 -1.421875 17.65625 -0.515625 
Q 12.796875 0.390625 7.625 2.203125 
L 7.625 11.71875 
Q 11.71875 9.328125 16.59375 8.109375 
Q 21.484375 6.890625 26.8125 6.890625 
Q 36.078125 6.890625 40.9375 10.546875 
Q 45.796875 14.203125 45.796875 21.1875 
Q 45.796875 27.640625 41.28125 31.265625 
Q 36.765625 34.90625 28.71875 34.90625 
L 20.21875 34.90625 
L 20.21875 43.015625 
L 29.109375 43.015625 
Q 36.375 43.015625 40.234375 45.921875 
Q 44.09375 48.828125 44.09375 54.296875 
Q 44.09375 59.90625 40.109375 62.90625 
Q 36.140625 65.921875 28.71875 65.921875 
Q 24.65625 65.921875 20.015625 65.03125 
Q 15.375 64.15625 9.8125 62.3125 
L 9.8125 71.09375 
Q 15.4375 72.65625 20.34375 73.4375 
Q 25.25 74.21875 29.59375 74.21875 
Q 40.828125 74.21875 47.359375 69.109375 
Q 53.90625 64.015625 53.90625 55.328125 
Q 53.90625 49.265625 50.4375 45.09375 
Q 46.96875 40.921875 40.578125 39.3125 
z
" id="DejaVuSans-51"/>
      </defs>
      <g transform="translate(206.4325 377.155)scale(0.16 -0.16)">
       <use xlink:href="#DejaVuSans-45"/>
       <use x="36.083984" xlink:href="#DejaVuSans-51"/>
       <use x="99.707031" xlink:href="#DejaVuSans-37"/>
      </g>
     </g>
    </g>
    <g id="xtick_3">
     <g id="line2d_4">
      <g>
       <use style="stroke:#000000;stroke-width:0.8;" x="284.785" xlink:href="#m02a8abb268" y="357.9975"/>
      </g>
     </g>
     <g id="text_3">
      <!-- +6% -->
      <defs>
       <path d="M 46 62.703125 
L 46 35.5 
L 73.1875 35.5 
L 73.1875 27.203125 
L 46 27.203125 
L 46 0 
L 37.796875 0 
L 37.796875 27.203125 
L 10.59375 27.203125 
L 10.59375 35.5 
L 37.796875 35.5 
L 37.796875 62.703125 
z
" id="DejaVuSans-43"/>
       <path d="M 33.015625 40.375 
Q 26.375 40.375 22.484375 35.828125 
Q 18.609375 31.296875 18.609375 23.390625 
Q 18.609375 15.53125 22.484375 10.953125 
Q 26.375 6.390625 33.015625 6.390625 
Q 39.65625 6.390625 43.53125 10.953125 
Q 47.40625 15.53125 47.40625 23.390625 
Q 47.40625 31.296875 43.53125 35.828125 
Q 39.65625 40.375 33.015625 40.375 
z
M 52.59375 71.296875 
L 52.59375 62.3125 
Q 48.875 64.0625 45.09375 64.984375 
Q 41.3125 65.921875 37.59375 65.921875 
Q 27.828125 65.921875 22.671875 59.328125 
Q 17.53125 52.734375 16.796875 39.40625 
Q 19.671875 43.65625 24.015625 45.921875 
Q 28.375 48.1875 33.59375 48.1875 
Q 44.578125 48.1875 50.953125 41.515625 
Q 57.328125 34.859375 57.328125 23.390625 
Q 57.328125 12.15625 50.6875 5.359375 
Q 44.046875 -1.421875 33.015625 -1.421875 
Q 20.359375 -1.421875 13.671875 8.265625 
Q 6.984375 17.96875 6.984375 36.375 
Q 6.984375 53.65625 15.1875 63.9375 
Q 23.390625 74.21875 37.203125 74.21875 
Q 40.921875 74.21875 44.703125 73.484375 
Q 48.484375 72.75 52.59375 71.296875 
z
" id="DejaVuSans-54"/>
      </defs>
      <g transform="translate(265.39 377.155)scale(0.16 -0.16)">
       <use xlink:href="#DejaVuSans-43"/>
       <use x="83.789062" xlink:href="#DejaVuSans-54"/>
       <use x="147.412109" xlink:href="#DejaVuSans-37"/>
      </g>
     </g>
    </g>
    <g id="xtick_4">
     <g id="line2d_5">
      <g>
       <use style="stroke:#000000;stroke-width:0.8;" x="347.56" xlink:href="#m02a8abb268" y="357.9975"/>
      </g>
     </g>
     <g id="text_4">
      <!-- +15% -->
      <defs>
       <path d="M 10.796875 72.90625 
L 49.515625 72.90625 
L 49.515625 64.59375 
L 19.828125 64.59375 
L 19.828125 46.734375 
Q 21.96875 47.46875 24.109375 47.828125 
Q 26.265625 48.1875 28.421875 48.1875 
Q 40.625 48.1875 47.75 41.5 
Q 54.890625 34.8125 54.890625 23.390625 
Q 54.890625 11.625 47.5625 5.09375 
Q 40.234375 -1.421875 26.90625 -1.421875 
Q 22.3125 -1.421875 17.546875 -0.640625 
Q 12.796875 0.140625 7.71875 1.703125 
L 7.71875 11.625 
Q 12.109375 9.234375 16.796875 8.0625 
Q 21.484375 6.890625 26.703125 6.890625 
Q 35.15625 6.890625 40.078125 11.328125 
Q 45.015625 15.765625 45.015625 23.390625 
Q 45.015625 31 40.078125 35.4375 
Q 35.15625 39.890625 26.703125 39.890625 
Q 22.75 39.890625 18.8125 39.015625 
Q 14.890625 38.140625 10.796875 36.28125 
z
" id="DejaVuSans-53"/>
      </defs>
      <g transform="translate(323.075 377.155)scale(0.16 -0.16)">
       <use xlink:href="#DejaVuSans-43"/>
       <use x="83.789062" xlink:href="#DejaVuSans-49"/>
       <use x="147.412109" xlink:href="#DejaVuSans-53"/>
       <use x="211.035156" xlink:href="#DejaVuSans-37"/>
      </g>
     </g>
    </g>
    <g id="xtick_5">
     <g id="line2d_6">
      <g>
       <use style="stroke:#000000;stroke-width:0.8;" x="410.335" xlink:href="#m02a8abb268" y="357.9975"/>
      </g>
     </g>
     <g id="text_5">
      <!-- +24% -->
      <defs>
       <path d="M 37.796875 64.3125 
L 12.890625 25.390625 
L 37.796875 25.390625 
z
M 35.203125 72.90625 
L 47.609375 72.90625 
L 47.609375 25.390625 
L 58.015625 25.390625 
L 58.015625 17.1875 
L 47.609375 17.1875 
L 47.609375 0 
L 37.796875 0 
L 37.796875 17.1875 
L 4.890625 17.1875 
L 4.890625 26.703125 
z
" id="DejaVuSans-52"/>
      </defs>
      <g transform="translate(385.85 377.155)scale(0.16 -0.16)">
       <use xlink:href="#DejaVuSans-43"/>
       <use x="83.789062" xlink:href="#DejaVuSans-50"/>
       <use x="147.412109" xlink:href="#DejaVuSans-52"/>
       <use x="211.035156" xlink:href="#DejaVuSans-37"/>
      </g>
     </g>
    </g>
    <g id="text_6">
     <!-- % Return -->
     <defs>
      <path id="DejaVuSans-32"/>
      <path d="M 44.390625 34.1875 
Q 47.5625 33.109375 50.5625 29.59375 
Q 53.5625 26.078125 56.59375 19.921875 
L 66.609375 0 
L 56 0 
L 46.6875 18.703125 
Q 43.0625 26.03125 39.671875 28.421875 
Q 36.28125 30.8125 30.421875 30.8125 
L 19.671875 30.8125 
L 19.671875 0 
L 9.8125 0 
L 9.8125 72.90625 
L 32.078125 72.90625 
Q 44.578125 72.90625 50.734375 67.671875 
Q 56.890625 62.453125 56.890625 51.90625 
Q 56.890625 45.015625 53.6875 40.46875 
Q 50.484375 35.9375 44.390625 34.1875 
z
M 19.671875 64.796875 
L 19.671875 38.921875 
L 32.078125 38.921875 
Q 39.203125 38.921875 42.84375 42.21875 
Q 46.484375 45.515625 46.484375 51.90625 
Q 46.484375 58.296875 42.84375 61.546875 
Q 39.203125 64.796875 32.078125 64.796875 
z
" id="DejaVuSans-82"/>
      <path d="M 56.203125 29.59375 
L 56.203125 25.203125 
L 14.890625 25.203125 
Q 15.484375 15.921875 20.484375 11.0625 
Q 25.484375 6.203125 34.421875 6.203125 
Q 39.59375 6.203125 44.453125 7.46875 
Q 49.3125 8.734375 54.109375 11.28125 
L 54.109375 2.78125 
Q 49.265625 0.734375 44.1875 -0.34375 
Q 39.109375 -1.421875 33.890625 -1.421875 
Q 20.796875 -1.421875 13.15625 6.1875 
Q 5.515625 13.8125 5.515625 26.8125 
Q 5.515625 40.234375 12.765625 48.109375 
Q 20.015625 56 32.328125 56 
Q 43.359375 56 49.78125 48.890625 
Q 56.203125 41.796875 56.203125 29.59375 
z
M 47.21875 32.234375 
Q 47.125 39.59375 43.09375 43.984375 
Q 39.0625 48.390625 32.421875 48.390625 
Q 24.90625 48.390625 20.390625 44.140625 
Q 15.875 39.890625 15.1875 32.171875 
z
" id="DejaVuSans-101"/>
      <path d="M 18.3125 70.21875 
L 18.3125 54.6875 
L 36.8125 54.6875 
L 36.8125 47.703125 
L 18.3125 47.703125 
L 18.3125 18.015625 
Q 18.3125 11.328125 20.140625 9.421875 
Q 21.96875 7.515625 27.59375 7.515625 
L 36.8125 7.515625 
L 36.8125 0 
L 27.59375 0 
Q 17.1875 0 13.234375 3.875 
Q 9.28125 7.765625 9.28125 18.015625 
L 9.28125 47.703125 
L 2.6875 47.703125 
L 2.6875 54.6875 
L 9.28125 54.6875 
L 9.28125 70.21875 
z
" id="DejaVuSans-116"/>
      <path d="M 8.5 21.578125 
L 8.5 54.6875 
L 17.484375 54.6875 
L 17.484375 21.921875 
Q 17.484375 14.15625 20.5 10.265625 
Q 23.53125 6.390625 29.59375 6.390625 
Q 36.859375 6.390625 41.078125 11.03125 
Q 45.3125 15.671875 45.3125 23.6875 
L 45.3125 54.6875 
L 54.296875 54.6875 
L 54.296875 0 
L 45.3125 0 
L 45.3125 8.40625 
Q 42.046875 3.421875 37.71875 1 
Q 33.40625 -1.421875 27.6875 -1.421875 
Q 18.265625 -1.421875 13.375 4.4375 
Q 8.5 10.296875 8.5 21.578125 
z
M 31.109375 56 
z
" id="DejaVuSans-117"/>
      <path d="M 41.109375 46.296875 
Q 39.59375 47.171875 37.8125 47.578125 
Q 36.03125 48 33.890625 48 
Q 26.265625 48 22.1875 43.046875 
Q 18.109375 38.09375 18.109375 28.8125 
L 18.109375 0 
L 9.078125 0 
L 9.078125 54.6875 
L 18.109375 54.6875 
L 18.109375 46.1875 
Q 20.953125 51.171875 25.484375 53.578125 
Q 30.03125 56 36.53125 56 
Q 37.453125 56 38.578125 55.875 
Q 39.703125 55.765625 41.0625 55.515625 
z
" id="DejaVuSans-114"/>
      <path d="M 54.890625 33.015625 
L 54.890625 0 
L 45.90625 0 
L 45.90625 32.71875 
Q 45.90625 40.484375 42.875 44.328125 
Q 39.84375 48.1875 33.796875 48.1875 
Q 26.515625 48.1875 22.3125 43.546875 
Q 18.109375 38.921875 18.109375 30.90625 
L 18.109375 0 
L 9.078125 0 
L 9.078125 54.6875 
L 18.109375 54.6875 
L 18.109375 46.1875 
Q 21.34375 51.125 25.703125 53.5625 
Q 30.078125 56 35.796875 56 
Q 45.21875 56 50.046875 50.171875 
Q 54.890625 44.34375 54.890625 33.015625 
z
" id="DejaVuSans-110"/>
     </defs>
     <g transform="translate(247.60125 396.64)scale(0.16 -0.16)">
      <use xlink:href="#DejaVuSans-37"/>
      <use x="95.019531" xlink:href="#DejaVuSans-32"/>
      <use x="126.806641" xlink:href="#DejaVuSans-82"/>
      <use x="196.226562" xlink:href="#DejaVuSans-101"/>
      <use x="257.75" xlink:href="#DejaVuSans-116"/>
      <use x="296.958984" xlink:href="#DejaVuSans-117"/>
      <use x="360.337891" xlink:href="#DejaVuSans-114"/>
      <use x="401.435547" xlink:href="#DejaVuSans-110"/>
     </g>
    </g>
   </g>
   <g id="matplotlib.axis_2">
    <g id="ytick_1">
     <g id="line2d_7">
      <defs>
       <path d="M 0 0 
L -3.5 0 
" id="m0c22a8fb31" style="stroke:#000000;stroke-width:0.8;"/>
      </defs>
      <g>
       <use style="stroke:#000000;stroke-width:0.8;" x="33.685" xlink:href="#m0c22a8fb31" y="357.9975"/>
      </g>
     </g>
    </g>
    <g id="ytick_2">
     <g id="line2d_8">
      <g>
       <use style="stroke:#000000;stroke-width:0.8;" x="33.685" xlink:href="#m0c22a8fb31" y="302.5575"/>
      </g>
     </g>
    </g>
    <g id="ytick_3">
     <g id="line2d_9">
      <g>
       <use style="stroke:#000000;stroke-width:0.8;" x="33.685" xlink:href="#m0c22a8fb31" y="247.1175"/>
      </g>
     </g>
    </g>
    <g id="ytick_4">
     <g id="line2d_10">
      <g>
       <use style="stroke:#000000;stroke-width:0.8;" x="33.685" xlink:href="#m0c22a8fb31" y="191.6775"/>
      </g>
     </g>
    </g>
    <g id="ytick_5">
     <g id="line2d_11">
      <g>
       <use style="stroke:#000000;stroke-width:0.8;" x="33.685" xlink:href="#m0c22a8fb31" y="136.2375"/>
      </g>
     </g>
    </g>
    <g id="ytick_6">
     <g id="line2d_12">
      <g>
       <use style="stroke:#000000;stroke-width:0.8;" x="33.685" xlink:href="#m0c22a8fb31" y="80.7975"/>
      </g>
     </g>
    </g>
    <g id="ytick_7">
     <g id="line2d_13">
      <g>
       <use style="stroke:#000000;stroke-width:0.8;" x="33.685" xlink:href="#m0c22a8fb31" y="25.3575"/>
      </g>
     </g>
    </g>
    <g id="text_7">
     <!-- Probability Distribution -->
     <defs>
      <path d="M 19.671875 64.796875 
L 19.671875 37.40625 
L 32.078125 37.40625 
Q 38.96875 37.40625 42.71875 40.96875 
Q 46.484375 44.53125 46.484375 51.125 
Q 46.484375 57.671875 42.71875 61.234375 
Q 38.96875 64.796875 32.078125 64.796875 
z
M 9.8125 72.90625 
L 32.078125 72.90625 
Q 44.34375 72.90625 50.609375 67.359375 
Q 56.890625 61.8125 56.890625 51.125 
Q 56.890625 40.328125 50.609375 34.8125 
Q 44.34375 29.296875 32.078125 29.296875 
L 19.671875 29.296875 
L 19.671875 0 
L 9.8125 0 
z
" id="DejaVuSans-80"/>
      <path d="M 30.609375 48.390625 
Q 23.390625 48.390625 19.1875 42.75 
Q 14.984375 37.109375 14.984375 27.296875 
Q 14.984375 17.484375 19.15625 11.84375 
Q 23.34375 6.203125 30.609375 6.203125 
Q 37.796875 6.203125 41.984375 11.859375 
Q 46.1875 17.53125 46.1875 27.296875 
Q 46.1875 37.015625 41.984375 42.703125 
Q 37.796875 48.390625 30.609375 48.390625 
z
M 30.609375 56 
Q 42.328125 56 49.015625 48.375 
Q 55.71875 40.765625 55.71875 27.296875 
Q 55.71875 13.875 49.015625 6.21875 
Q 42.328125 -1.421875 30.609375 -1.421875 
Q 18.84375 -1.421875 12.171875 6.21875 
Q 5.515625 13.875 5.515625 27.296875 
Q 5.515625 40.765625 12.171875 48.375 
Q 18.84375 56 30.609375 56 
z
" id="DejaVuSans-111"/>
      <path d="M 48.6875 27.296875 
Q 48.6875 37.203125 44.609375 42.84375 
Q 40.53125 48.484375 33.40625 48.484375 
Q 26.265625 48.484375 22.1875 42.84375 
Q 18.109375 37.203125 18.109375 27.296875 
Q 18.109375 17.390625 22.1875 11.75 
Q 26.265625 6.109375 33.40625 6.109375 
Q 40.53125 6.109375 44.609375 11.75 
Q 48.6875 17.390625 48.6875 27.296875 
z
M 18.109375 46.390625 
Q 20.953125 51.265625 25.265625 53.625 
Q 29.59375 56 35.59375 56 
Q 45.5625 56 51.78125 48.09375 
Q 58.015625 40.1875 58.015625 27.296875 
Q 58.015625 14.40625 51.78125 6.484375 
Q 45.5625 -1.421875 35.59375 -1.421875 
Q 29.59375 -1.421875 25.265625 0.953125 
Q 20.953125 3.328125 18.109375 8.203125 
L 18.109375 0 
L 9.078125 0 
L 9.078125 75.984375 
L 18.109375 75.984375 
z
" id="DejaVuSans-98"/>
      <path d="M 34.28125 27.484375 
Q 23.390625 27.484375 19.1875 25 
Q 14.984375 22.515625 14.984375 16.5 
Q 14.984375 11.71875 18.140625 8.90625 
Q 21.296875 6.109375 26.703125 6.109375 
Q 34.1875 6.109375 38.703125 11.40625 
Q 43.21875 16.703125 43.21875 25.484375 
L 43.21875 27.484375 
z
M 52.203125 31.203125 
L 52.203125 0 
L 43.21875 0 
L 43.21875 8.296875 
Q 40.140625 3.328125 35.546875 0.953125 
Q 30.953125 -1.421875 24.3125 -1.421875 
Q 15.921875 -1.421875 10.953125 3.296875 
Q 6 8.015625 6 15.921875 
Q 6 25.140625 12.171875 29.828125 
Q 18.359375 34.515625 30.609375 34.515625 
L 43.21875 34.515625 
L 43.21875 35.40625 
Q 43.21875 41.609375 39.140625 45 
Q 35.0625 48.390625 27.6875 48.390625 
Q 23 48.390625 18.546875 47.265625 
Q 14.109375 46.140625 10.015625 43.890625 
L 10.015625 52.203125 
Q 14.9375 54.109375 19.578125 55.046875 
Q 24.21875 56 28.609375 56 
Q 40.484375 56 46.34375 49.84375 
Q 52.203125 43.703125 52.203125 31.203125 
z
" id="DejaVuSans-97"/>
      <path d="M 9.421875 54.6875 
L 18.40625 54.6875 
L 18.40625 0 
L 9.421875 0 
z
M 9.421875 75.984375 
L 18.40625 75.984375 
L 18.40625 64.59375 
L 9.421875 64.59375 
z
" id="DejaVuSans-105"/>
      <path d="M 9.421875 75.984375 
L 18.40625 75.984375 
L 18.40625 0 
L 9.421875 0 
z
" id="DejaVuSans-108"/>
      <path d="M 32.171875 -5.078125 
Q 28.375 -14.84375 24.75 -17.8125 
Q 21.140625 -20.796875 15.09375 -20.796875 
L 7.90625 -20.796875 
L 7.90625 -13.28125 
L 13.1875 -13.28125 
Q 16.890625 -13.28125 18.9375 -11.515625 
Q 21 -9.765625 23.484375 -3.21875 
L 25.09375 0.875 
L 2.984375 54.6875 
L 12.5 54.6875 
L 29.59375 11.921875 
L 46.6875 54.6875 
L 56.203125 54.6875 
z
" id="DejaVuSans-121"/>
      <path d="M 19.671875 64.796875 
L 19.671875 8.109375 
L 31.59375 8.109375 
Q 46.6875 8.109375 53.6875 14.9375 
Q 60.6875 21.78125 60.6875 36.53125 
Q 60.6875 51.171875 53.6875 57.984375 
Q 46.6875 64.796875 31.59375 64.796875 
z
M 9.8125 72.90625 
L 30.078125 72.90625 
Q 51.265625 72.90625 61.171875 64.09375 
Q 71.09375 55.28125 71.09375 36.53125 
Q 71.09375 17.671875 61.125 8.828125 
Q 51.171875 0 30.078125 0 
L 9.8125 0 
z
" id="DejaVuSans-68"/>
      <path d="M 44.28125 53.078125 
L 44.28125 44.578125 
Q 40.484375 46.53125 36.375 47.5 
Q 32.28125 48.484375 27.875 48.484375 
Q 21.1875 48.484375 17.84375 46.4375 
Q 14.5 44.390625 14.5 40.28125 
Q 14.5 37.15625 16.890625 35.375 
Q 19.28125 33.59375 26.515625 31.984375 
L 29.59375 31.296875 
Q 39.15625 29.25 43.1875 25.515625 
Q 47.21875 21.78125 47.21875 15.09375 
Q 47.21875 7.46875 41.1875 3.015625 
Q 35.15625 -1.421875 24.609375 -1.421875 
Q 20.21875 -1.421875 15.453125 -0.5625 
Q 10.6875 0.296875 5.421875 2 
L 5.421875 11.28125 
Q 10.40625 8.6875 15.234375 7.390625 
Q 20.0625 6.109375 24.8125 6.109375 
Q 31.15625 6.109375 34.5625 8.28125 
Q 37.984375 10.453125 37.984375 14.40625 
Q 37.984375 18.0625 35.515625 20.015625 
Q 33.0625 21.96875 24.703125 23.78125 
L 21.578125 24.515625 
Q 13.234375 26.265625 9.515625 29.90625 
Q 5.8125 33.546875 5.8125 39.890625 
Q 5.8125 47.609375 11.28125 51.796875 
Q 16.75 56 26.8125 56 
Q 31.78125 56 36.171875 55.265625 
Q 40.578125 54.546875 44.28125 53.078125 
z
" id="DejaVuSans-115"/>
     </defs>
     <g transform="translate(19.3575 283.4925)rotate(-90)scale(0.16 -0.16)">
      <use xlink:href="#DejaVuSans-80"/>
      <use x="60.287109" xlink:href="#DejaVuSans-114"/>
      <use x="101.369141" xlink:href="#DejaVuSans-111"/>
      <use x="162.550781" xlink:href="#DejaVuSans-98"/>
      <use x="226.027344" xlink:href="#DejaVuSans-97"/>
      <use x="287.306641" xlink:href="#DejaVuSans-98"/>
      <use x="350.783203" xlink:href="#DejaVuSans-105"/>
      <use x="378.566406" xlink:href="#DejaVuSans-108"/>
      <use x="406.349609" xlink:href="#DejaVuSans-105"/>
      <use x="434.132812" xlink:href="#DejaVuSans-116"/>
      <use x="473.341797" xlink:href="#DejaVuSans-121"/>
      <use x="532.521484" xlink:href="#DejaVuSans-32"/>
      <use x="564.308594" xlink:href="#DejaVuSans-68"/>
      <use x="641.310547" xlink:href="#DejaVuSans-105"/>
      <use x="669.09375" xlink:href="#DejaVuSans-115"/>
      <use x="721.193359" xlink:href="#DejaVuSans-116"/>
      <use x="760.402344" xlink:href="#DejaVuSans-114"/>
      <use x="801.515625" xlink:href="#DejaVuSans-105"/>
      <use x="829.298828" xlink:href="#DejaVuSans-98"/>
      <use x="892.775391" xlink:href="#DejaVuSans-117"/>
      <use x="956.154297" xlink:href="#DejaVuSans-116"/>
      <use x="995.363281" xlink:href="#DejaVuSans-105"/>
      <use x="1023.146484" xlink:href="#DejaVuSans-111"/>
      <use x="1084.328125" xlink:href="#DejaVuSans-110"/>
     </g>
    </g>
   </g>
   <g id="patch_3">
    <path d="M 33.685 357.9975 
L 33.685 25.3575 
" style="fill:none;stroke:#000000;stroke-linecap:square;stroke-linejoin:miter;stroke-width:0.8;"/>
   </g>
   <g id="patch_4">
    <path d="M 535.885 357.9975 
L 535.885 25.3575 
" style="fill:none;stroke:#000000;stroke-linecap:square;stroke-linejoin:miter;stroke-width:0.8;"/>
   </g>
   <g id="patch_5">
    <path d="M 33.685 357.9975 
L 535.885 357.9975 
" style="fill:none;stroke:#000000;stroke-linecap:square;stroke-linejoin:miter;stroke-width:0.8;"/>
   </g>
   <g id="patch_6">
    <path d="M 33.685 25.3575 
L 535.885 25.3575 
" style="fill:none;stroke:#000000;stroke-linecap:square;stroke-linejoin:miter;stroke-width:0.8;"/>
   </g>
   <g id="text_8">
    <!-- Bell Curve Of Returns -->
    <defs>
     <path d="M 19.671875 34.8125 
L 19.671875 8.109375 
L 35.5 8.109375 
Q 43.453125 8.109375 47.28125 11.40625 
Q 51.125 14.703125 51.125 21.484375 
Q 51.125 28.328125 47.28125 31.5625 
Q 43.453125 34.8125 35.5 34.8125 
z
M 19.671875 64.796875 
L 19.671875 42.828125 
L 34.28125 42.828125 
Q 41.5 42.828125 45.03125 45.53125 
Q 48.578125 48.25 48.578125 53.8125 
Q 48.578125 59.328125 45.03125 62.0625 
Q 41.5 64.796875 34.28125 64.796875 
z
M 9.8125 72.90625 
L 35.015625 72.90625 
Q 46.296875 72.90625 52.390625 68.21875 
Q 58.5 63.53125 58.5 54.890625 
Q 58.5 48.1875 55.375 44.234375 
Q 52.25 40.28125 46.1875 39.3125 
Q 53.46875 37.75 57.5 32.78125 
Q 61.53125 27.828125 61.53125 20.40625 
Q 61.53125 10.640625 54.890625 5.3125 
Q 48.25 0 35.984375 0 
L 9.8125 0 
z
" id="DejaVuSans-66"/>
     <path d="M 64.40625 67.28125 
L 64.40625 56.890625 
Q 59.421875 61.53125 53.78125 63.8125 
Q 48.140625 66.109375 41.796875 66.109375 
Q 29.296875 66.109375 22.65625 58.46875 
Q 16.015625 50.828125 16.015625 36.375 
Q 16.015625 21.96875 22.65625 14.328125 
Q 29.296875 6.6875 41.796875 6.6875 
Q 48.140625 6.6875 53.78125 8.984375 
Q 59.421875 11.28125 64.40625 15.921875 
L 64.40625 5.609375 
Q 59.234375 2.09375 53.4375 0.328125 
Q 47.65625 -1.421875 41.21875 -1.421875 
Q 24.65625 -1.421875 15.125 8.703125 
Q 5.609375 18.84375 5.609375 36.375 
Q 5.609375 53.953125 15.125 64.078125 
Q 24.65625 74.21875 41.21875 74.21875 
Q 47.75 74.21875 53.53125 72.484375 
Q 59.328125 70.75 64.40625 67.28125 
z
" id="DejaVuSans-67"/>
     <path d="M 2.984375 54.6875 
L 12.5 54.6875 
L 29.59375 8.796875 
L 46.6875 54.6875 
L 56.203125 54.6875 
L 35.6875 0 
L 23.484375 0 
z
" id="DejaVuSans-118"/>
     <path d="M 39.40625 66.21875 
Q 28.65625 66.21875 22.328125 58.203125 
Q 16.015625 50.203125 16.015625 36.375 
Q 16.015625 22.609375 22.328125 14.59375 
Q 28.65625 6.59375 39.40625 6.59375 
Q 50.140625 6.59375 56.421875 14.59375 
Q 62.703125 22.609375 62.703125 36.375 
Q 62.703125 50.203125 56.421875 58.203125 
Q 50.140625 66.21875 39.40625 66.21875 
z
M 39.40625 74.21875 
Q 54.734375 74.21875 63.90625 63.9375 
Q 73.09375 53.65625 73.09375 36.375 
Q 73.09375 19.140625 63.90625 8.859375 
Q 54.734375 -1.421875 39.40625 -1.421875 
Q 24.03125 -1.421875 14.8125 8.828125 
Q 5.609375 19.09375 5.609375 36.375 
Q 5.609375 53.65625 14.8125 63.9375 
Q 24.03125 74.21875 39.40625 74.21875 
z
" id="DejaVuSans-79"/>
     <path d="M 37.109375 75.984375 
L 37.109375 68.5 
L 28.515625 68.5 
Q 23.6875 68.5 21.796875 66.546875 
Q 19.921875 64.59375 19.921875 59.515625 
L 19.921875 54.6875 
L 34.71875 54.6875 
L 34.71875 47.703125 
L 19.921875 47.703125 
L 19.921875 0 
L 10.890625 0 
L 10.890625 47.703125 
L 2.296875 47.703125 
L 2.296875 54.6875 
L 10.890625 54.6875 
L 10.890625 58.5 
Q 10.890625 67.625 15.140625 71.796875 
Q 19.390625 75.984375 28.609375 75.984375 
z
" id="DejaVuSans-102"/>
    </defs>
    <g transform="translate(198.3775 19.3575)scale(0.16 -0.16)">
     <use xlink:href="#DejaVuSans-66"/>
     <use x="68.603516" xlink:href="#DejaVuSans-101"/>
     <use x="130.126953" xlink:href="#DejaVuSans-108"/>
     <use x="157.910156" xlink:href="#DejaVuSans-108"/>
     <use x="185.693359" xlink:href="#DejaVuSans-32"/>
     <use x="217.480469" xlink:href="#DejaVuSans-67"/>
     <use x="287.304688" xlink:href="#DejaVuSans-117"/>
     <use x="350.683594" xlink:href="#DejaVuSans-114"/>
     <use x="391.796875" xlink:href="#DejaVuSans-118"/>
     <use x="450.976562" xlink:href="#DejaVuSans-101"/>
     <use x="512.5" xlink:href="#DejaVuSans-32"/>
     <use x="544.287109" xlink:href="#DejaVuSans-79"/>
     <use x="622.998047" xlink:href="#DejaVuSans-102"/>
     <use x="658.203125" xlink:href="#DejaVuSans-32"/>
     <use x="689.990234" xlink:href="#DejaVuSans-82"/>
     <use x="759.410156" xlink:href="#DejaVuSans-101"/>
     <use x="820.933594" xlink:href="#DejaVuSans-116"/>
     <use x="860.142578" xlink:href="#DejaVuSans-117"/>
     <use x="923.521484" xlink:href="#DejaVuSans-114"/>
     <use x="964.619141" xlink:href="#DejaVuSans-110"/>
     <use x="1027.998047" xlink:href="#DejaVuSans-115"/>
    </g>
   </g>
   <g id="legend_1">
    <g id="patch_7">
     <path d="M 40.685 48.035625 
L 148.219375 48.035625 
Q 150.219375 48.035625 150.219375 46.035625 
L 150.219375 32.3575 
Q 150.219375 30.3575 148.219375 30.3575 
L 40.685 30.3575 
Q 38.685 30.3575 38.685 32.3575 
L 38.685 46.035625 
Q 38.685 48.035625 40.685 48.035625 
z
" style="fill:#ffffff;opacity:0.8;stroke:#cccccc;stroke-linejoin:miter;"/>
    </g>
    <g id="line2d_14">
     <path d="M 42.685 38.455938 
L 62.685 38.455938 
" style="fill:none;stroke:#008000;stroke-linecap:square;stroke-opacity:0.7;stroke-width:1.5;"/>
    </g>
    <g id="line2d_15"/>
    <g id="text_9">
     <!-- Recommended -->
     <defs>
      <path d="M 48.78125 52.59375 
L 48.78125 44.1875 
Q 44.96875 46.296875 41.140625 47.34375 
Q 37.3125 48.390625 33.40625 48.390625 
Q 24.65625 48.390625 19.8125 42.84375 
Q 14.984375 37.3125 14.984375 27.296875 
Q 14.984375 17.28125 19.8125 11.734375 
Q 24.65625 6.203125 33.40625 6.203125 
Q 37.3125 6.203125 41.140625 7.25 
Q 44.96875 8.296875 48.78125 10.40625 
L 48.78125 2.09375 
Q 45.015625 0.34375 40.984375 -0.53125 
Q 36.96875 -1.421875 32.421875 -1.421875 
Q 20.0625 -1.421875 12.78125 6.34375 
Q 5.515625 14.109375 5.515625 27.296875 
Q 5.515625 40.671875 12.859375 48.328125 
Q 20.21875 56 33.015625 56 
Q 37.15625 56 41.109375 55.140625 
Q 45.0625 54.296875 48.78125 52.59375 
z
" id="DejaVuSans-99"/>
      <path d="M 52 44.1875 
Q 55.375 50.25 60.0625 53.125 
Q 64.75 56 71.09375 56 
Q 79.640625 56 84.28125 50.015625 
Q 88.921875 44.046875 88.921875 33.015625 
L 88.921875 0 
L 79.890625 0 
L 79.890625 32.71875 
Q 79.890625 40.578125 77.09375 44.375 
Q 74.3125 48.1875 68.609375 48.1875 
Q 61.625 48.1875 57.5625 43.546875 
Q 53.515625 38.921875 53.515625 30.90625 
L 53.515625 0 
L 44.484375 0 
L 44.484375 32.71875 
Q 44.484375 40.625 41.703125 44.40625 
Q 38.921875 48.1875 33.109375 48.1875 
Q 26.21875 48.1875 22.15625 43.53125 
Q 18.109375 38.875 18.109375 30.90625 
L 18.109375 0 
L 9.078125 0 
L 9.078125 54.6875 
L 18.109375 54.6875 
L 18.109375 46.1875 
Q 21.1875 51.21875 25.484375 53.609375 
Q 29.78125 56 35.6875 56 
Q 41.65625 56 45.828125 52.96875 
Q 50 49.953125 52 44.1875 
z
" id="DejaVuSans-109"/>
      <path d="M 45.40625 46.390625 
L 45.40625 75.984375 
L 54.390625 75.984375 
L 54.390625 0 
L 45.40625 0 
L 45.40625 8.203125 
Q 42.578125 3.328125 38.25 0.953125 
Q 33.9375 -1.421875 27.875 -1.421875 
Q 17.96875 -1.421875 11.734375 6.484375 
Q 5.515625 14.40625 5.515625 27.296875 
Q 5.515625 40.1875 11.734375 48.09375 
Q 17.96875 56 27.875 56 
Q 33.9375 56 38.25 53.625 
Q 42.578125 51.265625 45.40625 46.390625 
z
M 14.796875 27.296875 
Q 14.796875 17.390625 18.875 11.75 
Q 22.953125 6.109375 30.078125 6.109375 
Q 37.203125 6.109375 41.296875 11.75 
Q 45.40625 17.390625 45.40625 27.296875 
Q 45.40625 37.203125 41.296875 42.84375 
Q 37.203125 48.484375 30.078125 48.484375 
Q 22.953125 48.484375 18.875 42.84375 
Q 14.796875 37.203125 14.796875 27.296875 
z
" id="DejaVuSans-100"/>
     </defs>
     <g transform="translate(70.685 41.955938)scale(0.1 -0.1)">
      <use xlink:href="#DejaVuSans-82"/>
      <use x="69.419922" xlink:href="#DejaVuSans-101"/>
      <use x="130.943359" xlink:href="#DejaVuSans-99"/>
      <use x="185.923828" xlink:href="#DejaVuSans-111"/>
      <use x="247.105469" xlink:href="#DejaVuSans-109"/>
      <use x="344.517578" xlink:href="#DejaVuSans-109"/>
      <use x="441.929688" xlink:href="#DejaVuSans-101"/>
      <use x="503.453125" xlink:href="#DejaVuSans-110"/>
      <use x="566.832031" xlink:href="#DejaVuSans-100"/>
      <use x="630.308594" xlink:href="#DejaVuSans-101"/>
      <use x="691.832031" xlink:href="#DejaVuSans-100"/>
     </g>
    </g>
   </g>
  </g>
 </g>
 <defs>
  <clipPath id="p139c53b7c6">
   <rect height="332.64" width="502.2" x="33.685" y="25.3575"/>
  </clipPath>
 </defs>
</svg>
