<?xml version="1.0" encoding="utf-8" standalone="no"?>
<!DOCTYPE svg PUBLIC "-//W3C//DTD SVG 1.1//EN"
  "http://www.w3.org/Graphics/SVG/1.1/DTD/svg11.dtd">
<!-- Created with matplotlib (https://matplotlib.org/) -->
<svg height="407.1675pt" version="1.1" viewBox="0 0 562.48 407.1675" width="562.48pt" xmlns="http://www.w3.org/2000/svg" xmlns:xlink="http://www.w3.org/1999/xlink">
 <defs>
  <style type="text/css">
*{stroke-linecap:butt;stroke-linejoin:round;}
  </style>
 </defs>
 <g id="figure_1">
  <g id="patch_1">
   <path d="M 0 407.1675 
L 562.48 407.1675 
L 562.48 0 
L 0 0 
z
" style="fill:#ffffff;"/>
  </g>
  <g id="axes_1">
   <g id="patch_2">
    <path d="M 33.685 357.9975 
L 535.885 357.9975 
L 535.885 25.3575 
L 33.685 25.3575 
z
" style="fill:#ffffff;"/>
   </g>
   <g id="PolyCollection_1">
    <defs>
     <path d="M 201.085 -49.17 
L 201.085 -217.300299 
L 202.201 -220.662454 
L 203.317 -224.021889 
L 204.433 -227.375837 
L 205.549 -230.721483 
L 206.665 -234.055972 
L 207.781 -237.376406 
L 208.897 -240.679855 
L 210.013 -243.963353 
L 211.129 -247.22391 
L 212.245 -250.458513 
L 213.361 -253.664129 
L 214.477 -256.837713 
L 215.593 -259.976208 
L 216.709 -263.076556 
L 217.825 -266.135698 
L 218.941 -269.150579 
L 220.057 -272.118158 
L 221.173 -275.035405 
L 222.289 -277.899314 
L 223.405 -280.706903 
L 224.521 -283.455221 
L 225.637 -286.141355 
L 226.753 -288.762429 
L 227.869 -291.315617 
L 228.985 -293.798141 
L 230.101 -296.207283 
L 231.217 -298.540382 
L 232.333 -300.794845 
L 233.449 -302.96815 
L 234.565 -305.057851 
L 235.681 -307.061581 
L 236.797 -308.977057 
L 237.913 -310.802087 
L 239.029 -312.534569 
L 240.145 -314.172502 
L 241.261 -315.713982 
L 242.377 -317.157213 
L 243.493 -318.500505 
L 244.609 -319.742279 
L 245.725 -320.881072 
L 246.841 -321.915539 
L 247.957 -322.844452 
L 249.073 -323.666708 
L 250.189 -324.381328 
L 251.305 -324.987459 
L 252.421 -325.484378 
L 253.537 -325.871489 
L 254.653 -326.148329 
L 255.769 -326.314566 
L 256.885 -326.37 
L 258.001 -326.314566 
L 259.117 -326.148329 
L 260.233 -325.871489 
L 261.349 -325.484378 
L 262.465 -324.987459 
L 263.581 -324.381328 
L 264.697 -323.666708 
L 265.813 -322.844452 
L 266.929 -321.915539 
L 268.045 -320.881072 
L 269.161 -319.742279 
L 270.277 -318.500505 
L 271.393 -317.157213 
L 272.509 -315.713982 
L 273.625 -314.172502 
L 274.741 -312.534569 
L 275.857 -310.802087 
L 276.973 -308.977057 
L 278.089 -307.061581 
L 279.205 -305.057851 
L 280.321 -302.96815 
L 281.437 -300.794845 
L 282.553 -298.540382 
L 283.669 -296.207283 
L 284.785 -293.798141 
L 285.901 -291.315617 
L 287.017 -288.762429 
L 288.133 -286.141355 
L 289.249 -283.455221 
L 290.365 -280.706903 
L 291.481 -277.899314 
L 292.597 -275.035405 
L 293.713 -272.118158 
L 294.829 -269.150579 
L 295.945 -266.135698 
L 297.061 -263.076556 
L 298.177 -259.976208 
L 299.293 -256.837713 
L 300.409 -253.664129 
L 301.525 -250.458513 
L 302.641 -247.22391 
L 303.757 -243.963353 
L 304.873 -240.679855 
L 305.989 -237.376406 
L 307.105 -234.055972 
L 308.221 -230.721483 
L 309.337 -227.375837 
L 310.453 -224.021889 
L 311.569 -220.662454 
L 311.569 -49.17 
L 311.569 -49.17 
L 310.453 -49.17 
L 309.337 -49.17 
L 308.221 -49.17 
L 307.105 -49.17 
L 305.989 -49.17 
L 304.873 -49.17 
L 303.757 -49.17 
L 302.641 -49.17 
L 301.525 -49.17 
L 300.409 -49.17 
L 299.293 -49.17 
L 298.177 -49.17 
L 297.061 -49.17 
L 295.945 -49.17 
L 294.829 -49.17 
L 293.713 -49.17 
L 292.597 -49.17 
L 291.481 -49.17 
L 290.365 -49.17 
L 289.249 -49.17 
L 288.133 -49.17 
L 287.017 -49.17 
L 285.901 -49.17 
L 284.785 -49.17 
L 283.669 -49.17 
L 282.553 -49.17 
L 281.437 -49.17 
L 280.321 -49.17 
L 279.205 -49.17 
L 278.089 -49.17 
L 276.973 -49.17 
L 275.857 -49.17 
L 274.741 -49.17 
L 273.625 -49.17 
L 272.509 -49.17 
L 271.393 -49.17 
L 270.277 -49.17 
L 269.161 -49.17 
L 268.045 -49.17 
L 266.929 -49.17 
L 265.813 -49.17 
L 264.697 -49.17 
L 263.581 -49.17 
L 262.465 -49.17 
L 261.349 -49.17 
L 260.233 -49.17 
L 259.117 -49.17 
L 258.001 -49.17 
L 256.885 -49.17 
L 255.769 -49.17 
L 254.653 -49.17 
L 253.537 -49.17 
L 252.421 -49.17 
L 251.305 -49.17 
L 250.189 -49.17 
L 249.073 -49.17 
L 247.957 -49.17 
L 246.841 -49.17 
L 245.725 -49.17 
L 244.609 -49.17 
L 243.493 -49.17 
L 242.377 -49.17 
L 241.261 -49.17 
L 240.145 -49.17 
L 239.029 -49.17 
L 237.913 -49.17 
L 236.797 -49.17 
L 235.681 -49.17 
L 234.565 -49.17 
L 233.449 -49.17 
L 232.333 -49.17 
L 231.217 -49.17 
L 230.101 -49.17 
L 228.985 -49.17 
L 227.869 -49.17 
L 226.753 -49.17 
L 225.637 -49.17 
L 224.521 -49.17 
L 223.405 -49.17 
L 222.289 -49.17 
L 221.173 -49.17 
L 220.057 -49.17 
L 218.941 -49.17 
L 217.825 -49.17 
L 216.709 -49.17 
L 215.593 -49.17 
L 214.477 -49.17 
L 213.361 -49.17 
L 212.245 -49.17 
L 211.129 -49.17 
L 210.013 -49.17 
L 208.897 -49.17 
L 207.781 -49.17 
L 206.665 -49.17 
L 205.549 -49.17 
L 204.433 -49.17 
L 203.317 -49.17 
L 202.201 -49.17 
L 201.085 -49.17 
z
" id="m4ae293d382" style="stroke:#0000ff;stroke-opacity:0.3;"/>
    </defs>
    <g clip-path="url(#p9916570af6)">
     <use style="fill:#0000ff;fill-opacity:0.3;stroke:#0000ff;stroke-opacity:0.3;" x="0" xlink:href="#m4ae293d382" y="407.1675"/>
    </g>
   </g>
   <g id="PolyCollection_2">
    <defs>
     <path d="M 145.285 -49.17 
L 145.285 -86.684941 
L 146.401 -88.208146 
L 147.517 -89.776951 
L 148.633 -91.391909 
L 149.749 -93.053538 
L 150.865 -94.762319 
L 151.981 -96.518695 
L 153.097 -98.323068 
L 154.213 -100.175796 
L 155.329 -102.077191 
L 156.445 -104.027519 
L 157.561 -106.026996 
L 158.677 -108.075783 
L 159.793 -110.17399 
L 160.909 -112.321668 
L 162.025 -114.518812 
L 163.141 -116.765355 
L 164.257 -119.061166 
L 165.373 -121.406053 
L 166.489 -123.799753 
L 167.605 -126.24194 
L 168.721 -128.732213 
L 169.837 -131.270103 
L 170.953 -133.855066 
L 172.069 -136.486484 
L 173.185 -139.163664 
L 174.301 -141.885834 
L 175.417 -144.652145 
L 176.533 -147.461668 
L 177.649 -150.313395 
L 178.765 -153.206237 
L 179.881 -156.139021 
L 180.997 -159.110495 
L 182.113 -162.119325 
L 183.229 -165.164093 
L 184.345 -168.2433 
L 185.461 -171.355364 
L 186.577 -174.498622 
L 187.693 -177.671332 
L 188.809 -180.871667 
L 189.925 -184.097725 
L 191.041 -187.347524 
L 192.157 -190.619006 
L 193.273 -193.910034 
L 194.389 -197.218403 
L 195.505 -200.541831 
L 196.621 -203.877969 
L 197.737 -207.224398 
L 198.853 -210.578637 
L 199.969 -213.938139 
L 201.085 -217.300299 
L 202.201 -220.662454 
L 203.317 -224.021889 
L 204.433 -227.375837 
L 205.549 -230.721483 
L 206.665 -234.055972 
L 207.781 -237.376406 
L 208.897 -240.679855 
L 210.013 -243.963353 
L 211.129 -247.22391 
L 212.245 -250.458513 
L 213.361 -253.664129 
L 214.477 -256.837713 
L 215.593 -259.976208 
L 216.709 -263.076556 
L 217.825 -266.135698 
L 218.941 -269.150579 
L 220.057 -272.118158 
L 221.173 -275.035405 
L 222.289 -277.899314 
L 223.405 -280.706903 
L 224.521 -283.455221 
L 225.637 -286.141355 
L 226.753 -288.762429 
L 227.869 -291.315617 
L 228.985 -293.798141 
L 230.101 -296.207283 
L 231.217 -298.540382 
L 232.333 -300.794845 
L 233.449 -302.96815 
L 234.565 -305.057851 
L 235.681 -307.061581 
L 236.797 -308.977057 
L 237.913 -310.802087 
L 239.029 -312.534569 
L 240.145 -314.172502 
L 241.261 -315.713982 
L 242.377 -317.157213 
L 243.493 -318.500505 
L 244.609 -319.742279 
L 245.725 -320.881072 
L 246.841 -321.915539 
L 247.957 -322.844452 
L 249.073 -323.666708 
L 250.189 -324.381328 
L 251.305 -324.987459 
L 252.421 -325.484378 
L 253.537 -325.871489 
L 254.653 -326.148329 
L 255.769 -326.314566 
L 256.885 -326.37 
L 258.001 -326.314566 
L 259.117 -326.148329 
L 260.233 -325.871489 
L 261.349 -325.484378 
L 262.465 -324.987459 
L 263.581 -324.381328 
L 264.697 -323.666708 
L 265.813 -322.844452 
L 266.929 -321.915539 
L 268.045 -320.881072 
L 269.161 -319.742279 
L 270.277 -318.500505 
L 271.393 -317.157213 
L 272.509 -315.713982 
L 273.625 -314.172502 
L 274.741 -312.534569 
L 275.857 -310.802087 
L 276.973 -308.977057 
L 278.089 -307.061581 
L 279.205 -305.057851 
L 280.321 -302.96815 
L 281.437 -300.794845 
L 282.553 -298.540382 
L 283.669 -296.207283 
L 284.785 -293.798141 
L 285.901 -291.315617 
L 287.017 -288.762429 
L 288.133 -286.141355 
L 289.249 -283.455221 
L 290.365 -280.706903 
L 291.481 -277.899314 
L 292.597 -275.035405 
L 293.713 -272.118158 
L 294.829 -269.150579 
L 295.945 -266.135698 
L 297.061 -263.076556 
L 298.177 -259.976208 
L 299.293 -256.837713 
L 300.409 -253.664129 
L 301.525 -250.458513 
L 302.641 -247.22391 
L 303.757 -243.963353 
L 304.873 -240.679855 
L 305.989 -237.376406 
L 307.105 -234.055972 
L 308.221 -230.721483 
L 309.337 -227.375837 
L 310.453 -224.021889 
L 311.569 -220.662454 
L 312.685 -217.300299 
L 313.801 -213.938139 
L 314.917 -210.578637 
L 316.033 -207.224398 
L 317.149 -203.877969 
L 318.265 -200.541831 
L 319.381 -197.218403 
L 320.497 -193.910034 
L 321.613 -190.619006 
L 322.729 -187.347524 
L 323.845 -184.097725 
L 324.961 -180.871667 
L 326.077 -177.671332 
L 327.193 -174.498622 
L 328.309 -171.355364 
L 329.425 -168.2433 
L 330.541 -165.164093 
L 331.657 -162.119325 
L 332.773 -159.110495 
L 333.889 -156.139021 
L 335.005 -153.206237 
L 336.121 -150.313395 
L 337.237 -147.461668 
L 338.353 -144.652145 
L 339.469 -141.885834 
L 340.585 -139.163664 
L 341.701 -136.486484 
L 342.817 -133.855066 
L 343.933 -131.270103 
L 345.049 -128.732213 
L 346.165 -126.24194 
L 347.281 -123.799753 
L 348.397 -121.406053 
L 349.513 -119.061166 
L 350.629 -116.765355 
L 351.745 -114.518812 
L 352.861 -112.321668 
L 353.977 -110.17399 
L 355.093 -108.075783 
L 356.209 -106.026996 
L 357.325 -104.027519 
L 358.441 -102.077191 
L 359.557 -100.175796 
L 360.673 -98.323068 
L 361.789 -96.518695 
L 362.905 -94.762319 
L 364.021 -93.053538 
L 365.137 -91.391909 
L 366.253 -89.776951 
L 367.369 -88.208146 
L 367.369 -49.17 
L 367.369 -49.17 
L 366.253 -49.17 
L 365.137 -49.17 
L 364.021 -49.17 
L 362.905 -49.17 
L 361.789 -49.17 
L 360.673 -49.17 
L 359.557 -49.17 
L 358.441 -49.17 
L 357.325 -49.17 
L 356.209 -49.17 
L 355.093 -49.17 
L 353.977 -49.17 
L 352.861 -49.17 
L 351.745 -49.17 
L 350.629 -49.17 
L 349.513 -49.17 
L 348.397 -49.17 
L 347.281 -49.17 
L 346.165 -49.17 
L 345.049 -49.17 
L 343.933 -49.17 
L 342.817 -49.17 
L 341.701 -49.17 
L 340.585 -49.17 
L 339.469 -49.17 
L 338.353 -49.17 
L 337.237 -49.17 
L 336.121 -49.17 
L 335.005 -49.17 
L 333.889 -49.17 
L 332.773 -49.17 
L 331.657 -49.17 
L 330.541 -49.17 
L 329.425 -49.17 
L 328.309 -49.17 
L 327.193 -49.17 
L 326.077 -49.17 
L 324.961 -49.17 
L 323.845 -49.17 
L 322.729 -49.17 
L 321.613 -49.17 
L 320.497 -49.17 
L 319.381 -49.17 
L 318.265 -49.17 
L 317.149 -49.17 
L 316.033 -49.17 
L 314.917 -49.17 
L 313.801 -49.17 
L 312.685 -49.17 
L 311.569 -49.17 
L 310.453 -49.17 
L 309.337 -49.17 
L 308.221 -49.17 
L 307.105 -49.17 
L 305.989 -49.17 
L 304.873 -49.17 
L 303.757 -49.17 
L 302.641 -49.17 
L 301.525 -49.17 
L 300.409 -49.17 
L 299.293 -49.17 
L 298.177 -49.17 
L 297.061 -49.17 
L 295.945 -49.17 
L 294.829 -49.17 
L 293.713 -49.17 
L 292.597 -49.17 
L 291.481 -49.17 
L 290.365 -49.17 
L 289.249 -49.17 
L 288.133 -49.17 
L 287.017 -49.17 
L 285.901 -49.17 
L 284.785 -49.17 
L 283.669 -49.17 
L 282.553 -49.17 
L 281.437 -49.17 
L 280.321 -49.17 
L 279.205 -49.17 
L 278.089 -49.17 
L 276.973 -49.17 
L 275.857 -49.17 
L 274.741 -49.17 
L 273.625 -49.17 
L 272.509 -49.17 
L 271.393 -49.17 
L 270.277 -49.17 
L 269.161 -49.17 
L 268.045 -49.17 
L 266.929 -49.17 
L 265.813 -49.17 
L 264.697 -49.17 
L 263.581 -49.17 
L 262.465 -49.17 
L 261.349 -49.17 
L 260.233 -49.17 
L 259.117 -49.17 
L 258.001 -49.17 
L 256.885 -49.17 
L 255.769 -49.17 
L 254.653 -49.17 
L 253.537 -49.17 
L 252.421 -49.17 
L 251.305 -49.17 
L 250.189 -49.17 
L 249.073 -49.17 
L 247.957 -49.17 
L 246.841 -49.17 
L 245.725 -49.17 
L 244.609 -49.17 
L 243.493 -49.17 
L 242.377 -49.17 
L 241.261 -49.17 
L 240.145 -49.17 
L 239.029 -49.17 
L 237.913 -49.17 
L 236.797 -49.17 
L 235.681 -49.17 
L 234.565 -49.17 
L 233.449 -49.17 
L 232.333 -49.17 
L 231.217 -49.17 
L 230.101 -49.17 
L 228.985 -49.17 
L 227.869 -49.17 
L 226.753 -49.17 
L 225.637 -49.17 
L 224.521 -49.17 
L 223.405 -49.17 
L 222.289 -49.17 
L 221.173 -49.17 
L 220.057 -49.17 
L 218.941 -49.17 
L 217.825 -49.17 
L 216.709 -49.17 
L 215.593 -49.17 
L 214.477 -49.17 
L 213.361 -49.17 
L 212.245 -49.17 
L 211.129 -49.17 
L 210.013 -49.17 
L 208.897 -49.17 
L 207.781 -49.17 
L 206.665 -49.17 
L 205.549 -49.17 
L 204.433 -49.17 
L 203.317 -49.17 
L 202.201 -49.17 
L 201.085 -49.17 
L 199.969 -49.17 
L 198.853 -49.17 
L 197.737 -49.17 
L 196.621 -49.17 
L 195.505 -49.17 
L 194.389 -49.17 
L 193.273 -49.17 
L 192.157 -49.17 
L 191.041 -49.17 
L 189.925 -49.17 
L 188.809 -49.17 
L 187.693 -49.17 
L 186.577 -49.17 
L 185.461 -49.17 
L 184.345 -49.17 
L 183.229 -49.17 
L 182.113 -49.17 
L 180.997 -49.17 
L 179.881 -49.17 
L 178.765 -49.17 
L 177.649 -49.17 
L 176.533 -49.17 
L 175.417 -49.17 
L 174.301 -49.17 
L 173.185 -49.17 
L 172.069 -49.17 
L 170.953 -49.17 
L 169.837 -49.17 
L 168.721 -49.17 
L 167.605 -49.17 
L 166.489 -49.17 
L 165.373 -49.17 
L 164.257 -49.17 
L 163.141 -49.17 
L 162.025 -49.17 
L 160.909 -49.17 
L 159.793 -49.17 
L 158.677 -49.17 
L 157.561 -49.17 
L 156.445 -49.17 
L 155.329 -49.17 
L 154.213 -49.17 
L 153.097 -49.17 
L 151.981 -49.17 
L 150.865 -49.17 
L 149.749 -49.17 
L 148.633 -49.17 
L 147.517 -49.17 
L 146.401 -49.17 
L 145.285 -49.17 
z
" id="ma10f3bce96" style="stroke:#0000ff;stroke-opacity:0.3;"/>
    </defs>
    <g clip-path="url(#p9916570af6)">
     <use style="fill:#0000ff;fill-opacity:0.3;stroke:#0000ff;stroke-opacity:0.3;" x="0" xlink:href="#ma10f3bce96" y="407.1675"/>
    </g>
   </g>
   <g id="PolyCollection_3">
    <path clip-path="url(#p9916570af6)" d="M -301.115 357.9975 
L -301.115 357.9975 
L -299.999 357.9975 
L -298.883 357.9975 
L -297.767 357.9975 
L -296.651 357.9975 
L -295.535 357.9975 
L -294.419 357.9975 
L -293.303 357.9975 
L -292.187 357.9975 
L -291.071 357.9975 
L -289.955 357.9975 
L -288.839 357.9975 
L -287.723 357.9975 
L -286.607 357.9975 
L -285.491 357.9975 
L -284.375 357.9975 
L -283.259 357.9975 
L -282.143 357.9975 
L -281.027 357.9975 
L -279.911 357.9975 
L -278.795 357.9975 
L -277.679 357.9975 
L -276.563 357.9975 
L -275.447 357.9975 
L -274.331 357.9975 
L -273.215 357.9975 
L -272.099 357.9975 
L -270.983 357.9975 
L -269.867 357.9975 
L -268.751 357.9975 
L -267.635 357.9975 
L -266.519 357.9975 
L -265.403 357.9975 
L -264.287 357.9975 
L -263.171 357.9975 
L -262.055 357.9975 
L -260.939 357.9975 
L -259.823 357.9975 
L -258.707 357.9975 
L -257.591 357.9975 
L -256.475 357.9975 
L -255.359 357.9975 
L -254.243 357.9975 
L -253.127 357.9975 
L -252.011 357.9975 
L -250.895 357.9975 
L -249.779 357.9975 
L -248.663 357.9975 
L -247.547 357.9975 
L -246.431 357.9975 
L -245.315 357.9975 
L -244.199 357.9975 
L -243.083 357.9975 
L -241.967 357.9975 
L -240.851 357.9975 
L -239.735 357.9975 
L -238.619 357.9975 
L -237.503 357.9975 
L -236.387 357.9975 
L -235.271 357.9975 
L -234.155 357.9975 
L -233.039 357.9975 
L -231.923 357.9975 
L -230.807 357.9975 
L -229.691 357.9975 
L -228.575 357.9975 
L -227.459 357.9975 
L -226.343 357.9975 
L -225.227 357.9975 
L -224.111 357.9975 
L -222.995 357.9975 
L -221.879 357.9975 
L -220.763 357.9975 
L -219.647 357.9975 
L -218.531 357.9975 
L -217.415 357.9975 
L -216.299 357.9975 
L -215.183 357.9975 
L -214.067 357.9975 
L -212.951 357.9975 
L -211.835 357.9975 
L -210.719 357.9975 
L -209.603 357.9975 
L -208.487 357.9975 
L -207.371 357.9975 
L -206.255 357.9975 
L -205.139 357.9975 
L -204.023 357.9975 
L -202.907 357.9975 
L -201.791 357.9975 
L -200.675 357.9975 
L -199.559 357.9975 
L -198.443 357.9975 
L -197.327 357.9975 
L -196.211 357.9975 
L -195.095 357.9975 
L -193.979 357.9975 
L -192.863 357.9975 
L -191.747 357.9975 
L -190.631 357.9975 
L -189.515 357.9975 
L -188.399 357.9975 
L -187.283 357.9975 
L -186.167 357.9975 
L -185.051 357.9975 
L -183.935 357.9975 
L -182.819 357.9975 
L -181.703 357.9975 
L -180.587 357.9975 
L -179.471 357.9975 
L -178.355 357.9975 
L -177.239 357.9975 
L -176.123 357.9975 
L -175.007 357.9975 
L -173.891 357.9975 
L -172.775 357.9975 
L -171.659 357.9975 
L -170.543 357.9975 
L -169.427 357.9975 
L -168.311 357.9975 
L -167.195 357.9975 
L -166.079 357.9975 
L -164.963 357.9975 
L -163.847 357.9975 
L -162.731 357.9975 
L -161.615 357.9975 
L -160.499 357.9975 
L -159.383 357.9975 
L -158.267 357.9975 
L -157.151 357.9975 
L -156.035 357.9975 
L -154.919 357.9975 
L -153.803 357.9975 
L -152.687 357.9975 
L -151.571 357.9975 
L -150.455 357.9975 
L -149.339 357.9975 
L -148.223 357.9975 
L -147.107 357.9975 
L -145.991 357.9975 
L -144.875 357.9975 
L -143.759 357.9975 
L -142.643 357.9975 
L -141.527 357.9975 
L -140.411 357.9975 
L -139.295 357.9975 
L -138.179 357.9975 
L -137.063 357.9975 
L -135.947 357.9975 
L -134.831 357.9975 
L -133.715 357.9975 
L -132.599 357.9975 
L -131.483 357.9975 
L -130.367 357.9975 
L -129.251 357.9975 
L -128.135 357.9975 
L -127.019 357.9975 
L -125.903 357.9975 
L -124.787 357.9975 
L -123.671 357.9975 
L -122.555 357.9975 
L -121.439 357.9975 
L -120.323 357.9975 
L -119.207 357.9975 
L -118.091 357.9975 
L -116.975 357.9975 
L -115.859 357.9975 
L -114.743 357.9975 
L -113.627 357.9975 
L -112.511 357.9975 
L -111.395 357.9975 
L -110.279 357.9975 
L -109.163 357.9975 
L -108.047 357.9975 
L -106.931 357.9975 
L -105.815 357.9975 
L -104.699 357.9975 
L -103.583 357.9975 
L -102.467 357.9975 
L -101.351 357.9975 
L -100.235 357.9975 
L -99.119 357.9975 
L -98.003 357.9975 
L -96.887 357.997499 
L -95.771 357.997499 
L -94.655 357.997499 
L -93.539 357.997499 
L -92.423 357.997499 
L -91.307 357.997499 
L -90.191 357.997499 
L -89.075 357.997499 
L -87.959 357.997499 
L -86.843 357.997498 
L -85.727 357.997498 
L -84.611 357.997498 
L -83.495 357.997498 
L -82.379 357.997497 
L -81.263 357.997497 
L -80.147 357.997497 
L -79.031 357.997496 
L -77.915 357.997496 
L -76.799 357.997495 
L -75.683 357.997495 
L -74.567 357.997494 
L -73.451 357.997493 
L -72.335 357.997492 
L -71.219 357.997491 
L -70.103 357.99749 
L -68.987 357.997489 
L -67.871 357.997488 
L -66.755 357.997486 
L -65.639 357.997485 
L -64.523 357.997483 
L -63.407 357.997481 
L -62.291 357.997478 
L -61.175 357.997476 
L -60.059 357.997473 
L -58.943 357.997469 
L -57.827 357.997466 
L -56.711 357.997462 
L -55.595 357.997457 
L -54.479 357.997452 
L -53.363 357.997446 
L -52.247 357.99744 
L -51.131 357.997433 
L -50.015 357.997425 
L -48.899 357.997416 
L -47.783 357.997407 
L -46.667 357.997396 
L -45.551 357.997384 
L -44.435 357.997371 
L -43.319 357.997356 
L -42.203 357.99734 
L -41.087 357.997322 
L -39.971 357.997302 
L -38.855 357.99728 
L -37.739 357.997255 
L -36.623 357.997228 
L -35.507 357.997198 
L -34.391 357.997164 
L -33.275 357.997127 
L -32.159 357.997087 
L -31.043 357.997042 
L -29.927 357.996992 
L -28.811 357.996937 
L -27.695 357.996877 
L -26.579 357.99681 
L -25.463 357.996736 
L -24.347 357.996655 
L -23.231 357.996565 
L -22.115 357.996467 
L -20.999 357.996359 
L -19.883 357.996239 
L -18.767 357.996108 
L -17.651 357.995964 
L -16.535 357.995805 
L -15.419 357.995631 
L -14.303 357.99544 
L -13.187 357.99523 
L -12.071 357.995 
L -10.955 357.994748 
L -9.839 357.994471 
L -8.723 357.994168 
L -7.607 357.993835 
L -6.491 357.993472 
L -5.375 357.993074 
L -4.259 357.992639 
L -3.143 357.992163 
L -2.027 357.991643 
L -0.911 357.991074 
L 0.205 357.990454 
L 1.321 357.989776 
L 2.437 357.989037 
L 3.553 357.988231 
L 4.669 357.987352 
L 5.785 357.986394 
L 6.901 357.98535 
L 8.017 357.984214 
L 9.133 357.982978 
L 10.249 357.981632 
L 11.365 357.980169 
L 12.481 357.978579 
L 13.597 357.97685 
L 14.713 357.974973 
L 15.829 357.972936 
L 16.945 357.970724 
L 18.061 357.968326 
L 19.177 357.965725 
L 20.293 357.962906 
L 21.409 357.959851 
L 22.525 357.956544 
L 23.641 357.952964 
L 24.757 357.949091 
L 25.873 357.944901 
L 26.989 357.940372 
L 28.105 357.935478 
L 29.221 357.930191 
L 30.337 357.924483 
L 31.453 357.918322 
L 32.569 357.911676 
L 33.685 357.90451 
L 34.801 357.896785 
L 35.917 357.888462 
L 37.033 357.879499 
L 38.149 357.86985 
L 39.265 357.859467 
L 40.381 357.848299 
L 41.497 357.836292 
L 42.613 357.823389 
L 43.729 357.809528 
L 44.845 357.794644 
L 45.961 357.77867 
L 47.077 357.761532 
L 48.193 357.743154 
L 49.309 357.723454 
L 50.425 357.702347 
L 51.541 357.679741 
L 52.657 357.65554 
L 53.773 357.629643 
L 54.889 357.601943 
L 56.005 357.572328 
L 57.121 357.540678 
L 58.237 357.506868 
L 59.353 357.470767 
L 60.469 357.432235 
L 61.585 357.391127 
L 62.701 357.347291 
L 63.817 357.300563 
L 64.933 357.250777 
L 66.049 357.197754 
L 67.165 357.141308 
L 68.281 357.081245 
L 69.397 357.017361 
L 70.513 356.949442 
L 71.629 356.877264 
L 72.745 356.800595 
L 73.861 356.71919 
L 74.977 356.632794 
L 76.093 356.541141 
L 77.209 356.443955 
L 78.325 356.340946 
L 79.441 356.231814 
L 80.557 356.116245 
L 81.673 355.993913 
L 82.789 355.864479 
L 83.905 355.727592 
L 85.021 355.582886 
L 86.137 355.429983 
L 87.253 355.268489 
L 88.369 355.097997 
L 89.485 354.918086 
L 90.601 354.72832 
L 91.717 354.528247 
L 92.833 354.317402 
L 93.949 354.095305 
L 95.065 353.861458 
L 96.181 353.615351 
L 97.297 353.356456 
L 98.413 353.084232 
L 99.529 352.798121 
L 100.645 352.497549 
L 101.761 352.181927 
L 102.877 351.850653 
L 103.993 351.503106 
L 105.109 351.138654 
L 106.225 350.756645 
L 107.341 350.356418 
L 108.457 349.937293 
L 109.573 349.498579 
L 110.689 349.039569 
L 111.805 348.559546 
L 112.921 348.057776 
L 114.037 347.533516 
L 115.153 346.98601 
L 116.269 346.414491 
L 117.385 345.818182 
L 118.501 345.196296 
L 119.617 344.548036 
L 120.733 343.872599 
L 121.849 343.169174 
L 122.965 342.436944 
L 124.081 341.675086 
L 125.197 340.882774 
L 126.313 340.059179 
L 127.429 339.20347 
L 128.545 338.314816 
L 129.661 337.392387 
L 130.777 336.435354 
L 131.893 335.442895 
L 133.009 334.41419 
L 134.125 333.348428 
L 135.241 332.244805 
L 136.357 331.10253 
L 137.473 329.920822 
L 138.589 328.698914 
L 139.705 327.436054 
L 140.821 326.131511 
L 141.937 324.78457 
L 143.053 323.394539 
L 144.169 321.960749 
L 145.285 320.482559 
L 146.401 318.959354 
L 147.517 317.390549 
L 148.633 315.775591 
L 149.749 314.113962 
L 150.865 312.405181 
L 151.981 310.648805 
L 153.097 308.844432 
L 154.213 306.991704 
L 155.329 305.090309 
L 156.445 303.139981 
L 157.561 301.140504 
L 158.677 299.091717 
L 159.793 296.99351 
L 160.909 294.845832 
L 162.025 292.648688 
L 163.141 290.402145 
L 164.257 288.106334 
L 165.373 285.761447 
L 166.489 283.367747 
L 167.605 280.92556 
L 168.721 278.435287 
L 169.837 275.897397 
L 170.953 273.312434 
L 172.069 270.681016 
L 173.185 268.003836 
L 174.301 265.281666 
L 175.417 262.515355 
L 176.533 259.705832 
L 177.649 256.854105 
L 178.765 253.961263 
L 179.881 251.028479 
L 180.997 248.057005 
L 182.113 245.048175 
L 183.229 242.003407 
L 184.345 238.9242 
L 185.461 235.812136 
L 186.577 232.668878 
L 187.693 229.496168 
L 188.809 226.295833 
L 189.925 223.069775 
L 191.041 219.819976 
L 192.157 216.548494 
L 193.273 213.257466 
L 194.389 209.949097 
L 195.505 206.625669 
L 196.621 203.289531 
L 197.737 199.943102 
L 198.853 196.588863 
L 199.969 193.229361 
L 201.085 189.867201 
L 202.201 186.505046 
L 203.317 183.145611 
L 204.433 179.791663 
L 205.549 176.446017 
L 206.665 173.111528 
L 207.781 169.791094 
L 208.897 166.487645 
L 210.013 163.204147 
L 211.129 159.94359 
L 212.245 156.708987 
L 213.361 153.503371 
L 214.477 150.329787 
L 215.593 147.191292 
L 216.709 144.090944 
L 217.825 141.031802 
L 218.941 138.016921 
L 220.057 135.049342 
L 221.173 132.132095 
L 222.289 129.268186 
L 223.405 126.460597 
L 224.521 123.712279 
L 225.637 121.026145 
L 226.753 118.405071 
L 227.869 115.851883 
L 228.985 113.369359 
L 230.101 110.960217 
L 231.217 108.627118 
L 232.333 106.372655 
L 233.449 104.19935 
L 234.565 102.109649 
L 235.681 100.105919 
L 236.797 98.190443 
L 237.913 96.365413 
L 239.029 94.632931 
L 240.145 92.994998 
L 241.261 91.453518 
L 242.377 90.010287 
L 243.493 88.666995 
L 244.609 87.425221 
L 245.725 86.286428 
L 246.841 85.251961 
L 247.957 84.323048 
L 249.073 83.500792 
L 250.189 82.786172 
L 251.305 82.180041 
L 252.421 81.683122 
L 253.537 81.296011 
L 254.653 81.019171 
L 255.769 80.852934 
L 256.885 80.7975 
L 258.001 80.852934 
L 259.117 81.019171 
L 260.233 81.296011 
L 261.349 81.683122 
L 262.465 82.180041 
L 263.581 82.786172 
L 264.697 83.500792 
L 265.813 84.323048 
L 266.929 85.251961 
L 268.045 86.286428 
L 269.161 87.425221 
L 270.277 88.666995 
L 271.393 90.010287 
L 272.509 91.453518 
L 273.625 92.994998 
L 274.741 94.632931 
L 275.857 96.365413 
L 276.973 98.190443 
L 278.089 100.105919 
L 279.205 102.109649 
L 280.321 104.19935 
L 281.437 106.372655 
L 282.553 108.627118 
L 283.669 110.960217 
L 284.785 113.369359 
L 285.901 115.851883 
L 287.017 118.405071 
L 288.133 121.026145 
L 289.249 123.712279 
L 290.365 126.460597 
L 291.481 129.268186 
L 292.597 132.132095 
L 293.713 135.049342 
L 294.829 138.016921 
L 295.945 141.031802 
L 297.061 144.090944 
L 298.177 147.191292 
L 299.293 150.329787 
L 300.409 153.503371 
L 301.525 156.708987 
L 302.641 159.94359 
L 303.757 163.204147 
L 304.873 166.487645 
L 305.989 169.791094 
L 307.105 173.111528 
L 308.221 176.446017 
L 309.337 179.791663 
L 310.453 183.145611 
L 311.569 186.505046 
L 312.685 189.867201 
L 313.801 193.229361 
L 314.917 196.588863 
L 316.033 199.943102 
L 317.149 203.289531 
L 318.265 206.625669 
L 319.381 209.949097 
L 320.497 213.257466 
L 321.613 216.548494 
L 322.729 219.819976 
L 323.845 223.069775 
L 324.961 226.295833 
L 326.077 229.496168 
L 327.193 232.668878 
L 328.309 235.812136 
L 329.425 238.9242 
L 330.541 242.003407 
L 331.657 245.048175 
L 332.773 248.057005 
L 333.889 251.028479 
L 335.005 253.961263 
L 336.121 256.854105 
L 337.237 259.705832 
L 338.353 262.515355 
L 339.469 265.281666 
L 340.585 268.003836 
L 341.701 270.681016 
L 342.817 273.312434 
L 343.933 275.897397 
L 345.049 278.435287 
L 346.165 280.92556 
L 347.281 283.367747 
L 348.397 285.761447 
L 349.513 288.106334 
L 350.629 290.402145 
L 351.745 292.648688 
L 352.861 294.845832 
L 353.977 296.99351 
L 355.093 299.091717 
L 356.209 301.140504 
L 357.325 303.139981 
L 358.441 305.090309 
L 359.557 306.991704 
L 360.673 308.844432 
L 361.789 310.648805 
L 362.905 312.405181 
L 364.021 314.113962 
L 365.137 315.775591 
L 366.253 317.390549 
L 367.369 318.959354 
L 368.485 320.482559 
L 369.601 321.960749 
L 370.717 323.394539 
L 371.833 324.78457 
L 372.949 326.131511 
L 374.065 327.436054 
L 375.181 328.698914 
L 376.297 329.920822 
L 377.413 331.10253 
L 378.529 332.244805 
L 379.645 333.348428 
L 380.761 334.41419 
L 381.877 335.442895 
L 382.993 336.435354 
L 384.109 337.392387 
L 385.225 338.314816 
L 386.341 339.20347 
L 387.457 340.059179 
L 388.573 340.882774 
L 389.689 341.675086 
L 390.805 342.436944 
L 391.921 343.169174 
L 393.037 343.872599 
L 394.153 344.548036 
L 395.269 345.196296 
L 396.385 345.818182 
L 397.501 346.414491 
L 398.617 346.98601 
L 399.733 347.533516 
L 400.849 348.057776 
L 401.965 348.559546 
L 403.081 349.039569 
L 404.197 349.498579 
L 405.313 349.937293 
L 406.429 350.356418 
L 407.545 350.756645 
L 408.661 351.138654 
L 409.777 351.503106 
L 410.893 351.850653 
L 412.009 352.181927 
L 413.125 352.497549 
L 414.241 352.798121 
L 415.357 353.084232 
L 416.473 353.356456 
L 417.589 353.615351 
L 418.705 353.861458 
L 419.821 354.095305 
L 420.937 354.317402 
L 422.053 354.528247 
L 423.169 354.72832 
L 424.285 354.918086 
L 425.401 355.097997 
L 426.517 355.268489 
L 427.633 355.429983 
L 428.749 355.582886 
L 429.865 355.727592 
L 430.981 355.864479 
L 432.097 355.993913 
L 433.213 356.116245 
L 434.329 356.231814 
L 435.445 356.340946 
L 436.561 356.443955 
L 437.677 356.541141 
L 438.793 356.632794 
L 439.909 356.71919 
L 441.025 356.800595 
L 442.141 356.877264 
L 443.257 356.949442 
L 444.373 357.017361 
L 445.489 357.081245 
L 446.605 357.141308 
L 447.721 357.197754 
L 448.837 357.250777 
L 449.953 357.300563 
L 451.069 357.347291 
L 452.185 357.391127 
L 453.301 357.432235 
L 454.417 357.470767 
L 455.533 357.506868 
L 456.649 357.540678 
L 457.765 357.572328 
L 458.881 357.601943 
L 459.997 357.629643 
L 461.113 357.65554 
L 462.229 357.679741 
L 463.345 357.702347 
L 464.461 357.723454 
L 465.577 357.743154 
L 466.693 357.761532 
L 467.809 357.77867 
L 468.925 357.794644 
L 470.041 357.809528 
L 471.157 357.823389 
L 472.273 357.836292 
L 473.389 357.848299 
L 474.505 357.859467 
L 475.621 357.86985 
L 476.737 357.879499 
L 477.853 357.888462 
L 478.969 357.896785 
L 480.085 357.90451 
L 481.201 357.911676 
L 482.317 357.918322 
L 483.433 357.924483 
L 484.549 357.930191 
L 485.665 357.935478 
L 486.781 357.940372 
L 487.897 357.944901 
L 489.013 357.949091 
L 490.129 357.952964 
L 491.245 357.956544 
L 492.361 357.959851 
L 493.477 357.962906 
L 494.593 357.965725 
L 495.709 357.968326 
L 496.825 357.970724 
L 497.941 357.972936 
L 499.057 357.974973 
L 500.173 357.97685 
L 501.289 357.978579 
L 502.405 357.980169 
L 503.521 357.981632 
L 504.637 357.982978 
L 505.753 357.984214 
L 506.869 357.98535 
L 507.985 357.986394 
L 509.101 357.987352 
L 510.217 357.988231 
L 511.333 357.989037 
L 512.449 357.989776 
L 513.565 357.990454 
L 514.681 357.991074 
L 515.797 357.991643 
L 516.913 357.992163 
L 518.029 357.992639 
L 519.145 357.993074 
L 520.261 357.993472 
L 521.377 357.993835 
L 522.493 357.994168 
L 523.609 357.994471 
L 524.725 357.994748 
L 525.841 357.995 
L 526.957 357.99523 
L 528.073 357.99544 
L 529.189 357.995631 
L 530.305 357.995805 
L 531.421 357.995964 
L 532.537 357.996108 
L 533.653 357.996239 
L 534.769 357.996359 
L 535.885 357.996467 
L 537.001 357.996565 
L 538.117 357.996655 
L 539.233 357.996736 
L 540.349 357.99681 
L 541.465 357.996877 
L 542.581 357.996937 
L 543.697 357.996992 
L 544.813 357.997042 
L 545.929 357.997087 
L 547.045 357.997127 
L 548.161 357.997164 
L 549.277 357.997198 
L 550.393 357.997228 
L 551.509 357.997255 
L 552.625 357.99728 
L 553.741 357.997302 
L 554.857 357.997322 
L 555.973 357.99734 
L 557.089 357.997356 
L 558.205 357.997371 
L 559.321 357.997384 
L 560.437 357.997396 
L 561.553 357.997407 
L 562.669 357.997416 
L 563.785 357.997425 
L 564.901 357.997433 
L 566.017 357.99744 
L 567.133 357.997446 
L 568.249 357.997452 
L 569.365 357.997457 
L 570.481 357.997462 
L 571.597 357.997466 
L 572.713 357.997469 
L 573.829 357.997473 
L 574.945 357.997476 
L 576.061 357.997478 
L 577.177 357.997481 
L 578.293 357.997483 
L 579.409 357.997485 
L 580.525 357.997486 
L 581.641 357.997488 
L 582.757 357.997489 
L 583.873 357.99749 
L 584.989 357.997491 
L 586.105 357.997492 
L 587.221 357.997493 
L 588.337 357.997494 
L 589.453 357.997495 
L 590.569 357.997495 
L 591.685 357.997496 
L 592.801 357.997496 
L 593.917 357.997497 
L 595.033 357.997497 
L 596.149 357.997497 
L 597.265 357.997498 
L 598.381 357.997498 
L 599.497 357.997498 
L 600.613 357.997498 
L 601.729 357.997499 
L 602.845 357.997499 
L 603.961 357.997499 
L 605.077 357.997499 
L 606.193 357.997499 
L 607.309 357.997499 
L 608.425 357.997499 
L 609.541 357.997499 
L 610.657 357.997499 
L 611.773 357.9975 
L 612.889 357.9975 
L 614.005 357.9975 
L 615.121 357.9975 
L 616.237 357.9975 
L 617.353 357.9975 
L 618.469 357.9975 
L 619.585 357.9975 
L 620.701 357.9975 
L 621.817 357.9975 
L 622.933 357.9975 
L 624.049 357.9975 
L 625.165 357.9975 
L 626.281 357.9975 
L 627.397 357.9975 
L 628.513 357.9975 
L 629.629 357.9975 
L 630.745 357.9975 
L 631.861 357.9975 
L 632.977 357.9975 
L 634.093 357.9975 
L 635.209 357.9975 
L 636.325 357.9975 
L 637.441 357.9975 
L 638.557 357.9975 
L 639.673 357.9975 
L 640.789 357.9975 
L 641.905 357.9975 
L 643.021 357.9975 
L 644.137 357.9975 
L 645.253 357.9975 
L 646.369 357.9975 
L 647.485 357.9975 
L 648.601 357.9975 
L 649.717 357.9975 
L 650.833 357.9975 
L 651.949 357.9975 
L 653.065 357.9975 
L 654.181 357.9975 
L 655.297 357.9975 
L 656.413 357.9975 
L 657.529 357.9975 
L 658.645 357.9975 
L 659.761 357.9975 
L 660.877 357.9975 
L 661.993 357.9975 
L 663.109 357.9975 
L 664.225 357.9975 
L 665.341 357.9975 
L 666.457 357.9975 
L 667.573 357.9975 
L 668.689 357.9975 
L 669.805 357.9975 
L 670.921 357.9975 
L 672.037 357.9975 
L 673.153 357.9975 
L 674.269 357.9975 
L 675.385 357.9975 
L 676.501 357.9975 
L 677.617 357.9975 
L 678.733 357.9975 
L 679.849 357.9975 
L 680.965 357.9975 
L 682.081 357.9975 
L 683.197 357.9975 
L 684.313 357.9975 
L 685.429 357.9975 
L 686.545 357.9975 
L 687.661 357.9975 
L 688.777 357.9975 
L 689.893 357.9975 
L 691.009 357.9975 
L 692.125 357.9975 
L 693.241 357.9975 
L 694.357 357.9975 
L 695.473 357.9975 
L 696.589 357.9975 
L 697.705 357.9975 
L 698.821 357.9975 
L 699.937 357.9975 
L 701.053 357.9975 
L 702.169 357.9975 
L 703.285 357.9975 
L 704.401 357.9975 
L 705.517 357.9975 
L 706.633 357.9975 
L 707.749 357.9975 
L 708.865 357.9975 
L 709.981 357.9975 
L 711.097 357.9975 
L 712.213 357.9975 
L 713.329 357.9975 
L 714.445 357.9975 
L 715.561 357.9975 
L 716.677 357.9975 
L 717.793 357.9975 
L 718.909 357.9975 
L 720.025 357.9975 
L 721.141 357.9975 
L 722.257 357.9975 
L 723.373 357.9975 
L 724.489 357.9975 
L 725.605 357.9975 
L 726.721 357.9975 
L 727.837 357.9975 
L 728.953 357.9975 
L 730.069 357.9975 
L 731.185 357.9975 
L 732.301 357.9975 
L 733.417 357.9975 
L 734.533 357.9975 
L 735.649 357.9975 
L 736.765 357.9975 
L 737.881 357.9975 
L 738.997 357.9975 
L 740.113 357.9975 
L 741.229 357.9975 
L 742.345 357.9975 
L 743.461 357.9975 
L 744.577 357.9975 
L 745.693 357.9975 
L 746.809 357.9975 
L 747.925 357.9975 
L 749.041 357.9975 
L 750.157 357.9975 
L 751.273 357.9975 
L 752.389 357.9975 
L 753.505 357.9975 
L 754.621 357.9975 
L 755.737 357.9975 
L 756.853 357.9975 
L 757.969 357.9975 
L 759.085 357.9975 
L 760.201 357.9975 
L 761.317 357.9975 
L 762.433 357.9975 
L 763.549 357.9975 
L 764.665 357.9975 
L 765.781 357.9975 
L 766.897 357.9975 
L 768.013 357.9975 
L 769.129 357.9975 
L 770.245 357.9975 
L 771.361 357.9975 
L 772.477 357.9975 
L 773.593 357.9975 
L 774.709 357.9975 
L 775.825 357.9975 
L 776.941 357.9975 
L 778.057 357.9975 
L 779.173 357.9975 
L 780.289 357.9975 
L 781.405 357.9975 
L 782.521 357.9975 
L 783.637 357.9975 
L 784.753 357.9975 
L 785.869 357.9975 
L 786.985 357.9975 
L 788.101 357.9975 
L 789.217 357.9975 
L 790.333 357.9975 
L 791.449 357.9975 
L 792.565 357.9975 
L 793.681 357.9975 
L 794.797 357.9975 
L 795.913 357.9975 
L 797.029 357.9975 
L 798.145 357.9975 
L 799.261 357.9975 
L 800.377 357.9975 
L 801.493 357.9975 
L 802.609 357.9975 
L 803.725 357.9975 
L 804.841 357.9975 
L 805.957 357.9975 
L 807.073 357.9975 
L 808.189 357.9975 
L 809.305 357.9975 
L 810.421 357.9975 
L 811.537 357.9975 
L 812.653 357.9975 
L 813.769 357.9975 
L 813.769 357.9975 
L 813.769 357.9975 
L 812.653 357.9975 
L 811.537 357.9975 
L 810.421 357.9975 
L 809.305 357.9975 
L 808.189 357.9975 
L 807.073 357.9975 
L 805.957 357.9975 
L 804.841 357.9975 
L 803.725 357.9975 
L 802.609 357.9975 
L 801.493 357.9975 
L 800.377 357.9975 
L 799.261 357.9975 
L 798.145 357.9975 
L 797.029 357.9975 
L 795.913 357.9975 
L 794.797 357.9975 
L 793.681 357.9975 
L 792.565 357.9975 
L 791.449 357.9975 
L 790.333 357.9975 
L 789.217 357.9975 
L 788.101 357.9975 
L 786.985 357.9975 
L 785.869 357.9975 
L 784.753 357.9975 
L 783.637 357.9975 
L 782.521 357.9975 
L 781.405 357.9975 
L 780.289 357.9975 
L 779.173 357.9975 
L 778.057 357.9975 
L 776.941 357.9975 
L 775.825 357.9975 
L 774.709 357.9975 
L 773.593 357.9975 
L 772.477 357.9975 
L 771.361 357.9975 
L 770.245 357.9975 
L 769.129 357.9975 
L 768.013 357.9975 
L 766.897 357.9975 
L 765.781 357.9975 
L 764.665 357.9975 
L 763.549 357.9975 
L 762.433 357.9975 
L 761.317 357.9975 
L 760.201 357.9975 
L 759.085 357.9975 
L 757.969 357.9975 
L 756.853 357.9975 
L 755.737 357.9975 
L 754.621 357.9975 
L 753.505 357.9975 
L 752.389 357.9975 
L 751.273 357.9975 
L 750.157 357.9975 
L 749.041 357.9975 
L 747.925 357.9975 
L 746.809 357.9975 
L 745.693 357.9975 
L 744.577 357.9975 
L 743.461 357.9975 
L 742.345 357.9975 
L 741.229 357.9975 
L 740.113 357.9975 
L 738.997 357.9975 
L 737.881 357.9975 
L 736.765 357.9975 
L 735.649 357.9975 
L 734.533 357.9975 
L 733.417 357.9975 
L 732.301 357.9975 
L 731.185 357.9975 
L 730.069 357.9975 
L 728.953 357.9975 
L 727.837 357.9975 
L 726.721 357.9975 
L 725.605 357.9975 
L 724.489 357.9975 
L 723.373 357.9975 
L 722.257 357.9975 
L 721.141 357.9975 
L 720.025 357.9975 
L 718.909 357.9975 
L 717.793 357.9975 
L 716.677 357.9975 
L 715.561 357.9975 
L 714.445 357.9975 
L 713.329 357.9975 
L 712.213 357.9975 
L 711.097 357.9975 
L 709.981 357.9975 
L 708.865 357.9975 
L 707.749 357.9975 
L 706.633 357.9975 
L 705.517 357.9975 
L 704.401 357.9975 
L 703.285 357.9975 
L 702.169 357.9975 
L 701.053 357.9975 
L 699.937 357.9975 
L 698.821 357.9975 
L 697.705 357.9975 
L 696.589 357.9975 
L 695.473 357.9975 
L 694.357 357.9975 
L 693.241 357.9975 
L 692.125 357.9975 
L 691.009 357.9975 
L 689.893 357.9975 
L 688.777 357.9975 
L 687.661 357.9975 
L 686.545 357.9975 
L 685.429 357.9975 
L 684.313 357.9975 
L 683.197 357.9975 
L 682.081 357.9975 
L 680.965 357.9975 
L 679.849 357.9975 
L 678.733 357.9975 
L 677.617 357.9975 
L 676.501 357.9975 
L 675.385 357.9975 
L 674.269 357.9975 
L 673.153 357.9975 
L 672.037 357.9975 
L 670.921 357.9975 
L 669.805 357.9975 
L 668.689 357.9975 
L 667.573 357.9975 
L 666.457 357.9975 
L 665.341 357.9975 
L 664.225 357.9975 
L 663.109 357.9975 
L 661.993 357.9975 
L 660.877 357.9975 
L 659.761 357.9975 
L 658.645 357.9975 
L 657.529 357.9975 
L 656.413 357.9975 
L 655.297 357.9975 
L 654.181 357.9975 
L 653.065 357.9975 
L 651.949 357.9975 
L 650.833 357.9975 
L 649.717 357.9975 
L 648.601 357.9975 
L 647.485 357.9975 
L 646.369 357.9975 
L 645.253 357.9975 
L 644.137 357.9975 
L 643.021 357.9975 
L 641.905 357.9975 
L 640.789 357.9975 
L 639.673 357.9975 
L 638.557 357.9975 
L 637.441 357.9975 
L 636.325 357.9975 
L 635.209 357.9975 
L 634.093 357.9975 
L 632.977 357.9975 
L 631.861 357.9975 
L 630.745 357.9975 
L 629.629 357.9975 
L 628.513 357.9975 
L 627.397 357.9975 
L 626.281 357.9975 
L 625.165 357.9975 
L 624.049 357.9975 
L 622.933 357.9975 
L 621.817 357.9975 
L 620.701 357.9975 
L 619.585 357.9975 
L 618.469 357.9975 
L 617.353 357.9975 
L 616.237 357.9975 
L 615.121 357.9975 
L 614.005 357.9975 
L 612.889 357.9975 
L 611.773 357.9975 
L 610.657 357.9975 
L 609.541 357.9975 
L 608.425 357.9975 
L 607.309 357.9975 
L 606.193 357.9975 
L 605.077 357.9975 
L 603.961 357.9975 
L 602.845 357.9975 
L 601.729 357.9975 
L 600.613 357.9975 
L 599.497 357.9975 
L 598.381 357.9975 
L 597.265 357.9975 
L 596.149 357.9975 
L 595.033 357.9975 
L 593.917 357.9975 
L 592.801 357.9975 
L 591.685 357.9975 
L 590.569 357.9975 
L 589.453 357.9975 
L 588.337 357.9975 
L 587.221 357.9975 
L 586.105 357.9975 
L 584.989 357.9975 
L 583.873 357.9975 
L 582.757 357.9975 
L 581.641 357.9975 
L 580.525 357.9975 
L 579.409 357.9975 
L 578.293 357.9975 
L 577.177 357.9975 
L 576.061 357.9975 
L 574.945 357.9975 
L 573.829 357.9975 
L 572.713 357.9975 
L 571.597 357.9975 
L 570.481 357.9975 
L 569.365 357.9975 
L 568.249 357.9975 
L 567.133 357.9975 
L 566.017 357.9975 
L 564.901 357.9975 
L 563.785 357.9975 
L 562.669 357.9975 
L 561.553 357.9975 
L 560.437 357.9975 
L 559.321 357.9975 
L 558.205 357.9975 
L 557.089 357.9975 
L 555.973 357.9975 
L 554.857 357.9975 
L 553.741 357.9975 
L 552.625 357.9975 
L 551.509 357.9975 
L 550.393 357.9975 
L 549.277 357.9975 
L 548.161 357.9975 
L 547.045 357.9975 
L 545.929 357.9975 
L 544.813 357.9975 
L 543.697 357.9975 
L 542.581 357.9975 
L 541.465 357.9975 
L 540.349 357.9975 
L 539.233 357.9975 
L 538.117 357.9975 
L 537.001 357.9975 
L 535.885 357.9975 
L 534.769 357.9975 
L 533.653 357.9975 
L 532.537 357.9975 
L 531.421 357.9975 
L 530.305 357.9975 
L 529.189 357.9975 
L 528.073 357.9975 
L 526.957 357.9975 
L 525.841 357.9975 
L 524.725 357.9975 
L 523.609 357.9975 
L 522.493 357.9975 
L 521.377 357.9975 
L 520.261 357.9975 
L 519.145 357.9975 
L 518.029 357.9975 
L 516.913 357.9975 
L 515.797 357.9975 
L 514.681 357.9975 
L 513.565 357.9975 
L 512.449 357.9975 
L 511.333 357.9975 
L 510.217 357.9975 
L 509.101 357.9975 
L 507.985 357.9975 
L 506.869 357.9975 
L 505.753 357.9975 
L 504.637 357.9975 
L 503.521 357.9975 
L 502.405 357.9975 
L 501.289 357.9975 
L 500.173 357.9975 
L 499.057 357.9975 
L 497.941 357.9975 
L 496.825 357.9975 
L 495.709 357.9975 
L 494.593 357.9975 
L 493.477 357.9975 
L 492.361 357.9975 
L 491.245 357.9975 
L 490.129 357.9975 
L 489.013 357.9975 
L 487.897 357.9975 
L 486.781 357.9975 
L 485.665 357.9975 
L 484.549 357.9975 
L 483.433 357.9975 
L 482.317 357.9975 
L 481.201 357.9975 
L 480.085 357.9975 
L 478.969 357.9975 
L 477.853 357.9975 
L 476.737 357.9975 
L 475.621 357.9975 
L 474.505 357.9975 
L 473.389 357.9975 
L 472.273 357.9975 
L 471.157 357.9975 
L 470.041 357.9975 
L 468.925 357.9975 
L 467.809 357.9975 
L 466.693 357.9975 
L 465.577 357.9975 
L 464.461 357.9975 
L 463.345 357.9975 
L 462.229 357.9975 
L 461.113 357.9975 
L 459.997 357.9975 
L 458.881 357.9975 
L 457.765 357.9975 
L 456.649 357.9975 
L 455.533 357.9975 
L 454.417 357.9975 
L 453.301 357.9975 
L 452.185 357.9975 
L 451.069 357.9975 
L 449.953 357.9975 
L 448.837 357.9975 
L 447.721 357.9975 
L 446.605 357.9975 
L 445.489 357.9975 
L 444.373 357.9975 
L 443.257 357.9975 
L 442.141 357.9975 
L 441.025 357.9975 
L 439.909 357.9975 
L 438.793 357.9975 
L 437.677 357.9975 
L 436.561 357.9975 
L 435.445 357.9975 
L 434.329 357.9975 
L 433.213 357.9975 
L 432.097 357.9975 
L 430.981 357.9975 
L 429.865 357.9975 
L 428.749 357.9975 
L 427.633 357.9975 
L 426.517 357.9975 
L 425.401 357.9975 
L 424.285 357.9975 
L 423.169 357.9975 
L 422.053 357.9975 
L 420.937 357.9975 
L 419.821 357.9975 
L 418.705 357.9975 
L 417.589 357.9975 
L 416.473 357.9975 
L 415.357 357.9975 
L 414.241 357.9975 
L 413.125 357.9975 
L 412.009 357.9975 
L 410.893 357.9975 
L 409.777 357.9975 
L 408.661 357.9975 
L 407.545 357.9975 
L 406.429 357.9975 
L 405.313 357.9975 
L 404.197 357.9975 
L 403.081 357.9975 
L 401.965 357.9975 
L 400.849 357.9975 
L 399.733 357.9975 
L 398.617 357.9975 
L 397.501 357.9975 
L 396.385 357.9975 
L 395.269 357.9975 
L 394.153 357.9975 
L 393.037 357.9975 
L 391.921 357.9975 
L 390.805 357.9975 
L 389.689 357.9975 
L 388.573 357.9975 
L 387.457 357.9975 
L 386.341 357.9975 
L 385.225 357.9975 
L 384.109 357.9975 
L 382.993 357.9975 
L 381.877 357.9975 
L 380.761 357.9975 
L 379.645 357.9975 
L 378.529 357.9975 
L 377.413 357.9975 
L 376.297 357.9975 
L 375.181 357.9975 
L 374.065 357.9975 
L 372.949 357.9975 
L 371.833 357.9975 
L 370.717 357.9975 
L 369.601 357.9975 
L 368.485 357.9975 
L 367.369 357.9975 
L 366.253 357.9975 
L 365.137 357.9975 
L 364.021 357.9975 
L 362.905 357.9975 
L 361.789 357.9975 
L 360.673 357.9975 
L 359.557 357.9975 
L 358.441 357.9975 
L 357.325 357.9975 
L 356.209 357.9975 
L 355.093 357.9975 
L 353.977 357.9975 
L 352.861 357.9975 
L 351.745 357.9975 
L 350.629 357.9975 
L 349.513 357.9975 
L 348.397 357.9975 
L 347.281 357.9975 
L 346.165 357.9975 
L 345.049 357.9975 
L 343.933 357.9975 
L 342.817 357.9975 
L 341.701 357.9975 
L 340.585 357.9975 
L 339.469 357.9975 
L 338.353 357.9975 
L 337.237 357.9975 
L 336.121 357.9975 
L 335.005 357.9975 
L 333.889 357.9975 
L 332.773 357.9975 
L 331.657 357.9975 
L 330.541 357.9975 
L 329.425 357.9975 
L 328.309 357.9975 
L 327.193 357.9975 
L 326.077 357.9975 
L 324.961 357.9975 
L 323.845 357.9975 
L 322.729 357.9975 
L 321.613 357.9975 
L 320.497 357.9975 
L 319.381 357.9975 
L 318.265 357.9975 
L 317.149 357.9975 
L 316.033 357.9975 
L 314.917 357.9975 
L 313.801 357.9975 
L 312.685 357.9975 
L 311.569 357.9975 
L 310.453 357.9975 
L 309.337 357.9975 
L 308.221 357.9975 
L 307.105 357.9975 
L 305.989 357.9975 
L 304.873 357.9975 
L 303.757 357.9975 
L 302.641 357.9975 
L 301.525 357.9975 
L 300.409 357.9975 
L 299.293 357.9975 
L 298.177 357.9975 
L 297.061 357.9975 
L 295.945 357.9975 
L 294.829 357.9975 
L 293.713 357.9975 
L 292.597 357.9975 
L 291.481 357.9975 
L 290.365 357.9975 
L 289.249 357.9975 
L 288.133 357.9975 
L 287.017 357.9975 
L 285.901 357.9975 
L 284.785 357.9975 
L 283.669 357.9975 
L 282.553 357.9975 
L 281.437 357.9975 
L 280.321 357.9975 
L 279.205 357.9975 
L 278.089 357.9975 
L 276.973 357.9975 
L 275.857 357.9975 
L 274.741 357.9975 
L 273.625 357.9975 
L 272.509 357.9975 
L 271.393 357.9975 
L 270.277 357.9975 
L 269.161 357.9975 
L 268.045 357.9975 
L 266.929 357.9975 
L 265.813 357.9975 
L 264.697 357.9975 
L 263.581 357.9975 
L 262.465 357.9975 
L 261.349 357.9975 
L 260.233 357.9975 
L 259.117 357.9975 
L 258.001 357.9975 
L 256.885 357.9975 
L 255.769 357.9975 
L 254.653 357.9975 
L 253.537 357.9975 
L 252.421 357.9975 
L 251.305 357.9975 
L 250.189 357.9975 
L 249.073 357.9975 
L 247.957 357.9975 
L 246.841 357.9975 
L 245.725 357.9975 
L 244.609 357.9975 
L 243.493 357.9975 
L 242.377 357.9975 
L 241.261 357.9975 
L 240.145 357.9975 
L 239.029 357.9975 
L 237.913 357.9975 
L 236.797 357.9975 
L 235.681 357.9975 
L 234.565 357.9975 
L 233.449 357.9975 
L 232.333 357.9975 
L 231.217 357.9975 
L 230.101 357.9975 
L 228.985 357.9975 
L 227.869 357.9975 
L 226.753 357.9975 
L 225.637 357.9975 
L 224.521 357.9975 
L 223.405 357.9975 
L 222.289 357.9975 
L 221.173 357.9975 
L 220.057 357.9975 
L 218.941 357.9975 
L 217.825 357.9975 
L 216.709 357.9975 
L 215.593 357.9975 
L 214.477 357.9975 
L 213.361 357.9975 
L 212.245 357.9975 
L 211.129 357.9975 
L 210.013 357.9975 
L 208.897 357.9975 
L 207.781 357.9975 
L 206.665 357.9975 
L 205.549 357.9975 
L 204.433 357.9975 
L 203.317 357.9975 
L 202.201 357.9975 
L 201.085 357.9975 
L 199.969 357.9975 
L 198.853 357.9975 
L 197.737 357.9975 
L 196.621 357.9975 
L 195.505 357.9975 
L 194.389 357.9975 
L 193.273 357.9975 
L 192.157 357.9975 
L 191.041 357.9975 
L 189.925 357.9975 
L 188.809 357.9975 
L 187.693 357.9975 
L 186.577 357.9975 
L 185.461 357.9975 
L 184.345 357.9975 
L 183.229 357.9975 
L 182.113 357.9975 
L 180.997 357.9975 
L 179.881 357.9975 
L 178.765 357.9975 
L 177.649 357.9975 
L 176.533 357.9975 
L 175.417 357.9975 
L 174.301 357.9975 
L 173.185 357.9975 
L 172.069 357.9975 
L 170.953 357.9975 
L 169.837 357.9975 
L 168.721 357.9975 
L 167.605 357.9975 
L 166.489 357.9975 
L 165.373 357.9975 
L 164.257 357.9975 
L 163.141 357.9975 
L 162.025 357.9975 
L 160.909 357.9975 
L 159.793 357.9975 
L 158.677 357.9975 
L 157.561 357.9975 
L 156.445 357.9975 
L 155.329 357.9975 
L 154.213 357.9975 
L 153.097 357.9975 
L 151.981 357.9975 
L 150.865 357.9975 
L 149.749 357.9975 
L 148.633 357.9975 
L 147.517 357.9975 
L 146.401 357.9975 
L 145.285 357.9975 
L 144.169 357.9975 
L 143.053 357.9975 
L 141.937 357.9975 
L 140.821 357.9975 
L 139.705 357.9975 
L 138.589 357.9975 
L 137.473 357.9975 
L 136.357 357.9975 
L 135.241 357.9975 
L 134.125 357.9975 
L 133.009 357.9975 
L 131.893 357.9975 
L 130.777 357.9975 
L 129.661 357.9975 
L 128.545 357.9975 
L 127.429 357.9975 
L 126.313 357.9975 
L 125.197 357.9975 
L 124.081 357.9975 
L 122.965 357.9975 
L 121.849 357.9975 
L 120.733 357.9975 
L 119.617 357.9975 
L 118.501 357.9975 
L 117.385 357.9975 
L 116.269 357.9975 
L 115.153 357.9975 
L 114.037 357.9975 
L 112.921 357.9975 
L 111.805 357.9975 
L 110.689 357.9975 
L 109.573 357.9975 
L 108.457 357.9975 
L 107.341 357.9975 
L 106.225 357.9975 
L 105.109 357.9975 
L 103.993 357.9975 
L 102.877 357.9975 
L 101.761 357.9975 
L 100.645 357.9975 
L 99.529 357.9975 
L 98.413 357.9975 
L 97.297 357.9975 
L 96.181 357.9975 
L 95.065 357.9975 
L 93.949 357.9975 
L 92.833 357.9975 
L 91.717 357.9975 
L 90.601 357.9975 
L 89.485 357.9975 
L 88.369 357.9975 
L 87.253 357.9975 
L 86.137 357.9975 
L 85.021 357.9975 
L 83.905 357.9975 
L 82.789 357.9975 
L 81.673 357.9975 
L 80.557 357.9975 
L 79.441 357.9975 
L 78.325 357.9975 
L 77.209 357.9975 
L 76.093 357.9975 
L 74.977 357.9975 
L 73.861 357.9975 
L 72.745 357.9975 
L 71.629 357.9975 
L 70.513 357.9975 
L 69.397 357.9975 
L 68.281 357.9975 
L 67.165 357.9975 
L 66.049 357.9975 
L 64.933 357.9975 
L 63.817 357.9975 
L 62.701 357.9975 
L 61.585 357.9975 
L 60.469 357.9975 
L 59.353 357.9975 
L 58.237 357.9975 
L 57.121 357.9975 
L 56.005 357.9975 
L 54.889 357.9975 
L 53.773 357.9975 
L 52.657 357.9975 
L 51.541 357.9975 
L 50.425 357.9975 
L 49.309 357.9975 
L 48.193 357.9975 
L 47.077 357.9975 
L 45.961 357.9975 
L 44.845 357.9975 
L 43.729 357.9975 
L 42.613 357.9975 
L 41.497 357.9975 
L 40.381 357.9975 
L 39.265 357.9975 
L 38.149 357.9975 
L 37.033 357.9975 
L 35.917 357.9975 
L 34.801 357.9975 
L 33.685 357.9975 
L 32.569 357.9975 
L 31.453 357.9975 
L 30.337 357.9975 
L 29.221 357.9975 
L 28.105 357.9975 
L 26.989 357.9975 
L 25.873 357.9975 
L 24.757 357.9975 
L 23.641 357.9975 
L 22.525 357.9975 
L 21.409 357.9975 
L 20.293 357.9975 
L 19.177 357.9975 
L 18.061 357.9975 
L 16.945 357.9975 
L 15.829 357.9975 
L 14.713 357.9975 
L 13.597 357.9975 
L 12.481 357.9975 
L 11.365 357.9975 
L 10.249 357.9975 
L 9.133 357.9975 
L 8.017 357.9975 
L 6.901 357.9975 
L 5.785 357.9975 
L 4.669 357.9975 
L 3.553 357.9975 
L 2.437 357.9975 
L 1.321 357.9975 
L 0.205 357.9975 
L -0.911 357.9975 
L -2.027 357.9975 
L -3.143 357.9975 
L -4.259 357.9975 
L -5.375 357.9975 
L -6.491 357.9975 
L -7.607 357.9975 
L -8.723 357.9975 
L -9.839 357.9975 
L -10.955 357.9975 
L -12.071 357.9975 
L -13.187 357.9975 
L -14.303 357.9975 
L -15.419 357.9975 
L -16.535 357.9975 
L -17.651 357.9975 
L -18.767 357.9975 
L -19.883 357.9975 
L -20.999 357.9975 
L -22.115 357.9975 
L -23.231 357.9975 
L -24.347 357.9975 
L -25.463 357.9975 
L -26.579 357.9975 
L -27.695 357.9975 
L -28.811 357.9975 
L -29.927 357.9975 
L -31.043 357.9975 
L -32.159 357.9975 
L -33.275 357.9975 
L -34.391 357.9975 
L -35.507 357.9975 
L -36.623 357.9975 
L -37.739 357.9975 
L -38.855 357.9975 
L -39.971 357.9975 
L -41.087 357.9975 
L -42.203 357.9975 
L -43.319 357.9975 
L -44.435 357.9975 
L -45.551 357.9975 
L -46.667 357.9975 
L -47.783 357.9975 
L -48.899 357.9975 
L -50.015 357.9975 
L -51.131 357.9975 
L -52.247 357.9975 
L -53.363 357.9975 
L -54.479 357.9975 
L -55.595 357.9975 
L -56.711 357.9975 
L -57.827 357.9975 
L -58.943 357.9975 
L -60.059 357.9975 
L -61.175 357.9975 
L -62.291 357.9975 
L -63.407 357.9975 
L -64.523 357.9975 
L -65.639 357.9975 
L -66.755 357.9975 
L -67.871 357.9975 
L -68.987 357.9975 
L -70.103 357.9975 
L -71.219 357.9975 
L -72.335 357.9975 
L -73.451 357.9975 
L -74.567 357.9975 
L -75.683 357.9975 
L -76.799 357.9975 
L -77.915 357.9975 
L -79.031 357.9975 
L -80.147 357.9975 
L -81.263 357.9975 
L -82.379 357.9975 
L -83.495 357.9975 
L -84.611 357.9975 
L -85.727 357.9975 
L -86.843 357.9975 
L -87.959 357.9975 
L -89.075 357.9975 
L -90.191 357.9975 
L -91.307 357.9975 
L -92.423 357.9975 
L -93.539 357.9975 
L -94.655 357.9975 
L -95.771 357.9975 
L -96.887 357.9975 
L -98.003 357.9975 
L -99.119 357.9975 
L -100.235 357.9975 
L -101.351 357.9975 
L -102.467 357.9975 
L -103.583 357.9975 
L -104.699 357.9975 
L -105.815 357.9975 
L -106.931 357.9975 
L -108.047 357.9975 
L -109.163 357.9975 
L -110.279 357.9975 
L -111.395 357.9975 
L -112.511 357.9975 
L -113.627 357.9975 
L -114.743 357.9975 
L -115.859 357.9975 
L -116.975 357.9975 
L -118.091 357.9975 
L -119.207 357.9975 
L -120.323 357.9975 
L -121.439 357.9975 
L -122.555 357.9975 
L -123.671 357.9975 
L -124.787 357.9975 
L -125.903 357.9975 
L -127.019 357.9975 
L -128.135 357.9975 
L -129.251 357.9975 
L -130.367 357.9975 
L -131.483 357.9975 
L -132.599 357.9975 
L -133.715 357.9975 
L -134.831 357.9975 
L -135.947 357.9975 
L -137.063 357.9975 
L -138.179 357.9975 
L -139.295 357.9975 
L -140.411 357.9975 
L -141.527 357.9975 
L -142.643 357.9975 
L -143.759 357.9975 
L -144.875 357.9975 
L -145.991 357.9975 
L -147.107 357.9975 
L -148.223 357.9975 
L -149.339 357.9975 
L -150.455 357.9975 
L -151.571 357.9975 
L -152.687 357.9975 
L -153.803 357.9975 
L -154.919 357.9975 
L -156.035 357.9975 
L -157.151 357.9975 
L -158.267 357.9975 
L -159.383 357.9975 
L -160.499 357.9975 
L -161.615 357.9975 
L -162.731 357.9975 
L -163.847 357.9975 
L -164.963 357.9975 
L -166.079 357.9975 
L -167.195 357.9975 
L -168.311 357.9975 
L -169.427 357.9975 
L -170.543 357.9975 
L -171.659 357.9975 
L -172.775 357.9975 
L -173.891 357.9975 
L -175.007 357.9975 
L -176.123 357.9975 
L -177.239 357.9975 
L -178.355 357.9975 
L -179.471 357.9975 
L -180.587 357.9975 
L -181.703 357.9975 
L -182.819 357.9975 
L -183.935 357.9975 
L -185.051 357.9975 
L -186.167 357.9975 
L -187.283 357.9975 
L -188.399 357.9975 
L -189.515 357.9975 
L -190.631 357.9975 
L -191.747 357.9975 
L -192.863 357.9975 
L -193.979 357.9975 
L -195.095 357.9975 
L -196.211 357.9975 
L -197.327 357.9975 
L -198.443 357.9975 
L -199.559 357.9975 
L -200.675 357.9975 
L -201.791 357.9975 
L -202.907 357.9975 
L -204.023 357.9975 
L -205.139 357.9975 
L -206.255 357.9975 
L -207.371 357.9975 
L -208.487 357.9975 
L -209.603 357.9975 
L -210.719 357.9975 
L -211.835 357.9975 
L -212.951 357.9975 
L -214.067 357.9975 
L -215.183 357.9975 
L -216.299 357.9975 
L -217.415 357.9975 
L -218.531 357.9975 
L -219.647 357.9975 
L -220.763 357.9975 
L -221.879 357.9975 
L -222.995 357.9975 
L -224.111 357.9975 
L -225.227 357.9975 
L -226.343 357.9975 
L -227.459 357.9975 
L -228.575 357.9975 
L -229.691 357.9975 
L -230.807 357.9975 
L -231.923 357.9975 
L -233.039 357.9975 
L -234.155 357.9975 
L -235.271 357.9975 
L -236.387 357.9975 
L -237.503 357.9975 
L -238.619 357.9975 
L -239.735 357.9975 
L -240.851 357.9975 
L -241.967 357.9975 
L -243.083 357.9975 
L -244.199 357.9975 
L -245.315 357.9975 
L -246.431 357.9975 
L -247.547 357.9975 
L -248.663 357.9975 
L -249.779 357.9975 
L -250.895 357.9975 
L -252.011 357.9975 
L -253.127 357.9975 
L -254.243 357.9975 
L -255.359 357.9975 
L -256.475 357.9975 
L -257.591 357.9975 
L -258.707 357.9975 
L -259.823 357.9975 
L -260.939 357.9975 
L -262.055 357.9975 
L -263.171 357.9975 
L -264.287 357.9975 
L -265.403 357.9975 
L -266.519 357.9975 
L -267.635 357.9975 
L -268.751 357.9975 
L -269.867 357.9975 
L -270.983 357.9975 
L -272.099 357.9975 
L -273.215 357.9975 
L -274.331 357.9975 
L -275.447 357.9975 
L -276.563 357.9975 
L -277.679 357.9975 
L -278.795 357.9975 
L -279.911 357.9975 
L -281.027 357.9975 
L -282.143 357.9975 
L -283.259 357.9975 
L -284.375 357.9975 
L -285.491 357.9975 
L -286.607 357.9975 
L -287.723 357.9975 
L -288.839 357.9975 
L -289.955 357.9975 
L -291.071 357.9975 
L -292.187 357.9975 
L -293.303 357.9975 
L -294.419 357.9975 
L -295.535 357.9975 
L -296.651 357.9975 
L -297.767 357.9975 
L -298.883 357.9975 
L -299.999 357.9975 
L -301.115 357.9975 
z
" style="fill:#1f77b4;fill-opacity:0.1;"/>
   </g>
   <g id="line2d_1">
    <path clip-path="url(#p9916570af6)" d="M -1 357.99112 
L 38.149 357.86985 
L 53.773 357.629643 
L 64.933 357.250777 
L 73.861 356.71919 
L 80.557 356.116245 
L 86.137 355.429983 
L 91.717 354.528247 
L 96.181 353.615351 
L 100.645 352.497549 
L 105.109 351.138654 
L 109.573 349.498579 
L 112.921 348.057776 
L 116.269 346.414491 
L 119.617 344.548036 
L 122.965 342.436944 
L 126.313 340.059179 
L 129.661 337.392387 
L 133.009 334.41419 
L 136.357 331.10253 
L 139.705 327.436054 
L 143.053 323.394539 
L 146.401 318.959354 
L 149.749 314.113962 
L 153.097 308.844432 
L 156.445 303.139981 
L 159.793 296.99351 
L 163.141 290.402145 
L 166.489 283.367747 
L 169.837 275.897397 
L 174.301 265.281666 
L 178.765 253.961263 
L 183.229 242.003407 
L 188.809 226.295833 
L 195.505 206.625669 
L 213.361 153.503371 
L 217.825 141.031802 
L 222.289 129.268186 
L 225.637 121.026145 
L 228.985 113.369359 
L 232.333 106.372655 
L 234.565 102.109649 
L 236.797 98.190443 
L 239.029 94.632931 
L 241.261 91.453518 
L 243.493 88.666995 
L 245.725 86.286428 
L 247.957 84.323048 
L 250.189 82.786172 
L 252.421 81.683122 
L 254.653 81.019171 
L 256.885 80.7975 
L 259.117 81.019171 
L 261.349 81.683122 
L 263.581 82.786172 
L 265.813 84.323048 
L 268.045 86.286428 
L 270.277 88.666995 
L 272.509 91.453518 
L 274.741 94.632931 
L 276.973 98.190443 
L 279.205 102.109649 
L 281.437 106.372655 
L 284.785 113.369359 
L 288.133 121.026145 
L 291.481 129.268186 
L 294.829 138.016921 
L 299.293 150.329787 
L 304.873 166.487645 
L 313.801 193.229361 
L 322.729 219.819976 
L 328.309 235.812136 
L 332.773 248.057005 
L 337.237 259.705832 
L 341.701 270.681016 
L 346.165 280.92556 
L 349.513 288.106334 
L 352.861 294.845832 
L 356.209 301.140504 
L 359.557 306.991704 
L 362.905 312.405181 
L 366.253 317.390549 
L 369.601 321.960749 
L 372.949 326.131511 
L 376.297 329.920822 
L 379.645 333.348428 
L 382.993 336.435354 
L 386.341 339.20347 
L 389.689 341.675086 
L 393.037 343.872599 
L 396.385 345.818182 
L 399.733 347.533516 
L 403.081 349.039569 
L 407.545 350.756645 
L 412.009 352.181927 
L 416.473 353.356456 
L 420.937 354.317402 
L 426.517 355.268489 
L 432.097 355.993913 
L 438.793 356.632794 
L 446.605 357.141308 
L 456.649 357.540678 
L 470.041 357.809528 
L 490.129 357.952964 
L 538.117 357.996655 
L 563.48 357.997423 
L 563.48 357.997423 
" style="fill:none;stroke:#0000ff;stroke-linecap:square;stroke-opacity:0.7;stroke-width:1.5;"/>
   </g>
   <g id="matplotlib.axis_1">
    <g id="xtick_1">
     <g id="line2d_2">
      <defs>
       <path d="M 0 0 
L 0 3.5 
" id="m7c448bdb33" style="stroke:#000000;stroke-width:0.8;"/>
      </defs>
      <g>
       <use style="stroke:#000000;stroke-width:0.8;" x="145.285" xlink:href="#m7c448bdb33" y="357.9975"/>
      </g>
     </g>
     <g id="text_1">
      <!-- -0% -->
      <defs>
       <path d="M 4.890625 31.390625 
L 31.203125 31.390625 
L 31.203125 23.390625 
L 4.890625 23.390625 
z
" id="DejaVuSans-45"/>
       <path d="M 31.78125 66.40625 
Q 24.171875 66.40625 20.328125 58.90625 
Q 16.5 51.421875 16.5 36.375 
Q 16.5 21.390625 20.328125 13.890625 
Q 24.171875 6.390625 31.78125 6.390625 
Q 39.453125 6.390625 43.28125 13.890625 
Q 47.125 21.390625 47.125 36.375 
Q 47.125 51.421875 43.28125 58.90625 
Q 39.453125 66.40625 31.78125 66.40625 
z
M 31.78125 74.21875 
Q 44.046875 74.21875 50.515625 64.515625 
Q 56.984375 54.828125 56.984375 36.375 
Q 56.984375 17.96875 50.515625 8.265625 
Q 44.046875 -1.421875 31.78125 -1.421875 
Q 19.53125 -1.421875 13.0625 8.265625 
Q 6.59375 17.96875 6.59375 36.375 
Q 6.59375 54.828125 13.0625 64.515625 
Q 19.53125 74.21875 31.78125 74.21875 
z
" id="DejaVuSans-48"/>
       <path d="M 72.703125 32.078125 
Q 68.453125 32.078125 66.03125 28.46875 
Q 63.625 24.859375 63.625 18.40625 
Q 63.625 12.0625 66.03125 8.421875 
Q 68.453125 4.78125 72.703125 4.78125 
Q 76.859375 4.78125 79.265625 8.421875 
Q 81.6875 12.0625 81.6875 18.40625 
Q 81.6875 24.8125 79.265625 28.4375 
Q 76.859375 32.078125 72.703125 32.078125 
z
M 72.703125 38.28125 
Q 80.421875 38.28125 84.953125 32.90625 
Q 89.5 27.546875 89.5 18.40625 
Q 89.5 9.28125 84.9375 3.921875 
Q 80.375 -1.421875 72.703125 -1.421875 
Q 64.890625 -1.421875 60.34375 3.921875 
Q 55.8125 9.28125 55.8125 18.40625 
Q 55.8125 27.59375 60.375 32.9375 
Q 64.9375 38.28125 72.703125 38.28125 
z
M 22.3125 68.015625 
Q 18.109375 68.015625 15.6875 64.375 
Q 13.28125 60.75 13.28125 54.390625 
Q 13.28125 47.953125 15.671875 44.328125 
Q 18.0625 40.71875 22.3125 40.71875 
Q 26.5625 40.71875 28.96875 44.328125 
Q 31.390625 47.953125 31.390625 54.390625 
Q 31.390625 60.6875 28.953125 64.34375 
Q 26.515625 68.015625 22.3125 68.015625 
z
M 66.40625 74.21875 
L 74.21875 74.21875 
L 28.609375 -1.421875 
L 20.796875 -1.421875 
z
M 22.3125 74.21875 
Q 30.03125 74.21875 34.609375 68.875 
Q 39.203125 63.53125 39.203125 54.390625 
Q 39.203125 45.171875 34.640625 39.84375 
Q 30.078125 34.515625 22.3125 34.515625 
Q 14.546875 34.515625 10.03125 39.859375 
Q 5.515625 45.21875 5.515625 54.390625 
Q 5.515625 63.484375 10.046875 68.84375 
Q 14.59375 74.21875 22.3125 74.21875 
z
" id="DejaVuSans-37"/>
      </defs>
      <g transform="translate(129.7075 377.155)scale(0.16 -0.16)">
       <use xlink:href="#DejaVuSans-45"/>
       <use x="36.083984" xlink:href="#DejaVuSans-48"/>
       <use x="99.707031" xlink:href="#DejaVuSans-37"/>
      </g>
     </g>
    </g>
    <g id="xtick_2">
     <g id="line2d_3">
      <g>
       <use style="stroke:#000000;stroke-width:0.8;" x="201.085" xlink:href="#m7c448bdb33" y="357.9975"/>
      </g>
     </g>
     <g id="text_2">
      <!-- -0% -->
      <g transform="translate(185.5075 377.155)scale(0.16 -0.16)">
       <use xlink:href="#DejaVuSans-45"/>
       <use x="36.083984" xlink:href="#DejaVuSans-48"/>
       <use x="99.707031" xlink:href="#DejaVuSans-37"/>
      </g>
     </g>
    </g>
    <g id="xtick_3">
     <g id="line2d_4">
      <g>
       <use style="stroke:#000000;stroke-width:0.8;" x="256.885" xlink:href="#m7c448bdb33" y="357.9975"/>
      </g>
     </g>
     <g id="text_3">
      <!-- +0% -->
      <defs>
       <path d="M 46 62.703125 
L 46 35.5 
L 73.1875 35.5 
L 73.1875 27.203125 
L 46 27.203125 
L 46 0 
L 37.796875 0 
L 37.796875 27.203125 
L 10.59375 27.203125 
L 10.59375 35.5 
L 37.796875 35.5 
L 37.796875 62.703125 
z
" id="DejaVuSans-43"/>
      </defs>
      <g transform="translate(237.49 377.155)scale(0.16 -0.16)">
       <use xlink:href="#DejaVuSans-43"/>
       <use x="83.789062" xlink:href="#DejaVuSans-48"/>
       <use x="147.412109" xlink:href="#DejaVuSans-37"/>
      </g>
     </g>
    </g>
    <g id="xtick_4">
     <g id="line2d_5">
      <g>
       <use style="stroke:#000000;stroke-width:0.8;" x="312.685" xlink:href="#m7c448bdb33" y="357.9975"/>
      </g>
     </g>
     <g id="text_4">
      <!-- +1% -->
      <defs>
       <path d="M 12.40625 8.296875 
L 28.515625 8.296875 
L 28.515625 63.921875 
L 10.984375 60.40625 
L 10.984375 69.390625 
L 28.421875 72.90625 
L 38.28125 72.90625 
L 38.28125 8.296875 
L 54.390625 8.296875 
L 54.390625 0 
L 12.40625 0 
z
" id="DejaVuSans-49"/>
      </defs>
      <g transform="translate(293.29 377.155)scale(0.16 -0.16)">
       <use xlink:href="#DejaVuSans-43"/>
       <use x="83.789062" xlink:href="#DejaVuSans-49"/>
       <use x="147.412109" xlink:href="#DejaVuSans-37"/>
      </g>
     </g>
    </g>
    <g id="xtick_5">
     <g id="line2d_6">
      <g>
       <use style="stroke:#000000;stroke-width:0.8;" x="368.485" xlink:href="#m7c448bdb33" y="357.9975"/>
      </g>
     </g>
     <g id="text_5">
      <!-- +1% -->
      <g transform="translate(349.09 377.155)scale(0.16 -0.16)">
       <use xlink:href="#DejaVuSans-43"/>
       <use x="83.789062" xlink:href="#DejaVuSans-49"/>
       <use x="147.412109" xlink:href="#DejaVuSans-37"/>
      </g>
     </g>
    </g>
    <g id="xtick_6">
     <g id="line2d_7">
      <g>
       <use style="stroke:#000000;stroke-width:0.8;" x="424.285" xlink:href="#m7c448bdb33" y="357.9975"/>
      </g>
     </g>
     <g id="text_6">
      <!-- +1% -->
      <g transform="translate(404.89 377.155)scale(0.16 -0.16)">
       <use xlink:href="#DejaVuSans-43"/>
       <use x="83.789062" xlink:href="#DejaVuSans-49"/>
       <use x="147.412109" xlink:href="#DejaVuSans-37"/>
      </g>
     </g>
    </g>
    <g id="xtick_7">
     <g id="line2d_8">
      <g>
       <use style="stroke:#000000;stroke-width:0.8;" x="480.085" xlink:href="#m7c448bdb33" y="357.9975"/>
      </g>
     </g>
     <g id="text_7">
      <!-- +1% -->
      <g transform="translate(460.69 377.155)scale(0.16 -0.16)">
       <use xlink:href="#DejaVuSans-43"/>
       <use x="83.789062" xlink:href="#DejaVuSans-49"/>
       <use x="147.412109" xlink:href="#DejaVuSans-37"/>
      </g>
     </g>
    </g>
    <g id="xtick_8">
     <g id="line2d_9">
      <g>
       <use style="stroke:#000000;stroke-width:0.8;" x="535.885" xlink:href="#m7c448bdb33" y="357.9975"/>
      </g>
     </g>
     <g id="text_8">
      <!-- +2% -->
      <defs>
       <path d="M 19.1875 8.296875 
L 53.609375 8.296875 
L 53.609375 0 
L 7.328125 0 
L 7.328125 8.296875 
Q 12.9375 14.109375 22.625 23.890625 
Q 32.328125 33.6875 34.8125 36.53125 
Q 39.546875 41.84375 41.421875 45.53125 
Q 43.3125 49.21875 43.3125 52.78125 
Q 43.3125 58.59375 39.234375 62.25 
Q 35.15625 65.921875 28.609375 65.921875 
Q 23.96875 65.921875 18.8125 64.3125 
Q 13.671875 62.703125 7.8125 59.421875 
L 7.8125 69.390625 
Q 13.765625 71.78125 18.9375 73 
Q 24.125 74.21875 28.421875 74.21875 
Q 39.75 74.21875 46.484375 68.546875 
Q 53.21875 62.890625 53.21875 53.421875 
Q 53.21875 48.921875 51.53125 44.890625 
Q 49.859375 40.875 45.40625 35.40625 
Q 44.1875 33.984375 37.640625 27.21875 
Q 31.109375 20.453125 19.1875 8.296875 
z
" id="DejaVuSans-50"/>
      </defs>
      <g transform="translate(516.49 377.155)scale(0.16 -0.16)">
       <use xlink:href="#DejaVuSans-43"/>
       <use x="83.789062" xlink:href="#DejaVuSans-50"/>
       <use x="147.412109" xlink:href="#DejaVuSans-37"/>
      </g>
     </g>
    </g>
    <g id="text_9">
     <!-- % Return -->
     <defs>
      <path id="DejaVuSans-32"/>
      <path d="M 44.390625 34.1875 
Q 47.5625 33.109375 50.5625 29.59375 
Q 53.5625 26.078125 56.59375 19.921875 
L 66.609375 0 
L 56 0 
L 46.6875 18.703125 
Q 43.0625 26.03125 39.671875 28.421875 
Q 36.28125 30.8125 30.421875 30.8125 
L 19.671875 30.8125 
L 19.671875 0 
L 9.8125 0 
L 9.8125 72.90625 
L 32.078125 72.90625 
Q 44.578125 72.90625 50.734375 67.671875 
Q 56.890625 62.453125 56.890625 51.90625 
Q 56.890625 45.015625 53.6875 40.46875 
Q 50.484375 35.9375 44.390625 34.1875 
z
M 19.671875 64.796875 
L 19.671875 38.921875 
L 32.078125 38.921875 
Q 39.203125 38.921875 42.84375 42.21875 
Q 46.484375 45.515625 46.484375 51.90625 
Q 46.484375 58.296875 42.84375 61.546875 
Q 39.203125 64.796875 32.078125 64.796875 
z
" id="DejaVuSans-82"/>
      <path d="M 56.203125 29.59375 
L 56.203125 25.203125 
L 14.890625 25.203125 
Q 15.484375 15.921875 20.484375 11.0625 
Q 25.484375 6.203125 34.421875 6.203125 
Q 39.59375 6.203125 44.453125 7.46875 
Q 49.3125 8.734375 54.109375 11.28125 
L 54.109375 2.78125 
Q 49.265625 0.734375 44.1875 -0.34375 
Q 39.109375 -1.421875 33.890625 -1.421875 
Q 20.796875 -1.421875 13.15625 6.1875 
Q 5.515625 13.8125 5.515625 26.8125 
Q 5.515625 40.234375 12.765625 48.109375 
Q 20.015625 56 32.328125 56 
Q 43.359375 56 49.78125 48.890625 
Q 56.203125 41.796875 56.203125 29.59375 
z
M 47.21875 32.234375 
Q 47.125 39.59375 43.09375 43.984375 
Q 39.0625 48.390625 32.421875 48.390625 
Q 24.90625 48.390625 20.390625 44.140625 
Q 15.875 39.890625 15.1875 32.171875 
z
" id="DejaVuSans-101"/>
      <path d="M 18.3125 70.21875 
L 18.3125 54.6875 
L 36.8125 54.6875 
L 36.8125 47.703125 
L 18.3125 47.703125 
L 18.3125 18.015625 
Q 18.3125 11.328125 20.140625 9.421875 
Q 21.96875 7.515625 27.59375 7.515625 
L 36.8125 7.515625 
L 36.8125 0 
L 27.59375 0 
Q 17.1875 0 13.234375 3.875 
Q 9.28125 7.765625 9.28125 18.015625 
L 9.28125 47.703125 
L 2.6875 47.703125 
L 2.6875 54.6875 
L 9.28125 54.6875 
L 9.28125 70.21875 
z
" id="DejaVuSans-116"/>
      <path d="M 8.5 21.578125 
L 8.5 54.6875 
L 17.484375 54.6875 
L 17.484375 21.921875 
Q 17.484375 14.15625 20.5 10.265625 
Q 23.53125 6.390625 29.59375 6.390625 
Q 36.859375 6.390625 41.078125 11.03125 
Q 45.3125 15.671875 45.3125 23.6875 
L 45.3125 54.6875 
L 54.296875 54.6875 
L 54.296875 0 
L 45.3125 0 
L 45.3125 8.40625 
Q 42.046875 3.421875 37.71875 1 
Q 33.40625 -1.421875 27.6875 -1.421875 
Q 18.265625 -1.421875 13.375 4.4375 
Q 8.5 10.296875 8.5 21.578125 
z
M 31.109375 56 
z
" id="DejaVuSans-117"/>
      <path d="M 41.109375 46.296875 
Q 39.59375 47.171875 37.8125 47.578125 
Q 36.03125 48 33.890625 48 
Q 26.265625 48 22.1875 43.046875 
Q 18.109375 38.09375 18.109375 28.8125 
L 18.109375 0 
L 9.078125 0 
L 9.078125 54.6875 
L 18.109375 54.6875 
L 18.109375 46.1875 
Q 20.953125 51.171875 25.484375 53.578125 
Q 30.03125 56 36.53125 56 
Q 37.453125 56 38.578125 55.875 
Q 39.703125 55.765625 41.0625 55.515625 
z
" id="DejaVuSans-114"/>
      <path d="M 54.890625 33.015625 
L 54.890625 0 
L 45.90625 0 
L 45.90625 32.71875 
Q 45.90625 40.484375 42.875 44.328125 
Q 39.84375 48.1875 33.796875 48.1875 
Q 26.515625 48.1875 22.3125 43.546875 
Q 18.109375 38.921875 18.109375 30.90625 
L 18.109375 0 
L 9.078125 0 
L 9.078125 54.6875 
L 18.109375 54.6875 
L 18.109375 46.1875 
Q 21.34375 51.125 25.703125 53.5625 
Q 30.078125 56 35.796875 56 
Q 45.21875 56 50.046875 50.171875 
Q 54.890625 44.34375 54.890625 33.015625 
z
" id="DejaVuSans-110"/>
     </defs>
     <g transform="translate(247.60125 396.64)scale(0.16 -0.16)">
      <use xlink:href="#DejaVuSans-37"/>
      <use x="95.019531" xlink:href="#DejaVuSans-32"/>
      <use x="126.806641" xlink:href="#DejaVuSans-82"/>
      <use x="196.226562" xlink:href="#DejaVuSans-101"/>
      <use x="257.75" xlink:href="#DejaVuSans-116"/>
      <use x="296.958984" xlink:href="#DejaVuSans-117"/>
      <use x="360.337891" xlink:href="#DejaVuSans-114"/>
      <use x="401.435547" xlink:href="#DejaVuSans-110"/>
     </g>
    </g>
   </g>
   <g id="matplotlib.axis_2">
    <g id="ytick_1">
     <g id="line2d_10">
      <defs>
       <path d="M 0 0 
L -3.5 0 
" id="m7be94390d7" style="stroke:#000000;stroke-width:0.8;"/>
      </defs>
      <g>
       <use style="stroke:#000000;stroke-width:0.8;" x="33.685" xlink:href="#m7be94390d7" y="357.9975"/>
      </g>
     </g>
    </g>
    <g id="ytick_2">
     <g id="line2d_11">
      <g>
       <use style="stroke:#000000;stroke-width:0.8;" x="33.685" xlink:href="#m7be94390d7" y="302.5575"/>
      </g>
     </g>
    </g>
    <g id="ytick_3">
     <g id="line2d_12">
      <g>
       <use style="stroke:#000000;stroke-width:0.8;" x="33.685" xlink:href="#m7be94390d7" y="247.1175"/>
      </g>
     </g>
    </g>
    <g id="ytick_4">
     <g id="line2d_13">
      <g>
       <use style="stroke:#000000;stroke-width:0.8;" x="33.685" xlink:href="#m7be94390d7" y="191.6775"/>
      </g>
     </g>
    </g>
    <g id="ytick_5">
     <g id="line2d_14">
      <g>
       <use style="stroke:#000000;stroke-width:0.8;" x="33.685" xlink:href="#m7be94390d7" y="136.2375"/>
      </g>
     </g>
    </g>
    <g id="ytick_6">
     <g id="line2d_15">
      <g>
       <use style="stroke:#000000;stroke-width:0.8;" x="33.685" xlink:href="#m7be94390d7" y="80.7975"/>
      </g>
     </g>
    </g>
    <g id="ytick_7">
     <g id="line2d_16">
      <g>
       <use style="stroke:#000000;stroke-width:0.8;" x="33.685" xlink:href="#m7be94390d7" y="25.3575"/>
      </g>
     </g>
    </g>
    <g id="text_10">
     <!-- Probability Distribution -->
     <defs>
      <path d="M 19.671875 64.796875 
L 19.671875 37.40625 
L 32.078125 37.40625 
Q 38.96875 37.40625 42.71875 40.96875 
Q 46.484375 44.53125 46.484375 51.125 
Q 46.484375 57.671875 42.71875 61.234375 
Q 38.96875 64.796875 32.078125 64.796875 
z
M 9.8125 72.90625 
L 32.078125 72.90625 
Q 44.34375 72.90625 50.609375 67.359375 
Q 56.890625 61.8125 56.890625 51.125 
Q 56.890625 40.328125 50.609375 34.8125 
Q 44.34375 29.296875 32.078125 29.296875 
L 19.671875 29.296875 
L 19.671875 0 
L 9.8125 0 
z
" id="DejaVuSans-80"/>
      <path d="M 30.609375 48.390625 
Q 23.390625 48.390625 19.1875 42.75 
Q 14.984375 37.109375 14.984375 27.296875 
Q 14.984375 17.484375 19.15625 11.84375 
Q 23.34375 6.203125 30.609375 6.203125 
Q 37.796875 6.203125 41.984375 11.859375 
Q 46.1875 17.53125 46.1875 27.296875 
Q 46.1875 37.015625 41.984375 42.703125 
Q 37.796875 48.390625 30.609375 48.390625 
z
M 30.609375 56 
Q 42.328125 56 49.015625 48.375 
Q 55.71875 40.765625 55.71875 27.296875 
Q 55.71875 13.875 49.015625 6.21875 
Q 42.328125 -1.421875 30.609375 -1.421875 
Q 18.84375 -1.421875 12.171875 6.21875 
Q 5.515625 13.875 5.515625 27.296875 
Q 5.515625 40.765625 12.171875 48.375 
Q 18.84375 56 30.609375 56 
z
" id="DejaVuSans-111"/>
      <path d="M 48.6875 27.296875 
Q 48.6875 37.203125 44.609375 42.84375 
Q 40.53125 48.484375 33.40625 48.484375 
Q 26.265625 48.484375 22.1875 42.84375 
Q 18.109375 37.203125 18.109375 27.296875 
Q 18.109375 17.390625 22.1875 11.75 
Q 26.265625 6.109375 33.40625 6.109375 
Q 40.53125 6.109375 44.609375 11.75 
Q 48.6875 17.390625 48.6875 27.296875 
z
M 18.109375 46.390625 
Q 20.953125 51.265625 25.265625 53.625 
Q 29.59375 56 35.59375 56 
Q 45.5625 56 51.78125 48.09375 
Q 58.015625 40.1875 58.015625 27.296875 
Q 58.015625 14.40625 51.78125 6.484375 
Q 45.5625 -1.421875 35.59375 -1.421875 
Q 29.59375 -1.421875 25.265625 0.953125 
Q 20.953125 3.328125 18.109375 8.203125 
L 18.109375 0 
L 9.078125 0 
L 9.078125 75.984375 
L 18.109375 75.984375 
z
" id="DejaVuSans-98"/>
      <path d="M 34.28125 27.484375 
Q 23.390625 27.484375 19.1875 25 
Q 14.984375 22.515625 14.984375 16.5 
Q 14.984375 11.71875 18.140625 8.90625 
Q 21.296875 6.109375 26.703125 6.109375 
Q 34.1875 6.109375 38.703125 11.40625 
Q 43.21875 16.703125 43.21875 25.484375 
L 43.21875 27.484375 
z
M 52.203125 31.203125 
L 52.203125 0 
L 43.21875 0 
L 43.21875 8.296875 
Q 40.140625 3.328125 35.546875 0.953125 
Q 30.953125 -1.421875 24.3125 -1.421875 
Q 15.921875 -1.421875 10.953125 3.296875 
Q 6 8.015625 6 15.921875 
Q 6 25.140625 12.171875 29.828125 
Q 18.359375 34.515625 30.609375 34.515625 
L 43.21875 34.515625 
L 43.21875 35.40625 
Q 43.21875 41.609375 39.140625 45 
Q 35.0625 48.390625 27.6875 48.390625 
Q 23 48.390625 18.546875 47.265625 
Q 14.109375 46.140625 10.015625 43.890625 
L 10.015625 52.203125 
Q 14.9375 54.109375 19.578125 55.046875 
Q 24.21875 56 28.609375 56 
Q 40.484375 56 46.34375 49.84375 
Q 52.203125 43.703125 52.203125 31.203125 
z
" id="DejaVuSans-97"/>
      <path d="M 9.421875 54.6875 
L 18.40625 54.6875 
L 18.40625 0 
L 9.421875 0 
z
M 9.421875 75.984375 
L 18.40625 75.984375 
L 18.40625 64.59375 
L 9.421875 64.59375 
z
" id="DejaVuSans-105"/>
      <path d="M 9.421875 75.984375 
L 18.40625 75.984375 
L 18.40625 0 
L 9.421875 0 
z
" id="DejaVuSans-108"/>
      <path d="M 32.171875 -5.078125 
Q 28.375 -14.84375 24.75 -17.8125 
Q 21.140625 -20.796875 15.09375 -20.796875 
L 7.90625 -20.796875 
L 7.90625 -13.28125 
L 13.1875 -13.28125 
Q 16.890625 -13.28125 18.9375 -11.515625 
Q 21 -9.765625 23.484375 -3.21875 
L 25.09375 0.875 
L 2.984375 54.6875 
L 12.5 54.6875 
L 29.59375 11.921875 
L 46.6875 54.6875 
L 56.203125 54.6875 
z
" id="DejaVuSans-121"/>
      <path d="M 19.671875 64.796875 
L 19.671875 8.109375 
L 31.59375 8.109375 
Q 46.6875 8.109375 53.6875 14.9375 
Q 60.6875 21.78125 60.6875 36.53125 
Q 60.6875 51.171875 53.6875 57.984375 
Q 46.6875 64.796875 31.59375 64.796875 
z
M 9.8125 72.90625 
L 30.078125 72.90625 
Q 51.265625 72.90625 61.171875 64.09375 
Q 71.09375 55.28125 71.09375 36.53125 
Q 71.09375 17.671875 61.125 8.828125 
Q 51.171875 0 30.078125 0 
L 9.8125 0 
z
" id="DejaVuSans-68"/>
      <path d="M 44.28125 53.078125 
L 44.28125 44.578125 
Q 40.484375 46.53125 36.375 47.5 
Q 32.28125 48.484375 27.875 48.484375 
Q 21.1875 48.484375 17.84375 46.4375 
Q 14.5 44.390625 14.5 40.28125 
Q 14.5 37.15625 16.890625 35.375 
Q 19.28125 33.59375 26.515625 31.984375 
L 29.59375 31.296875 
Q 39.15625 29.25 43.1875 25.515625 
Q 47.21875 21.78125 47.21875 15.09375 
Q 47.21875 7.46875 41.1875 3.015625 
Q 35.15625 -1.421875 24.609375 -1.421875 
Q 20.21875 -1.421875 15.453125 -0.5625 
Q 10.6875 0.296875 5.421875 2 
L 5.421875 11.28125 
Q 10.40625 8.6875 15.234375 7.390625 
Q 20.0625 6.109375 24.8125 6.109375 
Q 31.15625 6.109375 34.5625 8.28125 
Q 37.984375 10.453125 37.984375 14.40625 
Q 37.984375 18.0625 35.515625 20.015625 
Q 33.0625 21.96875 24.703125 23.78125 
L 21.578125 24.515625 
Q 13.234375 26.265625 9.515625 29.90625 
Q 5.8125 33.546875 5.8125 39.890625 
Q 5.8125 47.609375 11.28125 51.796875 
Q 16.75 56 26.8125 56 
Q 31.78125 56 36.171875 55.265625 
Q 40.578125 54.546875 44.28125 53.078125 
z
" id="DejaVuSans-115"/>
     </defs>
     <g transform="translate(19.3575 283.4925)rotate(-90)scale(0.16 -0.16)">
      <use xlink:href="#DejaVuSans-80"/>
      <use x="60.287109" xlink:href="#DejaVuSans-114"/>
      <use x="101.369141" xlink:href="#DejaVuSans-111"/>
      <use x="162.550781" xlink:href="#DejaVuSans-98"/>
      <use x="226.027344" xlink:href="#DejaVuSans-97"/>
      <use x="287.306641" xlink:href="#DejaVuSans-98"/>
      <use x="350.783203" xlink:href="#DejaVuSans-105"/>
      <use x="378.566406" xlink:href="#DejaVuSans-108"/>
      <use x="406.349609" xlink:href="#DejaVuSans-105"/>
      <use x="434.132812" xlink:href="#DejaVuSans-116"/>
      <use x="473.341797" xlink:href="#DejaVuSans-121"/>
      <use x="532.521484" xlink:href="#DejaVuSans-32"/>
      <use x="564.308594" xlink:href="#DejaVuSans-68"/>
      <use x="641.310547" xlink:href="#DejaVuSans-105"/>
      <use x="669.09375" xlink:href="#DejaVuSans-115"/>
      <use x="721.193359" xlink:href="#DejaVuSans-116"/>
      <use x="760.402344" xlink:href="#DejaVuSans-114"/>
      <use x="801.515625" xlink:href="#DejaVuSans-105"/>
      <use x="829.298828" xlink:href="#DejaVuSans-98"/>
      <use x="892.775391" xlink:href="#DejaVuSans-117"/>
      <use x="956.154297" xlink:href="#DejaVuSans-116"/>
      <use x="995.363281" xlink:href="#DejaVuSans-105"/>
      <use x="1023.146484" xlink:href="#DejaVuSans-111"/>
      <use x="1084.328125" xlink:href="#DejaVuSans-110"/>
     </g>
    </g>
   </g>
   <g id="patch_3">
    <path d="M 33.685 357.9975 
L 33.685 25.3575 
" style="fill:none;stroke:#000000;stroke-linecap:square;stroke-linejoin:miter;stroke-width:0.8;"/>
   </g>
   <g id="patch_4">
    <path d="M 535.885 357.9975 
L 535.885 25.3575 
" style="fill:none;stroke:#000000;stroke-linecap:square;stroke-linejoin:miter;stroke-width:0.8;"/>
   </g>
   <g id="patch_5">
    <path d="M 33.685 357.9975 
L 535.885 357.9975 
" style="fill:none;stroke:#000000;stroke-linecap:square;stroke-linejoin:miter;stroke-width:0.8;"/>
   </g>
   <g id="patch_6">
    <path d="M 33.685 25.3575 
L 535.885 25.3575 
" style="fill:none;stroke:#000000;stroke-linecap:square;stroke-linejoin:miter;stroke-width:0.8;"/>
   </g>
   <g id="text_11">
    <!-- Bell Curve Of Returns -->
    <defs>
     <path d="M 19.671875 34.8125 
L 19.671875 8.109375 
L 35.5 8.109375 
Q 43.453125 8.109375 47.28125 11.40625 
Q 51.125 14.703125 51.125 21.484375 
Q 51.125 28.328125 47.28125 31.5625 
Q 43.453125 34.8125 35.5 34.8125 
z
M 19.671875 64.796875 
L 19.671875 42.828125 
L 34.28125 42.828125 
Q 41.5 42.828125 45.03125 45.53125 
Q 48.578125 48.25 48.578125 53.8125 
Q 48.578125 59.328125 45.03125 62.0625 
Q 41.5 64.796875 34.28125 64.796875 
z
M 9.8125 72.90625 
L 35.015625 72.90625 
Q 46.296875 72.90625 52.390625 68.21875 
Q 58.5 63.53125 58.5 54.890625 
Q 58.5 48.1875 55.375 44.234375 
Q 52.25 40.28125 46.1875 39.3125 
Q 53.46875 37.75 57.5 32.78125 
Q 61.53125 27.828125 61.53125 20.40625 
Q 61.53125 10.640625 54.890625 5.3125 
Q 48.25 0 35.984375 0 
L 9.8125 0 
z
" id="DejaVuSans-66"/>
     <path d="M 64.40625 67.28125 
L 64.40625 56.890625 
Q 59.421875 61.53125 53.78125 63.8125 
Q 48.140625 66.109375 41.796875 66.109375 
Q 29.296875 66.109375 22.65625 58.46875 
Q 16.015625 50.828125 16.015625 36.375 
Q 16.015625 21.96875 22.65625 14.328125 
Q 29.296875 6.6875 41.796875 6.6875 
Q 48.140625 6.6875 53.78125 8.984375 
Q 59.421875 11.28125 64.40625 15.921875 
L 64.40625 5.609375 
Q 59.234375 2.09375 53.4375 0.328125 
Q 47.65625 -1.421875 41.21875 -1.421875 
Q 24.65625 -1.421875 15.125 8.703125 
Q 5.609375 18.84375 5.609375 36.375 
Q 5.609375 53.953125 15.125 64.078125 
Q 24.65625 74.21875 41.21875 74.21875 
Q 47.75 74.21875 53.53125 72.484375 
Q 59.328125 70.75 64.40625 67.28125 
z
" id="DejaVuSans-67"/>
     <path d="M 2.984375 54.6875 
L 12.5 54.6875 
L 29.59375 8.796875 
L 46.6875 54.6875 
L 56.203125 54.6875 
L 35.6875 0 
L 23.484375 0 
z
" id="DejaVuSans-118"/>
     <path d="M 39.40625 66.21875 
Q 28.65625 66.21875 22.328125 58.203125 
Q 16.015625 50.203125 16.015625 36.375 
Q 16.015625 22.609375 22.328125 14.59375 
Q 28.65625 6.59375 39.40625 6.59375 
Q 50.140625 6.59375 56.421875 14.59375 
Q 62.703125 22.609375 62.703125 36.375 
Q 62.703125 50.203125 56.421875 58.203125 
Q 50.140625 66.21875 39.40625 66.21875 
z
M 39.40625 74.21875 
Q 54.734375 74.21875 63.90625 63.9375 
Q 73.09375 53.65625 73.09375 36.375 
Q 73.09375 19.140625 63.90625 8.859375 
Q 54.734375 -1.421875 39.40625 -1.421875 
Q 24.03125 -1.421875 14.8125 8.828125 
Q 5.609375 19.09375 5.609375 36.375 
Q 5.609375 53.65625 14.8125 63.9375 
Q 24.03125 74.21875 39.40625 74.21875 
z
" id="DejaVuSans-79"/>
     <path d="M 37.109375 75.984375 
L 37.109375 68.5 
L 28.515625 68.5 
Q 23.6875 68.5 21.796875 66.546875 
Q 19.921875 64.59375 19.921875 59.515625 
L 19.921875 54.6875 
L 34.71875 54.6875 
L 34.71875 47.703125 
L 19.921875 47.703125 
L 19.921875 0 
L 10.890625 0 
L 10.890625 47.703125 
L 2.296875 47.703125 
L 2.296875 54.6875 
L 10.890625 54.6875 
L 10.890625 58.5 
Q 10.890625 67.625 15.140625 71.796875 
Q 19.390625 75.984375 28.609375 75.984375 
z
" id="DejaVuSans-102"/>
    </defs>
    <g transform="translate(198.3775 19.3575)scale(0.16 -0.16)">
     <use xlink:href="#DejaVuSans-66"/>
     <use x="68.603516" xlink:href="#DejaVuSans-101"/>
     <use x="130.126953" xlink:href="#DejaVuSans-108"/>
     <use x="157.910156" xlink:href="#DejaVuSans-108"/>
     <use x="185.693359" xlink:href="#DejaVuSans-32"/>
     <use x="217.480469" xlink:href="#DejaVuSans-67"/>
     <use x="287.304688" xlink:href="#DejaVuSans-117"/>
     <use x="350.683594" xlink:href="#DejaVuSans-114"/>
     <use x="391.796875" xlink:href="#DejaVuSans-118"/>
     <use x="450.976562" xlink:href="#DejaVuSans-101"/>
     <use x="512.5" xlink:href="#DejaVuSans-32"/>
     <use x="544.287109" xlink:href="#DejaVuSans-79"/>
     <use x="622.998047" xlink:href="#DejaVuSans-102"/>
     <use x="658.203125" xlink:href="#DejaVuSans-32"/>
     <use x="689.990234" xlink:href="#DejaVuSans-82"/>
     <use x="759.410156" xlink:href="#DejaVuSans-101"/>
     <use x="820.933594" xlink:href="#DejaVuSans-116"/>
     <use x="860.142578" xlink:href="#DejaVuSans-117"/>
     <use x="923.521484" xlink:href="#DejaVuSans-114"/>
     <use x="964.619141" xlink:href="#DejaVuSans-110"/>
     <use x="1027.998047" xlink:href="#DejaVuSans-115"/>
    </g>
   </g>
   <g id="legend_1">
    <g id="patch_7">
     <path d="M 40.685 48.035625 
L 110.633438 48.035625 
Q 112.633438 48.035625 112.633438 46.035625 
L 112.633438 32.3575 
Q 112.633438 30.3575 110.633438 30.3575 
L 40.685 30.3575 
Q 38.685 30.3575 38.685 32.3575 
L 38.685 46.035625 
Q 38.685 48.035625 40.685 48.035625 
z
" style="fill:#ffffff;opacity:0.8;stroke:#cccccc;stroke-linejoin:miter;"/>
    </g>
    <g id="line2d_17">
     <path d="M 42.685 38.455938 
L 62.685 38.455938 
" style="fill:none;stroke:#0000ff;stroke-linecap:square;stroke-opacity:0.7;stroke-width:1.5;"/>
    </g>
    <g id="line2d_18"/>
    <g id="text_12">
     <!-- Current -->
     <g transform="translate(70.685 41.955938)scale(0.1 -0.1)">
      <use xlink:href="#DejaVuSans-67"/>
      <use x="69.824219" xlink:href="#DejaVuSans-117"/>
      <use x="133.203125" xlink:href="#DejaVuSans-114"/>
      <use x="174.300781" xlink:href="#DejaVuSans-114"/>
      <use x="215.382812" xlink:href="#DejaVuSans-101"/>
      <use x="276.90625" xlink:href="#DejaVuSans-110"/>
      <use x="340.285156" xlink:href="#DejaVuSans-116"/>
     </g>
    </g>
   </g>
  </g>
 </g>
 <defs>
  <clipPath id="p9916570af6">
   <rect height="332.64" width="502.2" x="33.685" y="25.3575"/>
  </clipPath>
 </defs>
</svg>
